<?xml version="1.0" encoding="UTF-8" standalone="no"?>
<svg xmlns="http://www.w3.org/2000/svg" xmlns:xlink="http://www.w3.org/1999/xlink" width="400" height="400" viewBox="-10 -11 20 20">
  <defs>
    <path id="a" d="M-6-3.4641a6 6 0 0 1 12 0z"/>
    <path id="b" d="M0-3.4641a6 6 0 0 0-6 0A6 6 0 0 0-3 1.732z"/>
    <path id="c" d="M0-3.4641A6 6 0 0 1 3 1.732a6 6 0 0 1-6 0 6 6 0 0 1 3-5.1961z"/>
  </defs>
  <path d="M-10-11h20V9h-20"/>
  <use xlink:href="#a" fill="red"/>
  <use xlink:href="#a" fill="#00f" transform="rotate(120)"/>
  <use xlink:href="#a" fill="#0f0" transform="rotate(240)"/>
  <use xlink:href="#b" fill="#ff0"/>
  <use xlink:href="#b" fill="#f0f" transform="rotate(120)"/>
  <use xlink:href="#b" fill="#0ff" transform="rotate(240)"/>
  <use xlink:href="#c" fill="#fff"/>
  <path stroke="#000" stroke-width=".5" fill="none" d="M-1-4.5v-4h1a1 1 0 0 1 0 2h-1 1l1.2 2"/>
  <path stroke="#000" stroke-width=".5" fill="none" d="M-5 2a1 1 0 0 0-2 0v2a1 1 0 0 0 2 0V3h-1"/>
  <path stroke="#fff" stroke-width=".5" fill="none" d="M5 5V1h1a1 1 0 0 1 0 2H5h1a1 1 0 0 1 0 2H4.75"/>
</svg>
