<svg xmlns="http://www.w3.org/2000/svg" viewBox="0 0 524 298" font-family="ui-sans-serif, system-ui, sans-serif">
<text x="124.0" y="12" text-anchor="middle" font-size="16" font-weight="600" fill="#232430">Primal</text><text x="124.0" y="31" text-anchor="middle" font-size="12.5" fill="#9a9aa4">a vertex on every crossing edge</text><line x1="14" y1="46.0" x2="234" y2="46.0" stroke="#dcdce4" stroke-width="0.9"/><line x1="14.0" y1="46" x2="14.0" y2="266" stroke="#dcdce4" stroke-width="0.9"/><line x1="14" y1="73.5" x2="234" y2="73.5" stroke="#dcdce4" stroke-width="0.9"/><line x1="41.5" y1="46" x2="41.5" y2="266" stroke="#dcdce4" stroke-width="0.9"/><line x1="14" y1="101.0" x2="234" y2="101.0" stroke="#dcdce4" stroke-width="0.9"/><line x1="69.0" y1="46" x2="69.0" y2="266" stroke="#dcdce4" stroke-width="0.9"/><line x1="14" y1="128.5" x2="234" y2="128.5" stroke="#dcdce4" stroke-width="0.9"/><line x1="96.5" y1="46" x2="96.5" y2="266" stroke="#dcdce4" stroke-width="0.9"/><line x1="14" y1="156.0" x2="234" y2="156.0" stroke="#dcdce4" stroke-width="0.9"/><line x1="124.0" y1="46" x2="124.0" y2="266" stroke="#dcdce4" stroke-width="0.9"/><line x1="14" y1="183.5" x2="234" y2="183.5" stroke="#dcdce4" stroke-width="0.9"/><line x1="151.5" y1="46" x2="151.5" y2="266" stroke="#dcdce4" stroke-width="0.9"/><line x1="14" y1="211.0" x2="234" y2="211.0" stroke="#dcdce4" stroke-width="0.9"/><line x1="179.0" y1="46" x2="179.0" y2="266" stroke="#dcdce4" stroke-width="0.9"/><line x1="14" y1="238.5" x2="234" y2="238.5" stroke="#dcdce4" stroke-width="0.9"/><line x1="206.5" y1="46" x2="206.5" y2="266" stroke="#dcdce4" stroke-width="0.9"/><line x1="14" y1="266.0" x2="234" y2="266.0" stroke="#dcdce4" stroke-width="0.9"/><line x1="234.0" y1="46" x2="234.0" y2="266" stroke="#dcdce4" stroke-width="0.9"/><circle cx="14.0" cy="46.0" r="1.8" fill="none" stroke="#9a9aa4" stroke-width="1"/><circle cx="41.5" cy="46.0" r="1.8" fill="none" stroke="#9a9aa4" stroke-width="1"/><circle cx="69.0" cy="46.0" r="1.8" fill="none" stroke="#9a9aa4" stroke-width="1"/><circle cx="96.5" cy="46.0" r="1.8" fill="none" stroke="#9a9aa4" stroke-width="1"/><circle cx="124.0" cy="46.0" r="1.8" fill="none" stroke="#9a9aa4" stroke-width="1"/><circle cx="151.5" cy="46.0" r="1.8" fill="none" stroke="#9a9aa4" stroke-width="1"/><circle cx="179.0" cy="46.0" r="1.8" fill="none" stroke="#9a9aa4" stroke-width="1"/><circle cx="206.5" cy="46.0" r="1.8" fill="none" stroke="#9a9aa4" stroke-width="1"/><circle cx="234.0" cy="46.0" r="1.8" fill="none" stroke="#9a9aa4" stroke-width="1"/><circle cx="14.0" cy="73.5" r="1.8" fill="none" stroke="#9a9aa4" stroke-width="1"/><circle cx="41.5" cy="73.5" r="1.8" fill="none" stroke="#9a9aa4" stroke-width="1"/><circle cx="69.0" cy="73.5" r="1.8" fill="none" stroke="#9a9aa4" stroke-width="1"/><circle cx="96.5" cy="73.5" r="1.8" fill="none" stroke="#9a9aa4" stroke-width="1"/><circle cx="124.0" cy="73.5" r="1.8" fill="none" stroke="#9a9aa4" stroke-width="1"/><circle cx="151.5" cy="73.5" r="1.8" fill="none" stroke="#9a9aa4" stroke-width="1"/><circle cx="179.0" cy="73.5" r="1.8" fill="none" stroke="#9a9aa4" stroke-width="1"/><circle cx="206.5" cy="73.5" r="1.8" fill="none" stroke="#9a9aa4" stroke-width="1"/><circle cx="234.0" cy="73.5" r="1.8" fill="none" stroke="#9a9aa4" stroke-width="1"/><circle cx="14.0" cy="101.0" r="1.8" fill="none" stroke="#9a9aa4" stroke-width="1"/><circle cx="41.5" cy="101.0" r="1.8" fill="none" stroke="#9a9aa4" stroke-width="1"/><circle cx="69.0" cy="101.0" r="1.8" fill="none" stroke="#9a9aa4" stroke-width="1"/><circle cx="96.5" cy="101.0" r="2.6" fill="#bcd8ea" stroke="#1f7a8c" stroke-width="1.1"/><circle cx="124.0" cy="101.0" r="2.6" fill="#bcd8ea" stroke="#1f7a8c" stroke-width="1.1"/><circle cx="151.5" cy="101.0" r="1.8" fill="none" stroke="#9a9aa4" stroke-width="1"/><circle cx="179.0" cy="101.0" r="1.8" fill="none" stroke="#9a9aa4" stroke-width="1"/><circle cx="206.5" cy="101.0" r="1.8" fill="none" stroke="#9a9aa4" stroke-width="1"/><circle cx="234.0" cy="101.0" r="1.8" fill="none" stroke="#9a9aa4" stroke-width="1"/><circle cx="14.0" cy="128.5" r="1.8" fill="none" stroke="#9a9aa4" stroke-width="1"/><circle cx="41.5" cy="128.5" r="1.8" fill="none" stroke="#9a9aa4" stroke-width="1"/><circle cx="69.0" cy="128.5" r="1.8" fill="none" stroke="#9a9aa4" stroke-width="1"/><circle cx="96.5" cy="128.5" r="2.6" fill="#bcd8ea" stroke="#1f7a8c" stroke-width="1.1"/><circle cx="124.0" cy="128.5" r="2.6" fill="#bcd8ea" stroke="#1f7a8c" stroke-width="1.1"/><circle cx="151.5" cy="128.5" r="2.6" fill="#bcd8ea" stroke="#1f7a8c" stroke-width="1.1"/><circle cx="179.0" cy="128.5" r="1.8" fill="none" stroke="#9a9aa4" stroke-width="1"/><circle cx="206.5" cy="128.5" r="1.8" fill="none" stroke="#9a9aa4" stroke-width="1"/><circle cx="234.0" cy="128.5" r="1.8" fill="none" stroke="#9a9aa4" stroke-width="1"/><circle cx="14.0" cy="156.0" r="1.8" fill="none" stroke="#9a9aa4" stroke-width="1"/><circle cx="41.5" cy="156.0" r="1.8" fill="none" stroke="#9a9aa4" stroke-width="1"/><circle cx="69.0" cy="156.0" r="2.6" fill="#bcd8ea" stroke="#1f7a8c" stroke-width="1.1"/><circle cx="96.5" cy="156.0" r="2.6" fill="#bcd8ea" stroke="#1f7a8c" stroke-width="1.1"/><circle cx="124.0" cy="156.0" r="2.6" fill="#bcd8ea" stroke="#1f7a8c" stroke-width="1.1"/><circle cx="151.5" cy="156.0" r="2.6" fill="#bcd8ea" stroke="#1f7a8c" stroke-width="1.1"/><circle cx="179.0" cy="156.0" r="2.6" fill="#bcd8ea" stroke="#1f7a8c" stroke-width="1.1"/><circle cx="206.5" cy="156.0" r="1.8" fill="none" stroke="#9a9aa4" stroke-width="1"/><circle cx="234.0" cy="156.0" r="1.8" fill="none" stroke="#9a9aa4" stroke-width="1"/><circle cx="14.0" cy="183.5" r="1.8" fill="none" stroke="#9a9aa4" stroke-width="1"/><circle cx="41.5" cy="183.5" r="1.8" fill="none" stroke="#9a9aa4" stroke-width="1"/><circle cx="69.0" cy="183.5" r="2.6" fill="#bcd8ea" stroke="#1f7a8c" stroke-width="1.1"/><circle cx="96.5" cy="183.5" r="2.6" fill="#bcd8ea" stroke="#1f7a8c" stroke-width="1.1"/><circle cx="124.0" cy="183.5" r="2.6" fill="#bcd8ea" stroke="#1f7a8c" stroke-width="1.1"/><circle cx="151.5" cy="183.5" r="2.6" fill="#bcd8ea" stroke="#1f7a8c" stroke-width="1.1"/><circle cx="179.0" cy="183.5" r="2.6" fill="#bcd8ea" stroke="#1f7a8c" stroke-width="1.1"/><circle cx="206.5" cy="183.5" r="1.8" fill="none" stroke="#9a9aa4" stroke-width="1"/><circle cx="234.0" cy="183.5" r="1.8" fill="none" stroke="#9a9aa4" stroke-width="1"/><circle cx="14.0" cy="211.0" r="1.8" fill="none" stroke="#9a9aa4" stroke-width="1"/><circle cx="41.5" cy="211.0" r="1.8" fill="none" stroke="#9a9aa4" stroke-width="1"/><circle cx="69.0" cy="211.0" r="2.6" fill="#bcd8ea" stroke="#1f7a8c" stroke-width="1.1"/><circle cx="96.5" cy="211.0" r="2.6" fill="#bcd8ea" stroke="#1f7a8c" stroke-width="1.1"/><circle cx="124.0" cy="211.0" r="2.6" fill="#bcd8ea" stroke="#1f7a8c" stroke-width="1.1"/><circle cx="151.5" cy="211.0" r="1.8" fill="none" stroke="#9a9aa4" stroke-width="1"/><circle cx="179.0" cy="211.0" r="1.8" fill="none" stroke="#9a9aa4" stroke-width="1"/><circle cx="206.5" cy="211.0" r="1.8" fill="none" stroke="#9a9aa4" stroke-width="1"/><circle cx="234.0" cy="211.0" r="1.8" fill="none" stroke="#9a9aa4" stroke-width="1"/><circle cx="14.0" cy="238.5" r="1.8" fill="none" stroke="#9a9aa4" stroke-width="1"/><circle cx="41.5" cy="238.5" r="1.8" fill="none" stroke="#9a9aa4" stroke-width="1"/><circle cx="69.0" cy="238.5" r="1.8" fill="none" stroke="#9a9aa4" stroke-width="1"/><circle cx="96.5" cy="238.5" r="1.8" fill="none" stroke="#9a9aa4" stroke-width="1"/><circle cx="124.0" cy="238.5" r="1.8" fill="none" stroke="#9a9aa4" stroke-width="1"/><circle cx="151.5" cy="238.5" r="1.8" fill="none" stroke="#9a9aa4" stroke-width="1"/><circle cx="179.0" cy="238.5" r="1.8" fill="none" stroke="#9a9aa4" stroke-width="1"/><circle cx="206.5" cy="238.5" r="1.8" fill="none" stroke="#9a9aa4" stroke-width="1"/><circle cx="234.0" cy="238.5" r="1.8" fill="none" stroke="#9a9aa4" stroke-width="1"/><circle cx="14.0" cy="266.0" r="1.8" fill="none" stroke="#9a9aa4" stroke-width="1"/><circle cx="41.5" cy="266.0" r="1.8" fill="none" stroke="#9a9aa4" stroke-width="1"/><circle cx="69.0" cy="266.0" r="1.8" fill="none" stroke="#9a9aa4" stroke-width="1"/><circle cx="96.5" cy="266.0" r="1.8" fill="none" stroke="#9a9aa4" stroke-width="1"/><circle cx="124.0" cy="266.0" r="1.8" fill="none" stroke="#9a9aa4" stroke-width="1"/><circle cx="151.5" cy="266.0" r="1.8" fill="none" stroke="#9a9aa4" stroke-width="1"/><circle cx="179.0" cy="266.0" r="1.8" fill="none" stroke="#9a9aa4" stroke-width="1"/><circle cx="206.5" cy="266.0" r="1.8" fill="none" stroke="#9a9aa4" stroke-width="1"/><circle cx="234.0" cy="266.0" r="1.8" fill="none" stroke="#9a9aa4" stroke-width="1"/><line x1="85.0" y1="101.0" x2="96.5" y2="88.9" stroke="#0059a0" stroke-width="2.4" stroke-linecap="round"/><line x1="96.5" y1="88.9" x2="124.0" y2="85.1" stroke="#0059a0" stroke-width="2.4" stroke-linecap="round"/><line x1="145.4" y1="101.0" x2="124.0" y2="85.1" stroke="#0059a0" stroke-width="2.4" stroke-linecap="round"/><line x1="85.0" y1="101.0" x2="74.8" y2="128.5" stroke="#0059a0" stroke-width="2.4" stroke-linecap="round"/><line x1="145.4" y1="101.0" x2="151.5" y2="108.3" stroke="#0059a0" stroke-width="2.4" stroke-linecap="round"/><line x1="169.2" y1="128.5" x2="151.5" y2="108.3" stroke="#0059a0" stroke-width="2.4" stroke-linecap="round"/><line x1="67.9" y1="156.0" x2="69.0" y2="152.3" stroke="#0059a0" stroke-width="2.4" stroke-linecap="round"/><line x1="74.8" y1="128.5" x2="69.0" y2="152.3" stroke="#0059a0" stroke-width="2.4" stroke-linecap="round"/><line x1="169.2" y1="128.5" x2="179.0" y2="136.7" stroke="#0059a0" stroke-width="2.4" stroke-linecap="round"/><line x1="195.8" y1="156.0" x2="179.0" y2="136.7" stroke="#0059a0" stroke-width="2.4" stroke-linecap="round"/><line x1="67.9" y1="156.0" x2="58.0" y2="183.5" stroke="#0059a0" stroke-width="2.4" stroke-linecap="round"/><line x1="195.8" y1="156.0" x2="198.3" y2="183.5" stroke="#0059a0" stroke-width="2.4" stroke-linecap="round"/><line x1="58.0" y1="183.5" x2="65.2" y2="211.0" stroke="#0059a0" stroke-width="2.4" stroke-linecap="round"/><line x1="151.2" y1="211.0" x2="151.5" y2="210.9" stroke="#0059a0" stroke-width="2.4" stroke-linecap="round"/><line x1="151.5" y1="210.9" x2="179.0" y2="203.9" stroke="#0059a0" stroke-width="2.4" stroke-linecap="round"/><line x1="198.3" y1="183.5" x2="179.0" y2="203.9" stroke="#0059a0" stroke-width="2.4" stroke-linecap="round"/><line x1="65.2" y1="211.0" x2="69.0" y2="215.0" stroke="#0059a0" stroke-width="2.4" stroke-linecap="round"/><line x1="69.0" y1="215.0" x2="96.5" y2="224.9" stroke="#0059a0" stroke-width="2.4" stroke-linecap="round"/><line x1="96.5" y1="224.9" x2="124.0" y2="217.1" stroke="#0059a0" stroke-width="2.4" stroke-linecap="round"/><line x1="151.2" y1="211.0" x2="124.0" y2="217.1" stroke="#0059a0" stroke-width="2.4" stroke-linecap="round"/><circle cx="58.0" cy="183.5" r="3.4" fill="#e2685f" stroke="#ffffff" stroke-width="1.1"/><circle cx="65.2" cy="211.0" r="3.4" fill="#e2685f" stroke="#ffffff" stroke-width="1.1"/><circle cx="67.9" cy="156.0" r="3.4" fill="#e2685f" stroke="#ffffff" stroke-width="1.1"/><circle cx="69.0" cy="152.3" r="3.4" fill="#e2685f" stroke="#ffffff" stroke-width="1.1"/><circle cx="69.0" cy="215.0" r="3.4" fill="#e2685f" stroke="#ffffff" stroke-width="1.1"/><circle cx="74.8" cy="128.5" r="3.4" fill="#e2685f" stroke="#ffffff" stroke-width="1.1"/><circle cx="85.0" cy="101.0" r="3.4" fill="#e2685f" stroke="#ffffff" stroke-width="1.1"/><circle cx="96.5" cy="88.9" r="3.4" fill="#e2685f" stroke="#ffffff" stroke-width="1.1"/><circle cx="96.5" cy="224.9" r="3.4" fill="#e2685f" stroke="#ffffff" stroke-width="1.1"/><circle cx="124.0" cy="85.1" r="3.4" fill="#e2685f" stroke="#ffffff" stroke-width="1.1"/><circle cx="124.0" cy="217.1" r="3.4" fill="#e2685f" stroke="#ffffff" stroke-width="1.1"/><circle cx="145.4" cy="101.0" r="3.4" fill="#e2685f" stroke="#ffffff" stroke-width="1.1"/><circle cx="151.2" cy="211.0" r="3.4" fill="#e2685f" stroke="#ffffff" stroke-width="1.1"/><circle cx="151.5" cy="108.3" r="3.4" fill="#e2685f" stroke="#ffffff" stroke-width="1.1"/><circle cx="151.5" cy="210.9" r="3.4" fill="#e2685f" stroke="#ffffff" stroke-width="1.1"/><circle cx="169.2" cy="128.5" r="3.4" fill="#e2685f" stroke="#ffffff" stroke-width="1.1"/><circle cx="179.0" cy="136.7" r="3.4" fill="#e2685f" stroke="#ffffff" stroke-width="1.1"/><circle cx="179.0" cy="203.9" r="3.4" fill="#e2685f" stroke="#ffffff" stroke-width="1.1"/><circle cx="195.8" cy="156.0" r="3.4" fill="#e2685f" stroke="#ffffff" stroke-width="1.1"/><circle cx="198.3" cy="183.5" r="3.4" fill="#e2685f" stroke="#ffffff" stroke-width="1.1"/><rect x="14" y="46" width="220" height="220" fill="none" stroke="#232430" stroke-width="1.4"/><text x="124.0" y="288" text-anchor="middle" font-size="12.5" fill="#232430">20 vertices</text><text x="400.0" y="12" text-anchor="middle" font-size="16" font-weight="600" fill="#232430">Dual</text><text x="400.0" y="31" text-anchor="middle" font-size="12.5" fill="#9a9aa4">one vertex per crossing cell</text><line x1="290" y1="46.0" x2="510" y2="46.0" stroke="#dcdce4" stroke-width="0.9"/><line x1="290.0" y1="46" x2="290.0" y2="266" stroke="#dcdce4" stroke-width="0.9"/><line x1="290" y1="73.5" x2="510" y2="73.5" stroke="#dcdce4" stroke-width="0.9"/><line x1="317.5" y1="46" x2="317.5" y2="266" stroke="#dcdce4" stroke-width="0.9"/><line x1="290" y1="101.0" x2="510" y2="101.0" stroke="#dcdce4" stroke-width="0.9"/><line x1="345.0" y1="46" x2="345.0" y2="266" stroke="#dcdce4" stroke-width="0.9"/><line x1="290" y1="128.5" x2="510" y2="128.5" stroke="#dcdce4" stroke-width="0.9"/><line x1="372.5" y1="46" x2="372.5" y2="266" stroke="#dcdce4" stroke-width="0.9"/><line x1="290" y1="156.0" x2="510" y2="156.0" stroke="#dcdce4" stroke-width="0.9"/><line x1="400.0" y1="46" x2="400.0" y2="266" stroke="#dcdce4" stroke-width="0.9"/><line x1="290" y1="183.5" x2="510" y2="183.5" stroke="#dcdce4" stroke-width="0.9"/><line x1="427.5" y1="46" x2="427.5" y2="266" stroke="#dcdce4" stroke-width="0.9"/><line x1="290" y1="211.0" x2="510" y2="211.0" stroke="#dcdce4" stroke-width="0.9"/><line x1="455.0" y1="46" x2="455.0" y2="266" stroke="#dcdce4" stroke-width="0.9"/><line x1="290" y1="238.5" x2="510" y2="238.5" stroke="#dcdce4" stroke-width="0.9"/><line x1="482.5" y1="46" x2="482.5" y2="266" stroke="#dcdce4" stroke-width="0.9"/><line x1="290" y1="266.0" x2="510" y2="266.0" stroke="#dcdce4" stroke-width="0.9"/><line x1="510.0" y1="46" x2="510.0" y2="266" stroke="#dcdce4" stroke-width="0.9"/><circle cx="290.0" cy="46.0" r="1.8" fill="none" stroke="#9a9aa4" stroke-width="1"/><circle cx="317.5" cy="46.0" r="1.8" fill="none" stroke="#9a9aa4" stroke-width="1"/><circle cx="345.0" cy="46.0" r="1.8" fill="none" stroke="#9a9aa4" stroke-width="1"/><circle cx="372.5" cy="46.0" r="1.8" fill="none" stroke="#9a9aa4" stroke-width="1"/><circle cx="400.0" cy="46.0" r="1.8" fill="none" stroke="#9a9aa4" stroke-width="1"/><circle cx="427.5" cy="46.0" r="1.8" fill="none" stroke="#9a9aa4" stroke-width="1"/><circle cx="455.0" cy="46.0" r="1.8" fill="none" stroke="#9a9aa4" stroke-width="1"/><circle cx="482.5" cy="46.0" r="1.8" fill="none" stroke="#9a9aa4" stroke-width="1"/><circle cx="510.0" cy="46.0" r="1.8" fill="none" stroke="#9a9aa4" stroke-width="1"/><circle cx="290.0" cy="73.5" r="1.8" fill="none" stroke="#9a9aa4" stroke-width="1"/><circle cx="317.5" cy="73.5" r="1.8" fill="none" stroke="#9a9aa4" stroke-width="1"/><circle cx="345.0" cy="73.5" r="1.8" fill="none" stroke="#9a9aa4" stroke-width="1"/><circle cx="372.5" cy="73.5" r="1.8" fill="none" stroke="#9a9aa4" stroke-width="1"/><circle cx="400.0" cy="73.5" r="1.8" fill="none" stroke="#9a9aa4" stroke-width="1"/><circle cx="427.5" cy="73.5" r="1.8" fill="none" stroke="#9a9aa4" stroke-width="1"/><circle cx="455.0" cy="73.5" r="1.8" fill="none" stroke="#9a9aa4" stroke-width="1"/><circle cx="482.5" cy="73.5" r="1.8" fill="none" stroke="#9a9aa4" stroke-width="1"/><circle cx="510.0" cy="73.5" r="1.8" fill="none" stroke="#9a9aa4" stroke-width="1"/><circle cx="290.0" cy="101.0" r="1.8" fill="none" stroke="#9a9aa4" stroke-width="1"/><circle cx="317.5" cy="101.0" r="1.8" fill="none" stroke="#9a9aa4" stroke-width="1"/><circle cx="345.0" cy="101.0" r="1.8" fill="none" stroke="#9a9aa4" stroke-width="1"/><circle cx="372.5" cy="101.0" r="2.6" fill="#bcd8ea" stroke="#1f7a8c" stroke-width="1.1"/><circle cx="400.0" cy="101.0" r="2.6" fill="#bcd8ea" stroke="#1f7a8c" stroke-width="1.1"/><circle cx="427.5" cy="101.0" r="1.8" fill="none" stroke="#9a9aa4" stroke-width="1"/><circle cx="455.0" cy="101.0" r="1.8" fill="none" stroke="#9a9aa4" stroke-width="1"/><circle cx="482.5" cy="101.0" r="1.8" fill="none" stroke="#9a9aa4" stroke-width="1"/><circle cx="510.0" cy="101.0" r="1.8" fill="none" stroke="#9a9aa4" stroke-width="1"/><circle cx="290.0" cy="128.5" r="1.8" fill="none" stroke="#9a9aa4" stroke-width="1"/><circle cx="317.5" cy="128.5" r="1.8" fill="none" stroke="#9a9aa4" stroke-width="1"/><circle cx="345.0" cy="128.5" r="1.8" fill="none" stroke="#9a9aa4" stroke-width="1"/><circle cx="372.5" cy="128.5" r="2.6" fill="#bcd8ea" stroke="#1f7a8c" stroke-width="1.1"/><circle cx="400.0" cy="128.5" r="2.6" fill="#bcd8ea" stroke="#1f7a8c" stroke-width="1.1"/><circle cx="427.5" cy="128.5" r="2.6" fill="#bcd8ea" stroke="#1f7a8c" stroke-width="1.1"/><circle cx="455.0" cy="128.5" r="1.8" fill="none" stroke="#9a9aa4" stroke-width="1"/><circle cx="482.5" cy="128.5" r="1.8" fill="none" stroke="#9a9aa4" stroke-width="1"/><circle cx="510.0" cy="128.5" r="1.8" fill="none" stroke="#9a9aa4" stroke-width="1"/><circle cx="290.0" cy="156.0" r="1.8" fill="none" stroke="#9a9aa4" stroke-width="1"/><circle cx="317.5" cy="156.0" r="1.8" fill="none" stroke="#9a9aa4" stroke-width="1"/><circle cx="345.0" cy="156.0" r="2.6" fill="#bcd8ea" stroke="#1f7a8c" stroke-width="1.1"/><circle cx="372.5" cy="156.0" r="2.6" fill="#bcd8ea" stroke="#1f7a8c" stroke-width="1.1"/><circle cx="400.0" cy="156.0" r="2.6" fill="#bcd8ea" stroke="#1f7a8c" stroke-width="1.1"/><circle cx="427.5" cy="156.0" r="2.6" fill="#bcd8ea" stroke="#1f7a8c" stroke-width="1.1"/><circle cx="455.0" cy="156.0" r="2.6" fill="#bcd8ea" stroke="#1f7a8c" stroke-width="1.1"/><circle cx="482.5" cy="156.0" r="1.8" fill="none" stroke="#9a9aa4" stroke-width="1"/><circle cx="510.0" cy="156.0" r="1.8" fill="none" stroke="#9a9aa4" stroke-width="1"/><circle cx="290.0" cy="183.5" r="1.8" fill="none" stroke="#9a9aa4" stroke-width="1"/><circle cx="317.5" cy="183.5" r="1.8" fill="none" stroke="#9a9aa4" stroke-width="1"/><circle cx="345.0" cy="183.5" r="2.6" fill="#bcd8ea" stroke="#1f7a8c" stroke-width="1.1"/><circle cx="372.5" cy="183.5" r="2.6" fill="#bcd8ea" stroke="#1f7a8c" stroke-width="1.1"/><circle cx="400.0" cy="183.5" r="2.6" fill="#bcd8ea" stroke="#1f7a8c" stroke-width="1.1"/><circle cx="427.5" cy="183.5" r="2.6" fill="#bcd8ea" stroke="#1f7a8c" stroke-width="1.1"/><circle cx="455.0" cy="183.5" r="2.6" fill="#bcd8ea" stroke="#1f7a8c" stroke-width="1.1"/><circle cx="482.5" cy="183.5" r="1.8" fill="none" stroke="#9a9aa4" stroke-width="1"/><circle cx="510.0" cy="183.5" r="1.8" fill="none" stroke="#9a9aa4" stroke-width="1"/><circle cx="290.0" cy="211.0" r="1.8" fill="none" stroke="#9a9aa4" stroke-width="1"/><circle cx="317.5" cy="211.0" r="1.8" fill="none" stroke="#9a9aa4" stroke-width="1"/><circle cx="345.0" cy="211.0" r="2.6" fill="#bcd8ea" stroke="#1f7a8c" stroke-width="1.1"/><circle cx="372.5" cy="211.0" r="2.6" fill="#bcd8ea" stroke="#1f7a8c" stroke-width="1.1"/><circle cx="400.0" cy="211.0" r="2.6" fill="#bcd8ea" stroke="#1f7a8c" stroke-width="1.1"/><circle cx="427.5" cy="211.0" r="1.8" fill="none" stroke="#9a9aa4" stroke-width="1"/><circle cx="455.0" cy="211.0" r="1.8" fill="none" stroke="#9a9aa4" stroke-width="1"/><circle cx="482.5" cy="211.0" r="1.8" fill="none" stroke="#9a9aa4" stroke-width="1"/><circle cx="510.0" cy="211.0" r="1.8" fill="none" stroke="#9a9aa4" stroke-width="1"/><circle cx="290.0" cy="238.5" r="1.8" fill="none" stroke="#9a9aa4" stroke-width="1"/><circle cx="317.5" cy="238.5" r="1.8" fill="none" stroke="#9a9aa4" stroke-width="1"/><circle cx="345.0" cy="238.5" r="1.8" fill="none" stroke="#9a9aa4" stroke-width="1"/><circle cx="372.5" cy="238.5" r="1.8" fill="none" stroke="#9a9aa4" stroke-width="1"/><circle cx="400.0" cy="238.5" r="1.8" fill="none" stroke="#9a9aa4" stroke-width="1"/><circle cx="427.5" cy="238.5" r="1.8" fill="none" stroke="#9a9aa4" stroke-width="1"/><circle cx="455.0" cy="238.5" r="1.8" fill="none" stroke="#9a9aa4" stroke-width="1"/><circle cx="482.5" cy="238.5" r="1.8" fill="none" stroke="#9a9aa4" stroke-width="1"/><circle cx="510.0" cy="238.5" r="1.8" fill="none" stroke="#9a9aa4" stroke-width="1"/><circle cx="290.0" cy="266.0" r="1.8" fill="none" stroke="#9a9aa4" stroke-width="1"/><circle cx="317.5" cy="266.0" r="1.8" fill="none" stroke="#9a9aa4" stroke-width="1"/><circle cx="345.0" cy="266.0" r="1.8" fill="none" stroke="#9a9aa4" stroke-width="1"/><circle cx="372.5" cy="266.0" r="1.8" fill="none" stroke="#9a9aa4" stroke-width="1"/><circle cx="400.0" cy="266.0" r="1.8" fill="none" stroke="#9a9aa4" stroke-width="1"/><circle cx="427.5" cy="266.0" r="1.8" fill="none" stroke="#9a9aa4" stroke-width="1"/><circle cx="455.0" cy="266.0" r="1.8" fill="none" stroke="#9a9aa4" stroke-width="1"/><circle cx="482.5" cy="266.0" r="1.8" fill="none" stroke="#9a9aa4" stroke-width="1"/><circle cx="510.0" cy="266.0" r="1.8" fill="none" stroke="#9a9aa4" stroke-width="1"/><line x1="366.7" y1="94.9" x2="355.9" y2="114.8" stroke="#0059a0" stroke-width="2.4" stroke-linecap="round"/><line x1="410.7" y1="93.1" x2="424.5" y2="104.7" stroke="#0059a0" stroke-width="2.4" stroke-linecap="round"/><line x1="355.9" y1="114.8" x2="347.9" y2="140.4" stroke="#0059a0" stroke-width="2.4" stroke-linecap="round"/><line x1="436.3" y1="118.4" x2="450.1" y2="132.6" stroke="#0059a0" stroke-width="2.4" stroke-linecap="round"/><line x1="344.5" y1="154.1" x2="339.0" y2="169.8" stroke="#0059a0" stroke-width="2.4" stroke-linecap="round"/><line x1="463.4" y1="146.3" x2="473.0" y2="169.8" stroke="#0059a0" stroke-width="2.4" stroke-linecap="round"/><line x1="339.0" y1="169.8" x2="337.6" y2="197.2" stroke="#0059a0" stroke-width="2.4" stroke-linecap="round"/><line x1="473.0" y1="169.8" x2="464.6" y2="193.7" stroke="#0059a0" stroke-width="2.4" stroke-linecap="round"/><line x1="337.6" y1="197.2" x2="343.1" y2="213.0" stroke="#0059a0" stroke-width="2.4" stroke-linecap="round"/><line x1="427.3" y1="211.0" x2="413.6" y2="214.1" stroke="#0059a0" stroke-width="2.4" stroke-linecap="round"/><line x1="366.7" y1="94.9" x2="386.2" y2="87.0" stroke="#0059a0" stroke-width="2.4" stroke-linecap="round"/><line x1="386.2" y1="87.0" x2="410.7" y2="93.1" stroke="#0059a0" stroke-width="2.4" stroke-linecap="round"/><line x1="424.5" y1="104.7" x2="436.3" y2="118.4" stroke="#0059a0" stroke-width="2.4" stroke-linecap="round"/><line x1="344.5" y1="154.1" x2="347.9" y2="140.4" stroke="#0059a0" stroke-width="2.4" stroke-linecap="round"/><line x1="450.1" y1="132.6" x2="463.4" y2="146.3" stroke="#0059a0" stroke-width="2.4" stroke-linecap="round"/><line x1="427.3" y1="211.0" x2="441.2" y2="207.4" stroke="#0059a0" stroke-width="2.4" stroke-linecap="round"/><line x1="441.2" y1="207.4" x2="464.6" y2="193.7" stroke="#0059a0" stroke-width="2.4" stroke-linecap="round"/><line x1="343.1" y1="213.0" x2="358.8" y2="220.0" stroke="#0059a0" stroke-width="2.4" stroke-linecap="round"/><line x1="358.8" y1="220.0" x2="386.2" y2="221.0" stroke="#0059a0" stroke-width="2.4" stroke-linecap="round"/><line x1="386.2" y1="221.0" x2="413.6" y2="214.1" stroke="#0059a0" stroke-width="2.4" stroke-linecap="round"/><circle cx="337.6" cy="197.2" r="3.4" fill="#e2685f" stroke="#ffffff" stroke-width="1.1"/><circle cx="339.0" cy="169.8" r="3.4" fill="#e2685f" stroke="#ffffff" stroke-width="1.1"/><circle cx="343.1" cy="213.0" r="3.4" fill="#e2685f" stroke="#ffffff" stroke-width="1.1"/><circle cx="344.5" cy="154.1" r="3.4" fill="#e2685f" stroke="#ffffff" stroke-width="1.1"/><circle cx="347.9" cy="140.4" r="3.4" fill="#e2685f" stroke="#ffffff" stroke-width="1.1"/><circle cx="355.9" cy="114.8" r="3.4" fill="#e2685f" stroke="#ffffff" stroke-width="1.1"/><circle cx="358.8" cy="220.0" r="3.4" fill="#e2685f" stroke="#ffffff" stroke-width="1.1"/><circle cx="366.7" cy="94.9" r="3.4" fill="#e2685f" stroke="#ffffff" stroke-width="1.1"/><circle cx="386.2" cy="87.0" r="3.4" fill="#e2685f" stroke="#ffffff" stroke-width="1.1"/><circle cx="386.2" cy="221.0" r="3.4" fill="#e2685f" stroke="#ffffff" stroke-width="1.1"/><circle cx="410.7" cy="93.1" r="3.4" fill="#e2685f" stroke="#ffffff" stroke-width="1.1"/><circle cx="413.6" cy="214.1" r="3.4" fill="#e2685f" stroke="#ffffff" stroke-width="1.1"/><circle cx="424.5" cy="104.7" r="3.4" fill="#e2685f" stroke="#ffffff" stroke-width="1.1"/><circle cx="427.3" cy="211.0" r="3.4" fill="#e2685f" stroke="#ffffff" stroke-width="1.1"/><circle cx="436.3" cy="118.4" r="3.4" fill="#e2685f" stroke="#ffffff" stroke-width="1.1"/><circle cx="441.2" cy="207.4" r="3.4" fill="#e2685f" stroke="#ffffff" stroke-width="1.1"/><circle cx="450.1" cy="132.6" r="3.4" fill="#e2685f" stroke="#ffffff" stroke-width="1.1"/><circle cx="463.4" cy="146.3" r="3.4" fill="#e2685f" stroke="#ffffff" stroke-width="1.1"/><circle cx="464.6" cy="193.7" r="3.4" fill="#e2685f" stroke="#ffffff" stroke-width="1.1"/><circle cx="473.0" cy="169.8" r="3.4" fill="#e2685f" stroke="#ffffff" stroke-width="1.1"/><rect x="290" y="46" width="220" height="220" fill="none" stroke="#232430" stroke-width="1.4"/><text x="400.0" y="288" text-anchor="middle" font-size="12.5" fill="#232430">20 vertices</text></svg>
