ply
format ascii 1.0
element vertex 1200
property float x
property float y
property float z
property uchar red
property uchar green
property uchar blue
property float elevation
property float intensity
end_header
0.340844 -0.021363 -1.955304 127 237 17 -1.955304 0.437219
0.369645 -0.030319 -1.962715 127 237 17 -1.962715 0.576844
0.393182 -0.031150 -1.982962 127 237 17 -1.982962 0.688356
0.405149 -0.023635 -2.010619 127 237 17 -2.010619 0.742154
0.402338 -0.009787 -2.038277 127 237 17 -2.038277 0.725539
0.385503 0.006683 -2.058524 127 237 17 -2.058524 0.644741
0.359156 0.021363 -2.065935 127 237 17 -2.065935 0.521899
0.330355 0.030319 -2.058524 127 237 17 -2.058524 0.388441
0.306818 0.031150 -2.038277 127 237 17 -2.038277 0.277595
0.294851 0.023635 -2.010619 127 237 17 -2.010619 0.218155
0.297662 0.009787 -1.982962 127 237 17 -1.982962 0.228466
0.314497 -0.006683 -1.962715 127 237 17 -1.962715 0.308741
0.371705 0.074267 -1.914301 135 233 13 -1.914301 0.611428
0.401762 0.076615 -1.921763 135 233 13 -1.921763 0.753548
0.423892 0.084310 -1.942151 135 233 13 -1.942151 0.863438
0.432166 0.095289 -1.970001 135 233 13 -1.970001 0.912295
0.424367 0.106611 -1.997851 135 233 13 -1.997851 0.888318
0.402585 0.115241 -2.018238 135 233 13 -2.018238 0.798862
0.372655 0.118868 -2.025700 135 233 13 -2.025700 0.667723
0.342599 0.116520 -2.018238 135 233 13 -2.018238 0.528716
0.320468 0.108825 -1.997851 135 233 13 -1.997851 0.417616
0.312194 0.097846 -1.970001 135 233 13 -1.970001 0.364350
0.319993 0.086524 -1.942151 135 233 13 -1.942151 0.385174
0.341775 0.077894 -1.921763 135 233 13 -1.921763 0.475931
0.359975 0.174789 -1.873673 143 228 9 -1.873673 0.709563
0.385042 0.191539 -1.881137 143 228 9 -1.881137 0.851239
0.400583 0.209069 -1.901528 143 228 9 -1.901528 0.954577
0.402433 0.222683 -1.929382 143 228 9 -1.929382 0.992798
0.390098 0.228732 -1.957237 143 228 9 -1.957237 0.956113
0.366882 0.225595 -1.977627 143 228 9 -1.977627 0.854035
0.339005 0.214113 -1.985091 143 228 9 -1.985091 0.713033
0.313939 0.197363 -1.977627 143 228 9 -1.977627 0.570128
0.298398 0.179833 -1.957237 143 228 9 -1.957237 0.463815
0.296547 0.166220 -1.929382 143 228 9 -1.929382 0.423843
0.308883 0.160171 -1.901528 143 228 9 -1.901528 0.461815
0.332099 0.163307 -1.881137 143 228 9 -1.881137 0.566872
0.299520 0.255747 -1.833054 151 223 7 -1.833054 0.679473
0.312957 0.282736 -1.840518 151 223 7 -1.840518 0.811915
0.317738 0.305670 -1.860909 151 223 7 -1.860909 0.902804
0.312583 0.318404 -1.888764 151 223 7 -1.888764 0.928064
0.298872 0.317526 -1.916618 151 223 7 -1.916618 0.880127
0.280281 0.303272 -1.937009 151 223 7 -1.937009 0.770625
0.261790 0.279461 -1.944473 151 223 7 -1.944473 0.628190
0.248353 0.252472 -1.937009 151 223 7 -1.937009 0.491585
0.243572 0.229538 -1.916618 151 223 7 -1.916618 0.399104
0.248727 0.216804 -1.888764 151 223 7 -1.888764 0.376505
0.262438 0.217682 -1.860909 151 223 7 -1.860909 0.428662
0.281029 0.231936 -1.840518 151 223 7 -1.840518 0.539666
0.209783 0.297843 -1.792741 159 218 4 -1.792741 0.541042
0.211424 0.327957 -1.800164 159 218 4 -1.800164 0.664263
0.206529 0.350966 -1.820443 159 218 4 -1.820443 0.745468
0.196412 0.360705 -1.848145 159 218 4 -1.848145 0.762439
0.183781 0.354565 -1.875847 159 218 4 -1.875847 0.708895
0.172023 0.334191 -1.896126 159 218 4 -1.896126 0.597511
0.164287 0.305042 -1.903549 159 218 4 -1.903549 0.457862
0.162646 0.274928 -1.896126 159 218 4 -1.896126 0.329161
0.167540 0.251919 -1.875847 159 218 4 -1.875847 0.248453
0.177658 0.242180 -1.848145 159 218 4 -1.848145 0.237604
0.190288 0.248320 -1.820443 159 218 4 -1.820443 0.296634
0.202047 0.268694 -1.800164 159 218 4 -1.800164 0.407384
0.120247 0.306041 -1.753232 167 212 2 -1.753232 0.375928
0.115256 0.335821 -1.760506 167 212 2 -1.760506 0.501047
0.104770 0.357262 -1.780379 167 212 2 -1.780379 0.583689
0.091597 0.364619 -1.807526 167 212 2 -1.807526 0.601683
0.079268 0.355922 -1.834674 167 212 2 -1.834674 0.548597
0.071086 0.333500 -1.854547 167 212 2 -1.854547 0.436637
0.069243 0.303362 -1.861821 167 212 2 -1.861821 0.294922
0.074234 0.273583 -1.854547 167 212 2 -1.854547 0.162857
0.084720 0.252142 -1.834674 167 212 2 -1.834674 0.078897
0.097893 0.244784 -1.807526 167 212 2 -1.807526 0.066751
0.110222 0.253482 -1.780379 167 212 2 -1.780379 0.126862
0.118404 0.275903 -1.760506 167 212 2 -1.760506 0.239917
0.042434 0.300825 -1.713917 174 206 1 -1.713917 0.261746
0.037965 0.330729 -1.721017 174 206 1 -1.721017 0.400270
0.027155 0.352444 -1.740413 174 206 1 -1.740413 0.498714
0.012900 0.360152 -1.766908 174 206 1 -1.766908 0.532340
-0.000980 0.351788 -1.793403 174 206 1 -1.793403 0.492499
-0.010766 0.329592 -1.812799 174 206 1 -1.812799 0.388803
-0.013836 0.299512 -1.819898 174 206 1 -1.819898 0.247194
-0.009367 0.269608 -1.812799 174 206 1 -1.812799 0.104391
0.001443 0.247893 -1.793403 174 206 1 -1.793403 0.000000
0.015698 0.240185 -1.766908 174 206 1 -1.766908 0.000000
0.029578 0.248549 -1.740413 174 206 1 -1.740413 0.008551
0.039364 0.270745 -1.721017 174 206 1 -1.721017 0.118411
-0.036655 0.300899 -1.672581 182 199 0 -1.672581 0.264678
-0.038193 0.331073 -1.679777 182 199 0 -1.679777 0.407444
-0.046468 0.353648 -1.699435 182 199 0 -1.699435 0.518886
-0.059265 0.362577 -1.726289 182 199 0 -1.726289 0.570432
-0.073154 0.355465 -1.753143 182 199 0 -1.753143 0.550290
-0.084413 0.334220 -1.772802 182 199 0 -1.772802 0.465185
-0.090026 0.304532 -1.779998 182 199 0 -1.779998 0.337520
-0.088489 0.274358 -1.772802 182 199 0 -1.772802 0.199349
-0.080213 0.251782 -1.753143 182 199 0 -1.753143 0.085351
-0.067416 0.242854 -1.726289 182 199 0 -1.726289 0.026426
-0.053528 0.249965 -1.699435 182 199 0 -1.699435 0.041859
-0.042268 0.271211 -1.679777 182 199 0 -1.679777 0.129759
-0.127494 0.306352 -1.630575 189 193 0 -1.630575 0.408096
-0.132230 0.336147 -1.637957 189 193 0 -1.637957 0.546929
-0.142054 0.357627 -1.658123 189 193 0 -1.658123 0.658858
-0.154334 0.365039 -1.685671 189 193 0 -1.685671 0.714075
-0.165781 0.356395 -1.713218 189 193 0 -1.713218 0.699621
-0.173326 0.334011 -1.733385 189 193 0 -1.733385 0.621372
-0.174948 0.303887 -1.740766 189 193 0 -1.740766 0.500966
-0.170213 0.274092 -1.733385 189 193 0 -1.733385 0.369139
-0.160389 0.252612 -1.713218 189 193 0 -1.713218 0.258408
-0.148108 0.245200 -1.685671 189 193 0 -1.685671 0.197237
-0.136662 0.253844 -1.658123 189 193 0 -1.658123 0.204527
-0.129116 0.276227 -1.637957 189 193 0 -1.637957 0.281721
-0.226194 0.293479 -1.589390 196 185 0 -1.589390 0.599058
-0.240403 0.320071 -1.596848 196 185 0 -1.596848 0.739842
-0.256354 0.337250 -1.617221 196 185 0 -1.617221 0.850589
-0.269772 0.340413 -1.645052 196 185 0 -1.645052 0.902021
-0.277063 0.328712 -1.672883 196 185 0 -1.672883 0.881796
-0.276272 0.305284 -1.693257 196 185 0 -1.693257 0.796645
-0.267612 0.276404 -1.700714 196 185 0 -1.700714 0.669543
-0.253404 0.249813 -1.693257 196 185 0 -1.693257 0.533213
-0.237453 0.232634 -1.672883 196 185 0 -1.672883 0.422269
-0.224035 0.229471 -1.645052 196 185 0 -1.645052 0.366087
-0.216744 0.241171 -1.617221 196 185 0 -1.617221 0.381783
-0.217535 0.264600 -1.596848 196 185 0 -1.596848 0.467240
-0.314106 0.243185 -1.548722 203 178 0 -1.548722 0.732808
-0.339119 0.260015 -1.556186 203 178 0 -1.556186 0.875587
-0.361236 0.267737 -1.576578 203 178 0 -1.576578 0.981809
-0.374530 0.264283 -1.604434 203 178 0 -1.604434 1.000000
-0.375440 0.250577 -1.632289 203 178 0 -1.632289 0.991376
-0.363721 0.230293 -1.652681 203 178 0 -1.652681 0.892986
-0.342514 0.208865 -1.660145 203 178 0 -1.660145 0.754384
-0.317500 0.192035 -1.652681 203 178 0 -1.652681 0.611681
-0.295384 0.184312 -1.632289 203 178 0 -1.632289 0.502805
-0.282089 0.187767 -1.604434 203 178 0 -1.604434 0.457927
-0.281180 0.201472 -1.576578 203 178 0 -1.576578 0.490409
-0.292899 0.221757 -1.556186 203 178 0 -1.556186 0.591494
-0.366021 0.156495 -1.508099 209 171 1 -1.508099 0.743246
-0.396112 0.158349 -1.515563 209 171 1 -1.515563 0.879024
-0.419094 0.153817 -1.535957 209 171 1 -1.535957 0.973759
-0.428810 0.144114 -1.563815 209 171 1 -1.563815 1.000000
-0.422655 0.131839 -1.591673 209 171 1 -1.591673 0.957379
-0.402280 0.120282 -1.612067 209 171 1 -1.612067 0.849231
-0.373143 0.112539 -1.619531 209 171 1 -1.619531 0.706299
-0.343053 0.110685 -1.612067 209 171 1 -1.612067 0.567054
-0.320070 0.115217 -1.591673 209 171 1 -1.591673 0.470090
-0.310355 0.124920 -1.563815 209 171 1 -1.563815 0.442566
-0.316509 0.137195 -1.535957 209 171 1 -1.535957 0.491311
-0.336884 0.148752 -1.515563 209 171 1 -1.515563 0.601622
-0.368738 0.056415 -1.467656 215 163 3 -1.467656 0.629945
-0.396715 0.045167 -1.475097 215 163 3 -1.475097 0.755134
-0.415508 0.031090 -1.495426 215 163 3 -1.495426 0.838296
-0.420081 0.017955 -1.523196 215 163 3 -1.523196 0.856841
-0.409208 0.009283 -1.550967 215 163 3 -1.550967 0.804297
-0.385803 0.007397 -1.571296 215 163 3 -1.571296 0.693210
-0.356138 0.012802 -1.578737 215 163 3 -1.578737 0.553024
-0.328161 0.024050 -1.571296 215 163 3 -1.571296 0.422813
-0.309368 0.038128 -1.550967 215 163 3 -1.550967 0.339738
-0.304795 0.051262 -1.523196 215 163 3 -1.523196 0.326418
-0.315668 0.059934 -1.495426 215 163 3 -1.495426 0.384002
-0.339073 0.061821 -1.475097 215 163 3 -1.475097 0.494888
-0.335830 -0.030519 -1.427924 221 155 5 -1.427924 0.464119
-0.359751 -0.048925 -1.435246 221 155 5 -1.435246 0.587273
-0.373819 -0.068069 -1.455251 221 155 5 -1.455251 0.667964
-0.374265 -0.082822 -1.482578 221 155 5 -1.482578 0.684278
-0.360970 -0.089231 -1.509905 221 155 5 -1.509905 0.630070
-0.337495 -0.085578 -1.529910 221 155 5 -1.529910 0.517938
-0.310130 -0.072842 -1.537232 221 155 5 -1.537232 0.377374
-0.286209 -0.054436 -1.529910 221 155 5 -1.529910 0.247801
-0.272141 -0.035291 -1.509905 221 155 5 -1.509905 0.166868
-0.271695 -0.020539 -1.482578 221 155 5 -1.482578 0.156912
-0.284991 -0.014130 -1.455251 221 155 5 -1.455251 0.217572
-0.308466 -0.017783 -1.435246 221 155 5 -1.435246 0.329769
-0.292402 -0.098065 -1.388763 226 147 8 -1.388763 0.330012
-0.315591 -0.117458 -1.395890 226 147 8 -1.395890 0.464594
-0.328534 -0.137903 -1.415361 226 147 8 -1.415361 0.557612
-0.327762 -0.153920 -1.441959 226 147 8 -1.441959 0.585330
-0.313484 -0.161219 -1.468557 226 147 8 -1.468557 0.539981
-0.289523 -0.157844 -1.488029 226 147 8 -1.488029 0.432150
-0.262302 -0.144698 -1.495156 226 147 8 -1.495156 0.289009
-0.239113 -0.125305 -1.488029 226 147 8 -1.488029 0.148538
-0.226170 -0.104861 -1.468557 226 147 8 -1.468557 0.050381
-0.226941 -0.088843 -1.441959 226 147 8 -1.441959 0.023569
-0.241220 -0.081544 -1.415361 226 147 8 -1.415361 0.075020
-0.265180 -0.084920 -1.395890 226 147 8 -1.395890 0.187825
-0.251671 -0.163690 -1.347994 231 139 11 -1.347994 0.292234
-0.276843 -0.180420 -1.355141 231 139 11 -1.355141 0.435552
-0.291974 -0.199246 -1.374667 231 139 11 -1.374667 0.544790
-0.293009 -0.215123 -1.401341 231 139 11 -1.401341 0.592290
-0.279671 -0.223796 -1.428014 231 139 11 -1.428014 0.567050
-0.255533 -0.222943 -1.447541 231 139 11 -1.447541 0.476490
-0.227064 -0.212791 -1.454688 231 139 11 -1.454688 0.343916
-0.201892 -0.196061 -1.447541 231 139 11 -1.447541 0.202702
-0.186761 -0.177236 -1.428014 231 139 11 -1.428014 0.089174
-0.185726 -0.161359 -1.401341 231 139 11 -1.401341 0.035082
-0.199065 -0.152685 -1.374667 231 139 11 -1.374667 0.058213
-0.223202 -0.153539 -1.355141 231 139 11 -1.355141 0.153258
-0.212884 -0.242586 -1.305906 235 131 15 -1.305906 0.398192
-0.237251 -0.260390 -1.313250 235 131 15 -1.313250 0.538278
-0.251826 -0.279088 -1.333314 235 131 15 -1.333314 0.650355
-0.252704 -0.293671 -1.360722 235 131 15 -1.360722 0.704830
-0.239651 -0.300231 -1.388130 235 131 15 -1.388130 0.688992
-0.216163 -0.297010 -1.408194 235 131 15 -1.408194 0.608904
-0.188534 -0.284871 -1.415538 235 131 15 -1.415538 0.486428
-0.164168 -0.267068 -1.408194 235 131 15 -1.408194 0.352728
-0.149593 -0.248370 -1.388130 235 131 15 -1.388130 0.240955
-0.148714 -0.233787 -1.360722 235 131 15 -1.360722 0.180238
-0.161768 -0.227227 -1.333314 235 131 15 -1.333314 0.189550
-0.185256 -0.230448 -1.313250 235 131 15 -1.313250 0.269499
-0.158796 -0.324447 -1.264512 239 123 19 -1.264512 0.577851
-0.177221 -0.348314 -1.271960 239 123 19 -1.271960 0.718344
-0.186316 -0.369944 -1.292308 239 123 19 -1.292308 0.829276
-0.183644 -0.383541 -1.320104 239 123 19 -1.320104 0.881287
-0.169921 -0.385462 -1.347899 239 123 19 -1.347899 0.861929
-0.148823 -0.375191 -1.368247 239 123 19 -1.368247 0.777785
-0.126005 -0.355482 -1.375695 239 123 19 -1.375695 0.651645
-0.107580 -0.331614 -1.368247 239 123 19 -1.368247 0.515929
-0.098484 -0.309984 -1.347899 239 123 19 -1.347899 0.404986
-0.101156 -0.296387 -1.320104 239 123 19 -1.320104 0.348075
-0.114880 -0.294467 -1.292308 239 123 19 -1.292308 0.362571
-0.135977 -0.304737 -1.271960 239 123 19 -1.271960 0.446827
-0.077561 -0.384896 -1.223769 243 115 23 -1.223769 0.722471
-0.083549 -0.414443 -1.231234 243 115 23 -1.231234 0.865424
-0.082232 -0.437831 -1.251627 243 115 23 -1.251627 0.972826
-0.073961 -0.448793 -1.279485 243 115 23 -1.279485 1.000000
-0.060954 -0.444391 -1.307343 243 115 23 -1.307343 0.986353
-0.046695 -0.425806 -1.327736 243 115 23 -1.327736 0.890029
-0.035005 -0.398017 -1.335201 243 115 23 -1.335201 0.752979
-0.029017 -0.368469 -1.327736 243 115 23 -1.327736 0.610798
-0.030334 -0.345081 -1.307343 243 115 23 -1.307343 0.501001
-0.038605 -0.334120 -1.279485 243 115 23 -1.279485 0.453848
-0.051612 -0.338521 -1.251627 243 115 23 -1.251627 0.483483
-0.065871 -0.357106 -1.231234 243 115 23 -1.231234 0.582254
0.022367 -0.399965 -1.183153 246 107 28 -1.183153 0.754587
0.032223 -0.428456 -1.190617 246 107 28 -1.190617 0.891987
0.045244 -0.447930 -1.211010 246 107 28 -1.211010 0.988764
0.057939 -0.453168 -1.238866 246 107 28 -1.238866 1.000000
0.066908 -0.442767 -1.266723 246 107 28 -1.266723 0.976070
0.069746 -0.419514 -1.287116 246 107 28 -1.287116 0.868904
0.065694 -0.389640 -1.294580 246 107 28 -1.294580 0.725969
0.055838 -0.361149 -1.287116 246 107 28 -1.287116 0.585499
0.042817 -0.341675 -1.266723 246 107 28 -1.266723 0.486217
0.030122 -0.336437 -1.238866 246 107 28 -1.238866 0.455971
0.021153 -0.346838 -1.211010 246 107 28 -1.211010 0.502655
0.018315 -0.370091 -1.190617 246 107 28 -1.190617 0.612278
0.116017 -0.362976 -1.142617 249 99 33 -1.142617 0.655476
0.137820 -0.383801 -1.150070 249 99 33 -1.150070 0.781247
0.158355 -0.395128 -1.170432 249 99 33 -1.170432 0.865034
0.172119 -0.393923 -1.198248 249 99 33 -1.198248 0.884118
0.175425 -0.380507 -1.226064 249 99 33 -1.226064 0.831943
0.167386 -0.358476 -1.246426 249 99 33 -1.246426 0.721007
0.150157 -0.333733 -1.253879 249 99 33 -1.253879 0.580711
0.128353 -0.312908 -1.246426 249 99 33 -1.246426 0.450085
0.107819 -0.301580 -1.226064 249 99 33 -1.226064 0.366313
0.094054 -0.302786 -1.198248 249 99 33 -1.198248 0.352212
0.090749 -0.316202 -1.170432 249 99 33 -1.170432 0.409260
0.098788 -0.338233 -1.150070 249 99 33 -1.150070 0.520070
0.182328 -0.294177 -1.102666 251 91 39 -1.102666 0.482824
0.209625 -0.307033 -1.110030 251 91 39 -1.110030 0.603281
0.232963 -0.310938 -1.130148 251 91 39 -1.130148 0.681493
0.246088 -0.304845 -1.157629 251 91 39 -1.157629 0.695873
0.245483 -0.290388 -1.185111 251 91 39 -1.185111 0.640554
0.231311 -0.271439 -1.205229 251 91 39 -1.205229 0.528463
0.207369 -0.253077 -1.212592 251 91 39 -1.212592 0.389411
0.180072 -0.240221 -1.205229 251 91 39 -1.205229 0.262796
0.156735 -0.236316 -1.185111 251 91 39 -1.185111 0.185492
0.143610 -0.242409 -1.157629 251 91 39 -1.157629 0.178338
0.144214 -0.256866 -1.130148 251 91 39 -1.130148 0.239802
0.158386 -0.275815 -1.110030 251 91 39 -1.110030 0.350829
0.222946 -0.221465 -1.063490 253 83 45 -1.063490 0.325186
0.251457 -0.231479 -1.070661 253 83 45 -1.070661 0.454656
0.275545 -0.232293 -1.090251 253 83 45 -1.090251 0.541714
0.288753 -0.223688 -1.117011 253 83 45 -1.117011 0.563644
0.287544 -0.207970 -1.143771 253 83 45 -1.143771 0.513493
0.272241 -0.189351 -1.163361 253 83 45 -1.163361 0.402740
0.246944 -0.172819 -1.170531 253 83 45 -1.170531 0.259604
0.218432 -0.162805 -1.163361 253 83 45 -1.163361 0.123016
0.194345 -0.161992 -1.143771 253 83 45 -1.143771 0.032410
0.181136 -0.170597 -1.117011 253 83 45 -1.117011 0.014274
0.182346 -0.186315 -1.090251 253 83 45 -1.090251 0.071704
0.197649 -0.204934 -1.070661 253 83 45 -1.070661 0.185776
0.257262 -0.153237 -1.023317 254 76 51 -1.023317 0.248333
0.284657 -0.166025 -1.030428 254 76 51 -1.030428 0.390779
0.308701 -0.169038 -1.049855 254 76 51 -1.049855 0.496365
0.322952 -0.161469 -1.076392 254 76 51 -1.076392 0.538644
0.323590 -0.145346 -1.102930 254 76 51 -1.102930 0.507581
0.310446 -0.124988 -1.122357 254 76 51 -1.122357 0.411460
0.287040 -0.105852 -1.129467 254 76 51 -1.129467 0.274559
0.259644 -0.093063 -1.122357 254 76 51 -1.122357 0.131551
0.235600 -0.090050 -1.102930 254 76 51 -1.102930 0.020174
0.221349 -0.097619 -1.076392 254 76 51 -1.076392 0.000000
0.220711 -0.113743 -1.049855 254 76 51 -1.049855 0.004274
0.233856 -0.134100 -1.030428 254 76 51 -1.030428 0.106310
0.303717 -0.082383 -0.981294 254 69 58 -0.981294 0.314069
0.330886 -0.095543 -0.988593 254 69 58 -0.988593 0.455306
0.354369 -0.099480 -1.008534 254 69 58 -1.008534 0.567344
0.367875 -0.093139 -1.035774 254 69 58 -1.035774 0.620909
0.367784 -0.078220 -1.063013 254 69 58 -1.063013 0.603630
0.354121 -0.058719 -1.082954 254 69 58 -1.082954 0.521846
0.330546 -0.039862 -1.090253 254 69 58 -1.090253 0.397629
0.303377 -0.026701 -1.082954 254 69 58 -1.082954 0.262408
0.279894 -0.022764 -1.063013 254 69 58 -1.063013 0.149762
0.266388 -0.029105 -1.035774 254 69 58 -1.035774 0.089370
0.266479 -0.044025 -1.008534 254 69 58 -1.008534 0.100478
0.280142 -0.063526 -0.988593 254 69 58 -0.988593 0.183075
0.351434 0.001148 -0.939676 254 62 65 -0.939676 0.483153
0.380838 -0.005543 -0.947109 254 62 65 -0.947109 0.623055
0.404321 -0.004639 -0.967416 254 62 65 -0.967416 0.734290
0.415590 0.003616 -0.995155 254 62 65 -0.995155 0.787345
0.411626 0.017012 -1.022894 254 62 65 -1.022894 0.769630
0.393491 0.031958 -1.043201 254 62 65 -1.043201 0.687528
0.366044 0.044449 -1.050634 254 62 65 -1.050634 0.563437
0.336640 0.051140 -1.043201 254 62 65 -1.043201 0.429186
0.313157 0.050236 -1.022894 254 62 65 -1.022894 0.318402
0.301888 0.041981 -0.995155 254 62 65 -0.995155 0.260020
0.305852 0.028585 -0.967416 254 62 65 -0.967416 0.271967
0.323987 0.013639 -0.947109 254 62 65 -0.947109 0.353748
0.373404 0.099759 -0.898822 254 55 72 -0.898822 0.646081
0.402967 0.105670 -0.906286 254 55 72 -0.906286 0.788816
0.424023 0.115935 -0.926679 254 55 72 -0.926679 0.897757
0.430931 0.127804 -0.954536 254 55 72 -0.954536 0.944492
0.421839 0.138097 -0.982394 254 55 72 -0.982394 0.917628
0.399184 0.144055 -1.002786 254 55 72 -1.002786 0.824995
0.369036 0.144082 -1.010251 254 55 72 -1.010251 0.691020
0.339473 0.138171 -1.002786 254 55 72 -1.002786 0.550328
0.318417 0.127906 -0.982394 254 55 72 -0.982394 0.439543
0.311509 0.116036 -0.954536 254 55 72 -0.954536 0.388842
0.320601 0.105744 -0.926679 254 55 72 -0.926679 0.413646
0.343256 0.099786 -0.906286 254 55 72 -0.906286 0.508201
0.349102 0.197907 -0.858208 253 48 80 -0.858208 0.714714
0.371693 0.217871 -0.865672 253 48 80 -0.865672 0.854775
0.384739 0.237329 -0.886063 253 48 80 -0.886063 0.955313
0.384746 0.251067 -0.913918 253 48 80 -0.913918 0.990223
0.371710 0.255403 -0.941773 253 48 80 -0.941773 0.950293
0.349126 0.249177 -0.962164 253 48 80 -0.962164 0.845639
0.323045 0.234055 -0.969628 253 48 80 -0.969628 0.703369
0.300454 0.214091 -0.962164 253 48 80 -0.962164 0.561124
0.287407 0.194633 -0.941773 253 48 80 -0.941773 0.457657
0.287401 0.180896 -0.913918 253 48 80 -0.913918 0.422030
0.300436 0.176559 -0.886063 253 48 80 -0.886063 0.464200
0.323020 0.182786 -0.865672 253 48 80 -0.865672 0.571761
0.278612 0.270183 -0.817615 252 42 87 -0.817615 0.652467
0.288840 0.298544 -0.825075 252 42 87 -0.825075 0.782081
0.290924 0.321886 -0.845457 252 42 87 -0.845457 0.869902
0.284306 0.333954 -0.873299 252 42 87 -0.873299 0.892442
0.270761 0.331515 -0.901141 252 42 87 -0.901141 0.842583
0.253916 0.315222 -0.921523 252 42 87 -0.921523 0.732316
0.238287 0.289441 -0.928984 252 42 87 -0.928984 0.590633
0.228060 0.261080 -0.921523 252 42 87 -0.921523 0.456461
0.225976 0.237737 -0.901141 252 42 87 -0.901141 0.367689
0.232593 0.225669 -0.873299 252 42 87 -0.873299 0.348864
0.246138 0.228108 -0.845457 252 42 87 -0.845457 0.403327
0.262983 0.244401 -0.825075 252 42 87 -0.825075 0.514439
0.186453 0.302357 -0.777468 250 36 95 -0.777468 0.498645
0.185825 0.332515 -0.784865 250 36 95 -0.784865 0.621000
0.179094 0.355118 -0.805074 250 36 95 -0.805074 0.701265
0.168064 0.364109 -0.832681 250 36 95 -0.832681 0.717421
0.155691 0.357080 -0.860287 250 36 95 -0.860287 0.663309
0.145289 0.335914 -0.880496 250 36 95 -0.880496 0.551648
0.139647 0.306282 -0.887893 250 36 95 -0.887893 0.412074
0.140276 0.276124 -0.880496 250 36 95 -0.880496 0.283897
0.147007 0.253521 -0.860287 250 36 95 -0.860287 0.204200
0.158037 0.244529 -0.832681 250 36 95 -0.832681 0.194585
0.170410 0.251558 -0.805074 250 36 95 -0.805074 0.254525
0.180811 0.272725 -0.784865 250 36 95 -0.784865 0.365469
0.099899 0.305171 -0.738158 247 31 103 -0.738158 0.340350
0.094373 0.334868 -0.745380 247 31 103 -0.745380 0.468208
0.083284 0.356137 -0.765110 247 31 103 -0.765110 0.553622
0.069601 0.363278 -0.792062 247 31 103 -0.792062 0.574056
0.056992 0.354378 -0.819014 247 31 103 -0.819014 0.522732
0.048834 0.331821 -0.838744 247 31 103 -0.838744 0.411413
0.047315 0.301652 -0.845966 247 31 103 -0.845966 0.268707
0.052840 0.271955 -0.838744 247 31 103 -0.838744 0.133776
0.063930 0.250686 -0.819014 247 31 103 -0.819014 0.045719
0.077613 0.243546 -0.792062 247 31 103 -0.792062 0.029954
0.090222 0.252446 -0.765110 247 31 103 -0.765110 0.088474
0.098379 0.275002 -0.745380 247 31 103 -0.745380 0.202198
0.023463 0.299795 -0.698497 245 26 111 -0.698497 0.248447
0.019920 0.329824 -0.705590 245 26 111 -0.705590 0.389732
0.009763 0.351867 -0.724970 245 26 111 -0.724970 0.492791
-0.004286 0.360017 -0.751444 245 26 111 -0.751444 0.531849
-0.018461 0.352090 -0.777917 245 26 111 -0.777917 0.497416
-0.028966 0.330211 -0.797297 245 26 111 -0.797297 0.398268
-0.032985 0.300242 -0.804390 245 26 111 -0.804390 0.259282
-0.029441 0.270213 -0.797297 245 26 111 -0.797297 0.115905
-0.019284 0.248171 -0.777917 245 26 111 -0.777917 0.006589
-0.005236 0.240021 -0.751444 245 26 111 -0.751444 0.000000
0.008940 0.247947 -0.724970 245 26 111 -0.724970 0.000003
0.019445 0.269826 -0.705590 245 26 111 -0.705590 0.105465
-0.058177 0.302489 -0.656724 241 21 119 -0.656724 0.289737
-0.059797 0.332647 -0.663972 241 21 119 -0.663972 0.431401
-0.067922 0.355152 -0.683774 241 21 119 -0.683774 0.543635
-0.080374 0.363974 -0.710825 241 21 119 -0.710825 0.597271
-0.093816 0.356751 -0.737876 241 21 119 -0.737876 0.580024
-0.104648 0.335416 -0.757678 241 21 119 -0.757678 0.498192
-0.109966 0.305687 -0.764926 241 21 119 -0.764926 0.373742
-0.108346 0.275530 -0.757678 241 21 119 -0.757678 0.238024
-0.100221 0.253025 -0.737876 241 21 119 -0.737876 0.124706
-0.087769 0.244202 -0.710825 241 21 119 -0.710825 0.063820
-0.074327 0.251426 -0.683774 241 21 119 -0.683774 0.074972
-0.063495 0.272761 -0.663972 241 21 119 -0.663972 0.158114
-0.151921 0.305861 -0.614891 237 17 127 -0.614891 0.455913
-0.158566 0.335282 -0.622302 237 17 127 -0.622302 0.594643
-0.169614 0.356081 -0.642549 237 17 127 -0.642549 0.706273
-0.182106 0.362687 -0.670206 237 17 127 -0.670206 0.761024
-0.192693 0.353328 -0.697864 237 17 127 -0.697864 0.745953
-0.198540 0.330514 -0.718111 237 17 127 -0.718111 0.667029
-0.198079 0.300356 -0.725522 237 17 127 -0.725522 0.546036
-0.191434 0.270936 -0.718111 237 17 127 -0.718111 0.413970
-0.180386 0.250137 -0.697864 237 17 127 -0.697864 0.303551
-0.167894 0.243531 -0.670206 237 17 127 -0.670206 0.243219
-0.157307 0.252889 -0.642549 237 17 127 -0.642549 0.251482
-0.151460 0.275704 -0.622302 237 17 127 -0.622302 0.329333
-0.250169 0.284772 -0.573888 233 13 135 -0.573888 0.641267
-0.267232 0.309628 -0.581351 233 13 135 -0.581351 0.783029
-0.284961 0.324946 -0.601738 233 13 135 -0.601738 0.893224
-0.298606 0.326623 -0.629588 233 13 135 -0.629588 0.942891
-0.304511 0.314208 -0.657438 233 13 135 -0.657438 0.920032
-0.301094 0.291028 -0.677825 233 13 135 -0.677825 0.831802
-0.289270 0.263295 -0.685288 233 13 135 -0.685288 0.701768
-0.272208 0.238439 -0.677825 233 13 135 -0.677825 0.563448
-0.254479 0.223121 -0.657438 233 13 135 -0.657438 0.452350
-0.240834 0.221445 -0.629588 233 13 135 -0.629588 0.398249
-0.234929 0.233860 -0.601738 233 13 135 -0.601738 0.417617
-0.238346 0.257039 -0.581351 233 13 135 -0.581351 0.506841
-0.331359 0.224353 -0.533261 228 9 143 -0.533261 0.748367
-0.358399 0.237687 -0.540724 228 9 143 -0.540724 0.890325
-0.381351 0.242380 -0.561115 228 9 143 -0.561115 0.994231
-0.394066 0.237176 -0.588969 228 9 143 -0.588969 1.000000
-0.393136 0.223469 -0.616824 228 9 143 -0.616824 0.997165
-0.378812 0.204931 -0.637214 228 9 143 -0.637214 0.895661
-0.354930 0.186531 -0.644678 228 9 143 -0.644678 0.754989
-0.327891 0.173197 -0.637214 228 9 143 -0.637214 0.612040
-0.304939 0.168504 -0.616824 228 9 143 -0.616824 0.505241
-0.292224 0.173708 -0.588969 228 9 143 -0.588969 0.464407
-0.293153 0.187415 -0.561115 228 9 143 -0.561115 0.501434
-0.307478 0.205952 -0.540724 228 9 143 -0.540724 0.605844
-0.371244 0.131518 -0.492641 223 7 151 -0.492641 0.724711
-0.401335 0.129660 -0.500105 223 7 151 -0.500105 0.857673
-0.423587 0.122334 -0.520496 223 7 151 -0.520496 0.949112
-0.432037 0.111502 -0.548351 223 7 151 -0.548351 0.974834
-0.424422 0.100068 -0.576205 223 7 151 -0.576205 0.927222
-0.402782 0.091094 -0.596596 223 7 151 -0.596596 0.817855
-0.372915 0.086986 -0.604060 223 7 151 -0.604060 0.675329
-0.342824 0.088844 -0.596596 223 7 151 -0.596596 0.538368
-0.320572 0.096171 -0.576205 223 7 151 -0.576205 0.445271
-0.312122 0.107002 -0.548351 223 7 151 -0.548351 0.421968
-0.319737 0.118437 -0.520496 223 7 151 -0.520496 0.473633
-0.341377 0.127410 -0.500105 223 7 151 -0.500105 0.584577
-0.362831 0.032756 -0.452328 218 4 159 -0.452328 0.589733
-0.389731 0.019120 -0.459751 218 4 159 -0.459751 0.713226
-0.407210 0.003377 -0.480030 218 4 159 -0.480030 0.794624
-0.410586 -0.010255 -0.507732 218 4 159 -0.507732 0.811694
-0.398953 -0.018123 -0.535434 218 4 159 -0.535434 0.758183
-0.375429 -0.018119 -0.555713 218 4 159 -0.555713 0.646799
-0.346317 -0.010244 -0.563136 218 4 159 -0.563136 0.507124
-0.319418 0.003391 -0.555713 218 4 159 -0.555713 0.378317
-0.301938 0.019134 -0.535434 218 4 159 -0.535434 0.297343
-0.298563 0.032766 -0.507732 218 4 159 -0.507732 0.286152
-0.310195 0.040634 -0.480030 218 4 159 -0.480030 0.344985
-0.333719 0.040631 -0.459751 218 4 159 -0.459751 0.455815
-0.325163 -0.048884 -0.412819 212 2 167 -0.412819 0.425060
-0.348457 -0.068095 -0.420093 212 2 167 -0.420093 0.549952
-0.361782 -0.087897 -0.439966 212 2 167 -0.439966 0.632264
-0.361568 -0.102984 -0.467114 212 2 167 -0.467114 0.649901
-0.347871 -0.109313 -0.494261 212 2 167 -0.494261 0.596515
-0.324363 -0.105188 -0.514134 212 2 167 -0.514134 0.484446
-0.297341 -0.091715 -0.521408 212 2 167 -0.521408 0.342888
-0.274047 -0.072503 -0.514134 212 2 167 -0.514134 0.211235
-0.260721 -0.052701 -0.494261 212 2 167 -0.494261 0.127744
-0.260936 -0.037615 -0.467114 212 2 167 -0.467114 0.115898
-0.274632 -0.031286 -0.439966 212 2 167 -0.439966 0.176098
-0.298141 -0.035411 -0.420093 212 2 167 -0.420093 0.289148
-0.281739 -0.113664 -0.373505 206 1 174 -0.373505 0.308581
-0.305402 -0.132486 -0.380604 206 1 174 -0.380604 0.446705
-0.318803 -0.152705 -0.400000 206 1 174 -0.400000 0.544509
-0.318351 -0.168905 -0.426495 206 1 174 -0.426495 0.577356
-0.304167 -0.176743 -0.452990 206 1 174 -0.452990 0.536701
-0.280052 -0.174120 -0.472386 206 1 174 -0.472386 0.432325
-0.252467 -0.161739 -0.479485 206 1 174 -0.479485 0.290383
-0.228804 -0.142917 -0.472386 206 1 174 -0.472386 0.147826
-0.215403 -0.122697 -0.452990 206 1 174 -0.452990 0.044031
-0.215855 -0.106498 -0.426495 206 1 174 -0.426495 0.009707
-0.230039 -0.098659 -0.400000 206 1 174 -0.400000 0.055010
-0.254154 -0.101282 -0.380604 206 1 174 -0.380604 0.165294
-0.242258 -0.182194 -0.332168 199 0 182 -0.332168 0.305972
-0.267621 -0.198612 -0.339364 199 0 182 -0.339364 0.448927
-0.283034 -0.217067 -0.359022 199 0 182 -0.359022 0.559962
-0.284368 -0.232614 -0.385876 199 0 182 -0.385876 0.610642
-0.271265 -0.241086 -0.412731 199 0 182 -0.412731 0.589304
-0.247236 -0.240214 -0.432389 199 0 182 -0.432389 0.502816
-0.218719 -0.230231 -0.439585 199 0 182 -0.439585 0.373835
-0.193357 -0.213813 -0.432389 199 0 182 -0.432389 0.234819
-0.177943 -0.195358 -0.412731 199 0 182 -0.412731 0.120918
-0.176610 -0.179811 -0.385876 199 0 182 -0.385876 0.063228
-0.189713 -0.171339 -0.359022 199 0 182 -0.359022 0.080549
-0.213742 -0.172211 -0.339364 199 0 182 -0.339364 0.170116
-0.201562 -0.263589 -0.290162 192 0 189 -0.290162 0.440684
-0.224997 -0.282587 -0.297544 192 0 189 -0.297544 0.580244
-0.238687 -0.301836 -0.317710 192 0 189 -0.317710 0.692069
-0.238965 -0.316177 -0.345258 192 0 189 -0.345258 0.746489
-0.225756 -0.321768 -0.372806 192 0 189 -0.372806 0.730707
-0.202599 -0.317111 -0.392972 192 0 189 -0.392972 0.650780
-0.175699 -0.303453 -0.400353 192 0 189 -0.400353 0.528610
-0.152264 -0.284455 -0.392972 192 0 189 -0.392972 0.395402
-0.138574 -0.265207 -0.372806 192 0 189 -0.372806 0.284241
-0.138296 -0.250866 -0.345258 192 0 189 -0.345258 0.223987
-0.151505 -0.245275 -0.317710 192 0 189 -0.317710 0.233276
-0.174662 -0.249932 -0.297544 192 0 189 -0.297544 0.312687
-0.141063 -0.342630 -0.248977 185 0 196 -0.248977 0.621047
-0.156988 -0.368231 -0.256435 185 0 196 -0.256435 0.762386
-0.163890 -0.390634 -0.276808 185 0 196 -0.276808 0.872887
-0.159920 -0.403836 -0.304639 185 0 196 -0.304639 0.923437
-0.146142 -0.404299 -0.332470 185 0 196 -0.332470 0.901867
-0.126247 -0.391901 -0.352844 185 0 196 -0.352844 0.815126
-0.105567 -0.369961 -0.360301 185 0 196 -0.360301 0.686477
-0.089642 -0.344360 -0.352844 185 0 196 -0.352844 0.549057
-0.082740 -0.321958 -0.332470 185 0 196 -0.332470 0.437966
-0.086710 -0.308755 -0.304639 185 0 196 -0.304639 0.382800
-0.100488 -0.308292 -0.276808 185 0 196 -0.276808 0.400388
-0.120383 -0.320691 -0.256435 185 0 196 -0.256435 0.487827
-0.053551 -0.393616 -0.208309 178 0 203 -0.208309 0.743035
-0.055620 -0.423693 -0.215773 178 0 203 -0.215773 0.885595
-0.051249 -0.446708 -0.236165 178 0 203 -0.236165 0.991038
-0.041611 -0.456494 -0.264021 178 0 203 -0.264021 1.000000
-0.029286 -0.450429 -0.291877 178 0 203 -0.291877 0.998223
-0.017579 -0.430138 -0.312268 178 0 203 -0.312268 0.898662
-0.009625 -0.401058 -0.319732 178 0 203 -0.319732 0.759236
-0.007557 -0.370981 -0.312268 178 0 203 -0.312268 0.616357
-0.011927 -0.347966 -0.291877 178 0 203 -0.291877 0.508152
-0.021566 -0.338180 -0.264021 178 0 203 -0.264021 0.464700
-0.033890 -0.344245 -0.236165 178 0 203 -0.236165 0.498845
-0.045598 -0.364536 -0.215773 178 0 203 -0.215773 0.601197
0.047482 -0.395231 -0.167686 171 1 209 -0.167686 0.741084
0.060922 -0.422218 -0.175151 171 1 209 -0.175151 0.875703
0.076338 -0.439855 -0.195544 171 1 209 -0.195544 0.969044
0.089599 -0.443417 -0.223402 171 1 209 -0.223402 0.996537
0.097152 -0.431950 -0.251260 171 1 209 -0.251260 0.950264
0.096973 -0.408526 -0.271654 171 1 209 -0.271654 0.841545
0.089110 -0.379421 -0.279118 171 1 209 -0.279118 0.698732
0.075670 -0.352435 -0.271654 171 1 209 -0.271654 0.560417
0.060254 -0.334797 -0.251260 171 1 209 -0.251260 0.465078
0.046993 -0.331235 -0.223402 171 1 209 -0.223402 0.439363
0.039440 -0.342703 -0.195544 171 1 209 -0.195544 0.489398
0.039619 -0.366127 -0.175151 171 1 209 -0.175151 0.600040
0.135512 -0.347544 -0.127243 163 3 215 -0.127243 0.615655
0.159242 -0.366149 -0.134684 163 3 215 -0.134684 0.739049
0.180829 -0.375385 -0.155013 163 3 215 -0.155013 0.820424
0.194491 -0.372778 -0.182784 163 3 215 -0.182784 0.837519
0.196565 -0.359026 -0.210554 163 3 215 -0.210554 0.784082
0.186496 -0.337814 -0.230883 163 3 215 -0.230883 0.672848
0.166982 -0.314825 -0.238324 163 3 215 -0.238324 0.533419
0.143252 -0.296221 -0.230883 163 3 215 -0.230883 0.404906
0.121665 -0.286984 -0.210554 163 3 215 -0.210554 0.324111
0.108004 -0.289592 -0.182784 163 3 215 -0.182784 0.312850
0.105929 -0.303344 -0.155013 163 3 215 -0.155013 0.371415
0.115998 -0.324556 -0.134684 163 3 215 -0.134684 0.481946
0.194345 -0.275578 -0.087511 155 5 221 -0.087511 0.439015
0.222246 -0.287091 -0.094833 155 5 221 -0.094833 0.560304
0.245860 -0.289702 -0.114838 155 5 221 -0.114838 0.639173
0.258859 -0.282712 -0.142165 155 5 221 -0.142165 0.654007
0.257761 -0.267993 -0.169492 155 5 221 -0.169492 0.598860
0.242860 -0.249490 -0.189497 155 5 221 -0.189497 0.486516
0.218148 -0.232160 -0.196819 155 5 221 -0.196819 0.346646
0.190247 -0.220647 -0.189497 155 5 221 -0.189497 0.218756
0.166634 -0.218035 -0.169492 155 5 221 -0.169492 0.140214
0.153634 -0.225025 -0.142165 155 5 221 -0.142165 0.132492
0.154732 -0.239744 -0.114838 155 5 221 -0.114838 0.194248
0.169634 -0.258247 -0.094833 155 5 221 -0.094833 0.306083
0.231128 -0.204195 -0.048350 147 8 226 -0.048350 0.295870
0.259517 -0.214580 -0.055477 147 8 226 -0.055477 0.429291
0.283694 -0.215567 -0.074948 147 8 226 -0.074948 0.520921
0.297180 -0.206890 -0.101546 147 8 226 -0.101546 0.547307
0.296362 -0.190875 -0.128145 147 8 226 -0.128145 0.500865
0.281458 -0.171813 -0.147616 147 8 226 -0.147616 0.392339
0.256463 -0.154811 -0.154743 147 8 226 -0.154743 0.249076
0.228074 -0.144425 -0.147616 147 8 226 -0.147616 0.109256
0.203897 -0.143439 -0.128145 147 8 226 -0.128145 0.012604
0.190411 -0.152115 -0.101546 147 8 226 -0.101546 0.000000
0.191229 -0.168130 -0.074948 147 8 226 -0.074948 0.040842
0.206133 -0.187193 -0.055477 147 8 226 -0.055477 0.154196
0.267595 -0.136108 -0.007581 139 11 231 -0.007581 0.250318
0.294670 -0.149543 -0.014728 139 11 231 -0.014728 0.393595
0.318539 -0.153234 -0.034254 139 11 231 -0.034254 0.502282
0.332806 -0.146192 -0.060928 139 11 231 -0.060928 0.548943
0.333649 -0.130304 -0.087601 139 11 231 -0.087601 0.522773
0.320841 -0.109827 -0.107128 139 11 231 -0.107128 0.431344
0.297815 -0.090248 -0.114275 139 11 231 -0.114275 0.298111
0.270740 -0.076813 -0.107128 139 11 231 -0.107128 0.156596
0.246871 -0.073122 -0.087601 139 11 231 -0.087601 0.043285
0.232604 -0.080164 -0.060928 139 11 231 -0.060928 0.000000
0.231762 -0.096052 -0.034254 139 11 231 -0.034254 0.014462
0.244569 -0.116529 -0.014728 139 11 231 -0.014728 0.110710
0.316528 -0.063070 0.034506 131 15 235 0.034506 0.350828
0.344130 -0.075270 0.027163 131 15 235 0.027163 0.491164
0.367610 -0.078543 0.007099 131 15 235 0.007099 0.603162
0.380679 -0.072013 -0.020309 131 15 235 -0.020309 0.657317
0.379833 -0.057428 -0.047717 131 15 235 -0.047717 0.641024
0.365299 -0.038698 -0.067781 131 15 235 -0.067781 0.560479
0.340973 -0.020840 -0.075125 131 15 235 -0.075125 0.437649
0.313371 -0.008640 -0.067781 131 15 235 -0.067781 0.303737
0.289891 -0.005366 -0.047717 131 15 235 -0.047717 0.191922
0.276823 -0.011897 -0.020309 131 15 235 -0.020309 0.131351
0.277668 -0.026481 0.007099 131 15 235 0.007099 0.141055
0.292202 -0.045212 0.027163 131 15 235 0.027163 0.221599
0.360377 0.024702 0.075901 123 19 239 0.075901 0.528556
0.390259 0.020679 0.068453 123 19 239 0.068453 0.669066
0.413539 0.023617 0.048105 123 19 239 0.048105 0.779993
0.423978 0.032730 0.020309 123 19 239 0.020309 0.831987
0.418780 0.045575 -0.007486 123 19 239 -0.007486 0.812644
0.399337 0.058711 -0.027834 123 19 239 -0.027834 0.728587
0.370859 0.068617 -0.035282 123 19 239 -0.035282 0.602590
0.340976 0.072641 -0.027834 123 19 239 -0.027834 0.467021
0.317697 0.069702 -0.007486 123 19 239 -0.007486 0.356116
0.307257 0.060590 0.020309 123 19 239 0.020309 0.299075
0.312456 0.047745 0.048105 123 19 239 0.048105 0.313382
0.331899 0.034609 0.068453 123 19 239 0.068453 0.397540
0.372110 0.125278 0.116643 115 23 243 0.116643 0.674607
0.400693 0.134866 0.109179 115 23 243 0.109179 0.817568
0.420288 0.147701 0.088786 115 23 243 0.088786 0.925132
0.425646 0.160344 0.060928 115 23 243 0.060928 0.969357
0.415331 0.169408 0.033070 115 23 243 0.033070 0.939339
0.392106 0.172464 0.012677 115 23 243 0.012677 0.843428
0.362195 0.168693 0.005212 115 23 243 0.005212 0.706726
0.333612 0.159105 0.012677 115 23 243 0.012677 0.564695
0.314016 0.146270 0.033070 115 23 243 0.033070 0.454732
0.308658 0.133627 0.060928 115 23 243 0.060928 0.407122
0.318974 0.124563 0.088786 115 23 243 0.088786 0.436223
0.342199 0.121507 0.109179 115 23 243 0.109179 0.534587
0.335197 0.219353 0.157260 107 28 246 0.157260 0.711269
0.354942 0.242134 0.149796 107 28 246 0.149796 0.849137
0.365297 0.263147 0.129403 107 28 246 0.129403 0.946562
0.363485 0.276761 0.101546 107 28 246 0.101546 0.978114
0.349994 0.279328 0.073690 107 28 246 0.073690 0.935183
0.328437 0.270159 0.053297 107 28 246 0.053297 0.828420
0.304591 0.251713 0.045833 107 28 246 0.045833 0.685535
0.284845 0.228931 0.053297 107 28 246 0.053297 0.544667
0.274491 0.207918 0.073690 107 28 246 0.073690 0.444596
0.276302 0.194304 0.101546 107 28 246 0.101546 0.413431
0.289794 0.191738 0.129403 107 28 246 0.129403 0.459429
0.311351 0.200906 0.149796 107 28 246 0.149796 0.568792
0.256338 0.281962 0.197796 99 33 249 0.197796 0.619469
0.263471 0.311256 0.190343 99 33 249 0.190343 0.746471
0.263014 0.334704 0.169981 99 33 249 0.169981 0.831574
0.255087 0.346021 0.142165 99 33 249 0.142165 0.851789
0.241816 0.342176 0.114349 99 33 249 0.114349 0.800367
0.226756 0.324198 0.093987 99 33 249 0.093987 0.689605
0.213943 0.296906 0.086534 99 33 249 0.086534 0.548762
0.206809 0.267611 0.093987 99 33 249 0.093987 0.416869
0.207267 0.244164 0.114349 99 33 249 0.114349 0.331442
0.215193 0.232847 0.142165 99 33 249 0.142165 0.315891
0.228464 0.236692 0.169981 99 33 249 0.169981 0.372226
0.243524 0.254669 0.190343 99 33 249 0.190343 0.483202
0.163601 0.304990 0.237747 91 39 251 0.237747 0.456127
0.161086 0.335057 0.230383 91 39 251 0.230383 0.578463
0.152798 0.357221 0.210265 91 39 251 0.210265 0.658592
0.140960 0.365541 0.182784 91 39 251 0.182784 0.674578
0.128741 0.357789 0.155302 91 39 251 0.155302 0.620274
0.119417 0.336041 0.135184 91 39 251 0.135184 0.508352
0.115486 0.306126 0.127821 91 39 251 0.127821 0.368416
0.118001 0.276058 0.135184 91 39 251 0.135184 0.239863
0.126288 0.253894 0.155302 91 39 251 0.155302 0.160046
0.138127 0.245574 0.182784 91 39 251 0.182784 0.150760
0.150346 0.253327 0.210265 91 39 251 0.210265 0.211292
0.159669 0.275074 0.230383 91 39 251 0.230383 0.322723
0.080321 0.303809 0.276922 83 45 253 0.276922 0.308885
0.074738 0.333508 0.269752 83 45 253 0.269752 0.440166
0.063399 0.354775 0.250162 83 45 253 0.250162 0.529312
0.049342 0.361911 0.223402 83 45 253 0.223402 0.553241
0.036335 0.353005 0.196642 83 45 253 0.196642 0.504694
0.027862 0.330443 0.177052 83 45 253 0.177052 0.394841
0.026194 0.300270 0.169882 83 45 253 0.169882 0.251560
0.031777 0.270571 0.177052 83 45 253 0.177052 0.113498
0.043116 0.249304 0.196642 83 45 253 0.196642 0.020239
0.057173 0.242167 0.223402 83 45 253 0.223402 0.000000
0.070180 0.251073 0.250162 83 45 253 0.250162 0.054711
0.078653 0.273636 0.269752 83 45 253 0.269752 0.168459
0.004076 0.299413 0.317096 76 51 254 0.317096 0.243905
0.001453 0.329533 0.309985 76 51 254 0.309985 0.386816
-0.007959 0.351862 0.290558 76 51 254 0.290558 0.493745
-0.021640 0.360419 0.264021 76 51 254 0.264021 0.537879
-0.035922 0.352910 0.237483 76 51 254 0.237483 0.508877
-0.046980 0.331348 0.218056 76 51 254 0.218056 0.414714
-0.051850 0.301509 0.210945 76 51 254 0.210945 0.279274
-0.049227 0.271390 0.218056 76 51 254 0.218056 0.136729
-0.039814 0.249060 0.237483 76 51 254 0.237483 0.024314
-0.026134 0.240504 0.264021 76 51 254 0.264021 0.000000
-0.011851 0.248012 0.290558 76 51 254 0.290558 0.002892
-0.000794 0.269575 0.309985 76 51 254 0.309985 0.102703
-0.080513 0.304218 0.359119 69 58 254 0.359119 0.323142
-0.082700 0.334327 0.351820 69 58 254 0.351820 0.463576
-0.091032 0.356633 0.331879 69 58 254 0.331879 0.575976
-0.103277 0.365159 0.304639 69 58 254 0.304639 0.630794
-0.116152 0.357620 0.277399 69 58 254 0.277399 0.615375
-0.126209 0.336037 0.257458 69 58 254 0.257458 0.535766
-0.130752 0.306192 0.250160 69 58 254 0.250160 0.413656
-0.128565 0.276083 0.257458 69 58 254 0.257458 0.279957
-0.120233 0.253777 0.277399 69 58 254 0.277399 0.167630
-0.107988 0.245251 0.304639 69 58 254 0.304639 0.105954
-0.095113 0.252790 0.331879 69 58 254 0.331879 0.114463
-0.085056 0.274373 0.351820 69 58 254 0.351820 0.194197
-0.176711 0.303777 0.400736 62 65 254 0.400736 0.504829
-0.185619 0.332587 0.393304 62 65 254 0.393304 0.643920
-0.198143 0.352472 0.372997 62 65 254 0.372997 0.755285
-0.210927 0.358103 0.345258 62 65 254 0.345258 0.809236
-0.220546 0.347973 0.317519 62 65 254 0.317519 0.792963
-0.224422 0.324794 0.297212 62 65 254 0.297212 0.712582
-0.221516 0.294779 0.289779 62 65 254 0.289779 0.590184
-0.212608 0.265969 0.297212 62 65 254 0.297212 0.457182
-0.200084 0.246084 0.317519 62 65 254 0.317519 0.346752
-0.187300 0.240452 0.345258 62 65 254 0.345258 0.287521
-0.177681 0.250583 0.372997 62 65 254 0.372997 0.297584
-0.173805 0.273761 0.393304 62 65 254 0.393304 0.377149
-0.273096 0.273498 0.441591 55 72 254 0.441591 0.678380
-0.292996 0.296145 0.434126 55 72 254 0.434126 0.820927
-0.312414 0.309247 0.413734 55 72 254 0.413734 0.930248
-0.326147 0.309295 0.385876 55 72 254 0.385876 0.977771
-0.330515 0.296275 0.358019 55 72 254 0.358019 0.951922
-0.324347 0.273676 0.337626 55 72 254 0.337626 0.860346
-0.309297 0.247554 0.330162 55 72 254 0.330162 0.727268
-0.289396 0.224907 0.337626 55 72 254 0.337626 0.587066
-0.269978 0.211805 0.358019 55 72 254 0.358019 0.476144
-0.256245 0.211757 0.385876 55 72 254 0.385876 0.424595
-0.251877 0.224777 0.413734 55 72 254 0.413734 0.448070
-0.258045 0.247376 0.434126 55 72 254 0.434126 0.541325
-0.345944 0.203378 0.482205 48 80 253 0.482205 0.755386
-0.374528 0.212960 0.474741 48 80 253 0.474741 0.895831
-0.397903 0.214529 0.454350 48 80 253 0.454350 0.996972
-0.409803 0.207666 0.426495 48 80 253 0.426495 1.000000
-0.407041 0.194209 0.398640 48 80 253 0.398640 0.993206
-0.390356 0.177764 0.378249 48 80 253 0.378249 0.888982
-0.364220 0.162737 0.370785 48 80 253 0.370785 0.746890
-0.335635 0.153155 0.378249 48 80 253 0.378249 0.604473
-0.312261 0.151585 0.398640 48 80 253 0.398640 0.500445
-0.300361 0.158449 0.426495 48 80 253 0.426495 0.463974
-0.303123 0.171906 0.454350 48 80 253 0.454350 0.505328
-0.319807 0.188351 0.474741 48 80 253 0.474741 0.612422
-0.373291 0.106194 0.522798 42 87 252 0.522798 0.698856
-0.402967 0.100870 0.515338 42 87 252 0.515338 0.828974
-0.424223 0.091004 0.494956 42 87 252 0.494956 0.917278
-0.431366 0.079239 0.467114 42 87 252 0.467114 0.940205
-0.422481 0.068728 0.439271 42 87 252 0.439271 0.890586
-0.399949 0.062287 0.418890 42 87 252 0.418890 0.780402
-0.369807 0.061642 0.411429 42 87 252 0.411429 0.638604
-0.340131 0.066966 0.418890 42 87 252 0.418890 0.504081
-0.318874 0.076832 0.439271 42 87 252 0.439271 0.414740
-0.311732 0.088597 0.467114 42 87 252 0.467114 0.395284
-0.320617 0.099108 0.494956 42 87 252 0.494956 0.449350
-0.343149 0.105549 0.515338 42 87 252 0.515338 0.560472
-0.355075 0.010295 0.562945 36 95 250 0.562945 0.547716
-0.380879 -0.005329 0.555548 36 95 250 0.555548 0.670229
-0.397088 -0.022459 0.535339 36 95 250 0.535339 0.750560
-0.399360 -0.036507 0.507732 36 95 250 0.507732 0.766708
-0.387086 -0.043708 0.480126 36 95 250 0.480126 0.712560
-0.363555 -0.042133 0.459916 36 95 250 0.459916 0.600893
-0.335071 -0.032203 0.452519 36 95 250 0.452519 0.461350
-0.309268 -0.016579 0.459916 36 95 250 0.459916 0.333190
-0.293059 0.000551 0.480126 36 95 250 0.480126 0.253388
-0.290787 0.014599 0.507732 36 95 250 0.507732 0.243558
-0.303061 0.021800 0.535339 36 95 250 0.535339 0.303361
-0.326592 0.020225 0.555548 36 95 250 0.555548 0.414363
-0.314235 -0.066071 0.602255 31 103 248 0.602255 0.389158
-0.337191 -0.085704 0.595033 31 103 248 0.595033 0.516693
-0.350065 -0.105943 0.575303 31 103 248 0.575303 0.601659
-0.349408 -0.121363 0.548351 31 103 248 0.548351 0.621609
-0.335396 -0.127833 0.521399 31 103 248 0.521399 0.569875
-0.311783 -0.123619 0.501669 31 103 248 0.501669 0.458354
-0.284896 -0.109850 0.494447 31 103 248 0.494447 0.315775
-0.261940 -0.090216 0.501669 31 103 248 0.501669 0.181330
-0.249066 -0.069978 0.521399 31 103 248 0.521399 0.093938
-0.249723 -0.054558 0.548351 31 103 248 0.548351 0.078687
-0.263736 -0.048088 0.575303 31 103 248 0.575303 0.137443
-0.287349 -0.052302 0.595033 31 103 248 0.595033 0.251175
-0.271362 -0.129578 0.641916 26 111 245 0.641916 0.294241
-0.295596 -0.147661 0.634822 26 111 245 0.634822 0.435210
-0.309607 -0.167479 0.615443 26 111 245 0.615443 0.537637
-0.309641 -0.183720 0.588969 26 111 245 0.588969 0.575855
-0.295689 -0.192033 0.562496 26 111 245 0.562496 0.540491
-0.271488 -0.190191 0.543116 26 111 245 0.543116 0.440463
-0.243525 -0.178687 0.536023 26 111 245 0.536023 0.300891
-0.219291 -0.160603 0.543116 26 111 245 0.543116 0.157511
-0.205280 -0.140786 0.562496 26 111 245 0.562496 0.048967
-0.205246 -0.124545 0.588969 26 111 245 0.588969 0.007004
-0.219199 -0.116231 0.615443 26 111 245 0.615443 0.044953
-0.243399 -0.118074 0.634822 26 111 245 0.634822 0.151128
-0.232875 -0.201627 0.683689 21 119 241 0.683689 0.329100
-0.258182 -0.218109 0.676441 21 119 241 0.676441 0.471138
-0.273609 -0.236398 0.656638 21 119 241 0.656638 0.583060
-0.275024 -0.251593 0.629588 21 119 241 0.629588 0.635854
-0.262047 -0.259623 0.602537 21 119 241 0.602537 0.617359
-0.238155 -0.258336 0.582735 21 119 241 0.582735 0.534031
-0.209750 -0.248077 0.575487 21 119 241 0.575487 0.408089
-0.184443 -0.231595 0.582735 21 119 241 0.582735 0.271300
-0.169016 -0.213307 0.602537 21 119 241 0.602537 0.157875
-0.167601 -0.198112 0.629588 21 119 241 0.629588 0.098121
-0.180578 -0.190082 0.656638 21 119 241 0.656638 0.111239
-0.204470 -0.191369 0.676441 21 119 241 0.676441 0.196281
-0.188923 -0.284498 0.725522 17 127 237 0.725522 0.485989
-0.211079 -0.304963 0.718111 17 127 237 0.718111 0.625473
-0.223568 -0.324931 0.697864 17 127 237 0.697864 0.737013
-0.223043 -0.339051 0.670206 17 127 237 0.670206 0.790961
-0.209645 -0.343541 0.642549 17 127 237 0.642549 0.774555
-0.186964 -0.337197 0.622302 17 127 237 0.622302 0.693934
-0.161077 -0.321719 0.614891 17 127 237 0.614891 0.571181
-0.138921 -0.301255 0.622302 17 127 237 0.622302 0.437738
-0.126432 -0.281287 0.642549 17 127 237 0.642549 0.326886
-0.126957 -0.267166 0.670206 17 127 237 0.670206 0.267454
-0.140355 -0.262676 0.697864 17 127 237 0.697864 0.277696
-0.163036 -0.269020 0.718111 17 127 237 0.718111 0.357760
-0.121536 -0.359039 0.766525 13 135 233 0.766525 0.660406
-0.134530 -0.386243 0.759062 13 135 233 0.759062 0.802568
-0.138932 -0.409256 0.738675 13 135 233 0.738675 0.912416
-0.133561 -0.421912 0.710825 13 135 233 0.710825 0.961151
-0.119856 -0.420818 0.682975 13 135 233 0.682975 0.936956
-0.101491 -0.406269 0.662588 13 135 233 0.662588 0.847212
-0.083385 -0.382163 0.655125 13 135 233 0.655125 0.715771
-0.070390 -0.354959 0.662588 13 135 233 0.662588 0.576547
-0.065989 -0.331946 0.682975 13 135 233 0.682975 0.465463
-0.071360 -0.319291 0.710825 13 135 233 0.710825 0.412468
-0.085064 -0.320384 0.738675 13 135 233 0.738675 0.433677
-0.103430 -0.334933 0.759062 13 135 233 0.759062 0.524747
-0.028616 -0.399142 0.807152 9 143 229 0.807152 0.755532
-0.026643 -0.429226 0.799689 9 143 229 0.799689 0.897027
-0.019232 -0.451450 0.779298 9 143 229 0.779298 0.999995
-0.008368 -0.459859 0.751444 9 143 229 0.751444 1.000000
0.003038 -0.452201 0.723589 9 143 229 0.723589 1.000000
0.011930 -0.430526 0.703198 9 143 229 0.703198 0.897991
0.015925 -0.400644 0.695735 9 143 229 0.695735 0.756732
0.013952 -0.370560 0.703198 9 143 229 0.703198 0.613882
0.006541 -0.348337 0.723589 9 143 229 0.723589 0.508005
-0.004323 -0.339927 0.751444 9 143 229 0.751444 0.468703
-0.015729 -0.347586 0.779298 9 143 229 0.779298 0.507316
-0.024621 -0.369260 0.799689 9 143 229 0.799689 0.612762
0.071724 -0.387266 0.847771 7 151 223 0.847771 0.719449
0.088378 -0.412396 0.840308 7 151 223 0.840308 0.851046
0.105849 -0.428004 0.819917 7 151 223 0.819917 0.940968
0.119455 -0.429906 0.792062 7 151 223 0.792062 0.965312
0.125550 -0.417594 0.764208 7 151 223 0.764208 0.916693
0.122501 -0.394367 0.743816 7 151 223 0.743816 0.806897
0.111125 -0.366447 0.736353 7 151 223 0.736353 0.664697
0.094471 -0.341317 0.743816 7 151 223 0.743816 0.528915
0.077000 -0.325709 0.764208 7 151 223 0.764208 0.437643
0.063394 -0.323806 0.792062 7 151 223 0.792062 0.416215
0.057299 -0.336118 0.819917 7 151 223 0.819917 0.469067
0.060348 -0.359346 0.840308 7 151 223 0.840308 0.580132
0.153048 -0.330599 0.888084 4 159 218 0.888084 0.572583
0.178307 -0.347077 0.880662 4 159 218 0.880662 0.694199
0.200681 -0.354343 0.860383 4 159 218 0.860383 0.773770
0.214174 -0.350450 0.832681 4 159 218 0.832681 0.789370
0.215172 -0.336442 0.804979 4 159 218 0.804979 0.734980
0.203406 -0.316072 0.784700 4 159 218 0.784700 0.623484
0.182031 -0.294797 0.777277 4 159 218 0.777277 0.484631
0.156772 -0.278320 0.784700 4 159 218 0.784700 0.357604
0.134398 -0.271053 0.804979 4 159 218 0.804979 0.279000
0.120905 -0.274946 0.832681 4 159 218 0.832681 0.269914
0.119907 -0.288954 0.860383 4 159 218 0.860383 0.329712
0.131673 -0.309324 0.880662 4 159 218 0.880662 0.440109
0.204916 -0.257157 0.927594 2 167 212 0.927594 0.397534
0.233201 -0.267725 0.920320 2 167 212 0.920320 0.520664
0.257013 -0.269364 0.900446 2 167 212 0.900446 0.601213
0.269971 -0.261635 0.873299 2 167 212 0.873299 0.617379
0.268603 -0.246609 0.846152 2 167 212 0.846152 0.563017
0.253277 -0.228312 0.826279 2 167 212 0.826279 0.450633
0.228098 -0.211647 0.819005 2 167 212 0.819005 0.309614
0.199813 -0.201080 0.826279 2 167 212 0.826279 0.179476
0.176001 -0.199441 0.846152 2 167 212 0.846152 0.098271
0.163043 -0.207170 0.873299 2 167 212 0.873299 0.088673
0.164411 -0.222196 0.900446 2 167 212 0.900446 0.150088
0.179737 -0.240492 0.920320 2 167 212 0.920320 0.262914
0.239305 -0.187161 0.966908 1 174 206 0.966908 0.272387
0.267437 -0.198243 0.959809 1 174 206 0.959809 0.409644
0.291648 -0.199739 0.940413 1 174 206 0.940413 0.506253
0.305451 -0.191248 0.913918 1 174 206 0.913918 0.537856
0.305147 -0.175045 0.887423 1 174 206 0.887423 0.496102
0.290818 -0.155472 0.868027 1 174 206 0.868027 0.390925
0.266303 -0.137774 0.860927 1 174 206 0.860927 0.248648
0.238171 -0.126692 0.868027 1 174 206 0.868027 0.106416
0.213960 -0.125196 0.887423 1 174 206 0.887423 0.003757
0.200157 -0.133687 0.913918 1 174 206 0.913918 0.000000
0.200461 -0.149890 0.940413 1 174 206 0.940413 0.018158
0.214790 -0.169463 0.959809 1 174 206 0.959809 0.129272
0.278913 -0.118705 1.008245 0 182 199 1.008245 0.262392
0.305814 -0.132461 1.001049 0 182 199 1.001049 0.405480
0.329503 -0.136581 0.981391 0 182 199 0.981391 0.516141
0.343633 -0.129963 0.954536 0 182 199 0.954536 0.566127
0.344419 -0.114379 0.927682 0 182 199 0.927682 0.543966
0.331649 -0.094006 0.908024 0 182 199 0.908024 0.456671
0.308746 -0.074301 0.900828 0 182 199 0.900828 0.327050
0.281846 -0.060545 0.908024 0 182 199 0.908024 0.187677
0.258156 -0.056425 0.927682 0 182 199 0.927682 0.073840
0.244026 -0.063043 0.954536 0 182 199 0.954536 0.016743
0.243240 -0.078626 0.981391 0 182 199 0.981391 0.035117
0.256010 -0.099000 1.001049 0 182 199 1.001049 0.125815
0.329056 -0.042763 1.050250 0 189 193 1.050250 0.392504
0.357226 -0.053559 1.042869 0 189 193 1.042869 0.532268
0.380741 -0.055791 1.022703 0 189 193 1.022703 0.644050
0.393300 -0.048862 0.995155 0 189 193 0.995155 0.698237
0.391537 -0.034627 0.967607 0 189 193 0.967607 0.682126
0.375925 -0.016901 0.947441 0 189 193 0.947441 0.601883
0.350648 -0.000433 0.940060 0 189 193 0.940060 0.479492
0.322477 0.010363 0.947441 0 189 193 0.947441 0.346170
0.298962 0.012595 0.967607 0 189 193 0.967607 0.234983
0.286404 0.005665 0.995155 0 189 193 0.995155 0.174793
0.288166 -0.008570 1.022703 0 189 193 1.022703 0.184300
0.303778 -0.026296 1.042869 0 189 193 1.042869 0.264109
0.367258 0.049151 1.091435 0 196 186 1.091435 0.571810
0.397391 0.048160 1.083978 0 196 186 1.083978 0.713120
0.420244 0.053384 1.063605 0 196 186 1.063605 0.823636
0.429692 0.063423 1.035774 0 196 186 1.035774 0.874239
0.423205 0.075587 1.007943 0 196 186 1.007943 0.852791
0.402520 0.086617 0.987569 0 196 186 0.987569 0.766240
0.373179 0.093557 0.980112 0 196 186 0.980112 0.637828
0.343046 0.094548 0.987569 0 196 186 0.987569 0.500604
0.320193 0.089324 1.007943 0 196 186 1.007943 0.389530
0.310745 0.079285 1.035774 0 196 186 1.035774 0.334175
0.317233 0.067121 1.063605 0 196 186 1.063605 0.351469
0.337918 0.056091 1.083978 0 196 186 1.083978 0.438687
0.367657 0.150431 1.132104 0 203 178 1.132104 0.696022
0.394739 0.163678 1.124640 0 203 178 1.124640 0.838662
0.412485 0.178971 1.104248 0 203 178 1.104248 0.944362
0.416141 0.192211 1.076392 0 203 178 1.076392 0.985728
0.404726 0.199852 1.048536 0 203 178 1.048536 0.952389
0.381300 0.199845 1.028144 0 203 178 1.028144 0.853273
0.352139 0.192193 1.020681 0 203 178 1.020681 0.714169
0.325057 0.178946 1.028144 0 203 178 1.028144 0.571351
0.307311 0.163654 1.048536 0 203 178 1.048536 0.462863
0.303655 0.150413 1.076392 0 203 178 1.076392 0.418849
0.315070 0.142773 1.104248 0 203 178 1.104248 0.452401
0.338496 0.142779 1.124640 0 203 178 1.124640 0.554338
0.318539 0.238736 1.172727 1 209 171 1.172727 0.699352
0.335190 0.263869 1.165262 1 209 171 1.165262 0.834619
0.342757 0.286038 1.144869 1 209 171 1.144869 0.928768
0.339211 0.299303 1.117011 1 209 171 1.117011 0.957062
0.325504 0.300111 1.089153 1 209 171 1.089153 0.911445
0.305307 0.288244 1.068759 1 209 171 1.068759 0.803079
0.284033 0.266882 1.061295 1 209 171 1.061295 0.660179
0.267382 0.241750 1.068759 1 209 171 1.068759 0.521265
0.259816 0.219581 1.089153 1 209 171 1.089153 0.424935
0.263362 0.206315 1.117011 1 209 171 1.117011 0.398176
0.277069 0.205507 1.144869 1 209 171 1.144869 0.447508
0.297265 0.217374 1.165262 1 209 171 1.165262 0.557984
0.233226 0.291129 1.213170 3 215 163 1.213170 0.581827
0.237474 0.320982 1.205729 3 215 163 1.205729 0.706646
0.234679 0.344296 1.185400 3 215 163 1.185400 0.789502
0.225590 0.354823 1.157629 3 215 163 1.157629 0.807844
0.212643 0.349743 1.129859 3 215 163 1.129859 0.755200
0.199307 0.330417 1.109530 3 215 163 1.109530 0.644096
0.189156 0.302024 1.102089 3 215 163 1.102089 0.503988
0.184908 0.272170 1.109530 3 215 163 1.109530 0.373989
0.187703 0.248857 1.129859 3 215 163 1.129859 0.291312
0.196792 0.238330 1.157629 3 215 163 1.157629 0.278450
0.209739 0.243410 1.185400 3 215 163 1.185400 0.336288
0.223075 0.262735 1.205729 3 215 163 1.205729 0.447087
0.141485 0.306097 1.252902 5 221 155 1.252902 0.414836
0.137505 0.336016 1.245580 5 221 155 1.245580 0.538087
0.127960 0.357772 1.225575 5 221 155 1.225575 0.618980
0.115406 0.365535 1.198248 5 221 155 1.198248 0.635537
0.103209 0.357224 1.170921 5 221 155 1.170921 0.581520
0.094635 0.335068 1.150916 5 221 155 1.150916 0.469447
0.091982 0.305002 1.143594 5 221 155 1.143594 0.328744
0.095962 0.275082 1.150916 5 221 155 1.150916 0.198873
0.105507 0.253327 1.170921 5 221 155 1.170921 0.117672
0.118060 0.245564 1.198248 5 221 155 1.198248 0.107614
0.130258 0.253874 1.225575 5 221 155 1.225575 0.168275
0.138832 0.276031 1.245580 5 221 155 1.245580 0.280470
0.061274 0.302260 1.292063 8 226 147 1.292063 0.282340
0.056073 0.332039 1.284936 8 226 147 1.284936 0.417347
0.044840 0.353470 1.265465 8 226 147 1.265465 0.510973
0.030582 0.360811 1.238866 8 226 147 1.238866 0.539396
0.017122 0.352094 1.212268 8 226 147 1.212268 0.494716
0.008065 0.329656 1.192797 8 226 147 1.192797 0.387380
0.005839 0.299509 1.185670 8 226 147 1.185670 0.244361
0.011039 0.269730 1.192797 8 226 147 1.192797 0.103473
0.022273 0.248299 1.212268 8 226 147 1.212268 0.004417
0.036530 0.240958 1.238866 8 226 147 1.238866 0.000000
0.049991 0.249675 1.265465 8 226 147 1.265465 0.027406
0.059047 0.272113 1.284936 8 226 147 1.284936 0.140000
-0.015925 0.299799 1.332832 11 231 139 1.332832 0.249213
-0.017827 0.329963 1.325685 11 231 139 1.325685 0.392530
-0.026565 0.352480 1.306159 11 231 139 1.306159 0.502276
-0.039797 0.361314 1.279485 11 231 139 1.279485 0.550648
-0.053978 0.354100 1.252811 11 231 139 1.252811 0.526541
-0.065307 0.332770 1.233285 11 231 139 1.233285 0.437220
-0.070750 0.303039 1.226138 11 231 139 1.226138 0.305743
-0.068848 0.272874 1.233285 11 231 139 1.233285 0.165111
-0.060110 0.250358 1.252811 11 231 139 1.252811 0.051245
-0.046878 0.241523 1.279485 11 231 139 1.279485 0.000000
-0.032697 0.248738 1.306159 11 231 139 1.306159 0.017222
-0.021367 0.270068 1.325685 11 231 139 1.325685 0.110892
-0.103644 0.305657 1.374919 15 235 131 1.374919 0.363213
-0.106879 0.335660 1.367575 15 235 131 1.367575 0.502635
-0.115785 0.357632 1.347511 15 235 131 1.347511 0.614867
-0.127974 0.365684 1.320104 15 235 131 1.320104 0.670146
-0.140182 0.357659 1.292696 15 235 131 1.292696 0.655614
-0.149137 0.335707 1.272632 15 235 131 1.272632 0.577173
-0.152439 0.305711 1.265288 15 235 131 1.265288 0.456415
-0.149204 0.275707 1.272632 15 235 131 1.272632 0.324046
-0.140298 0.253736 1.292696 15 235 131 1.292696 0.212652
-0.128108 0.245684 1.320104 15 235 131 1.320104 0.150980
-0.115901 0.253709 1.347511 15 235 131 1.347511 0.158282
-0.106946 0.275660 1.367575 15 235 131 1.367575 0.236056
-0.201581 0.299744 1.416313 19 239 123 1.416313 0.553082
-0.213038 0.327635 1.408866 19 239 123 1.408866 0.692912
-0.227223 0.346327 1.388518 19 239 123 1.388518 0.804010
-0.240334 0.350811 1.360722 19 239 123 1.360722 0.856860
-0.248859 0.339887 1.332926 19 239 123 1.332926 0.838849
-0.250514 0.316480 1.312579 19 239 123 1.312579 0.756356
-0.244854 0.286864 1.305131 19 239 123 1.305131 0.631867
-0.233397 0.258974 1.312579 19 239 123 1.312579 0.497381
-0.219212 0.240282 1.332926 19 239 123 1.332926 0.386723
-0.206101 0.235798 1.360722 19 239 123 1.360722 0.328860
-0.197576 0.246722 1.388518 19 239 123 1.388518 0.341428
-0.195921 0.270128 1.408866 19 239 123 1.408866 0.423591
-0.294549 0.259617 1.457056 23 243 115 1.457056 0.709217
-0.317144 0.279577 1.449592 23 243 115 1.449592 0.852164
-0.338057 0.290130 1.429198 23 243 115 1.429198 0.960186
-0.351685 0.288449 1.401341 23 243 115 1.401341 1.000000
-0.354377 0.274983 1.373483 23 243 115 1.373483 0.976064
-0.345411 0.253342 1.353090 23 243 115 1.353090 0.881043
-0.327190 0.229324 1.345625 23 243 115 1.345625 0.745034
-0.304595 0.209364 1.353090 23 243 115 1.353090 0.603300
-0.283682 0.198811 1.373483 23 243 115 1.373483 0.493070
-0.270054 0.200492 1.401341 23 243 115 1.401341 0.444599
-0.267362 0.213958 1.429198 23 243 115 1.429198 0.472501
-0.276328 0.235599 1.449592 23 243 115 1.449592 0.569790
-0.357563 0.180613 1.497673 28 246 107 1.497673 0.753634
-0.387166 0.186322 1.490209 28 246 107 1.490209 0.891976
-0.410541 0.184782 1.469816 28 246 107 1.469816 0.990004
-0.421425 0.176407 1.441959 28 246 107 1.441959 1.000000
-0.416902 0.163440 1.414102 28 246 107 1.414102 0.979724
-0.398183 0.149355 1.393710 28 246 107 1.393710 0.873275
-0.370285 0.137927 1.386246 28 246 107 1.386246 0.730446
-0.340683 0.132218 1.393710 28 246 107 1.393710 0.589312
-0.317308 0.133757 1.414102 28 246 107 1.414102 0.488627
-0.306424 0.142132 1.441959 28 246 107 1.441959 0.456652
-0.310947 0.155100 1.469816 28 246 107 1.469816 0.501949
-0.329665 0.169184 1.490209 28 246 107 1.490209 0.611007
-0.372355 0.081014 1.538209 33 249 99 1.538209 0.666819
-0.401292 0.072545 1.530756 33 249 99 1.530756 0.794278
-0.421369 0.060425 1.510394 33 249 99 1.510394 0.879780
-0.427207 0.047902 1.482578 33 249 99 1.482578 0.900293
-0.417241 0.038331 1.454762 33 249 99 1.454762 0.849037
-0.394142 0.034278 1.434400 33 249 99 1.434400 0.738317
-0.364100 0.036827 1.426947 33 249 99 1.426947 0.597368
-0.335163 0.045297 1.434400 33 249 99 1.434400 0.465179
-0.315086 0.057416 1.454762 33 249 99 1.454762 0.379251
-0.309248 0.069939 1.482578 33 249 99 1.482578 0.363150
-0.319213 0.079510 1.510394 33 249 99 1.510394 0.419162
-0.342312 0.083563 1.530756 33 249 99 1.530756 0.530202
-0.345929 -0.010812 1.578159 39 251 91 1.578159 0.505392
-0.370711 -0.028024 1.570796 39 251 91 1.570796 0.627762
-0.385761 -0.046283 1.550678 39 251 91 1.550678 0.707823
-0.387047 -0.060696 1.523196 39 251 91 1.523196 0.723684
-0.374225 -0.067401 1.495715 39 251 91 1.495715 0.669272
-0.350729 -0.064602 1.475597 39 251 91 1.475597 0.557327
-0.322856 -0.053049 1.468233 39 251 91 1.468233 0.417486
-0.298074 -0.035837 1.475597 39 251 91 1.475597 0.289091
-0.283023 -0.017578 1.495715 39 251 91 1.495715 0.209346
-0.281737 -0.003165 1.523196 39 251 91 1.523196 0.199990
-0.294560 0.003540 1.550678 39 251 91 1.550678 0.260442
-0.318056 0.000741 1.570796 39 251 91 1.570796 0.371910
-0.303267 -0.082344 1.617335 45 253 83 1.617335 0.357210
-0.326195 -0.102029 1.610165 45 253 83 1.610165 0.488093
-0.338944 -0.122482 1.590575 45 253 83 1.590575 0.576700
-0.338096 -0.138224 1.563815 45 253 83 1.563815 0.600032
-0.323879 -0.145035 1.537055 45 253 83 1.537055 0.550942
-0.300103 -0.141092 1.517465 45 253 83 1.517465 0.440757
-0.273138 -0.127450 1.510295 45 253 83 1.510295 0.297510
-0.250210 -0.107765 1.517465 45 253 83 1.517465 0.159945
-0.237462 -0.087312 1.537055 45 253 83 1.537055 0.067503
-0.238309 -0.071570 1.563815 45 253 83 1.563815 0.047216
-0.252526 -0.064759 1.590575 45 253 83 1.590575 0.103153
-0.276302 -0.068702 1.610165 45 253 83 1.610165 0.216971
-0.261338 -0.146177 1.657509 51 254 76 1.657509 0.288434
-0.286110 -0.163508 1.650398 51 254 76 1.650398 0.431161
-0.300742 -0.182824 1.630971 51 254 76 1.630971 0.537509
-0.301313 -0.198950 1.604434 51 254 76 1.604434 0.580775
-0.287668 -0.207565 1.577896 51 254 76 1.577896 0.550729
-0.263466 -0.206360 1.558469 51 254 76 1.558469 0.455499
-0.235190 -0.195658 1.551358 51 254 76 1.551358 0.319211
-0.210417 -0.178327 1.558469 51 254 76 1.558469 0.176374
-0.195786 -0.159010 1.577896 51 254 76 1.577896 0.064538
-0.195215 -0.142884 1.604434 51 254 76 1.604434 0.015759
-0.208859 -0.134270 1.630971 51 254 76 1.630971 0.046000
-0.233062 -0.135475 1.650398 51 254 76 1.650398 0.146851
-0.223204 -0.221835 1.699532 58 254 69 1.699532 0.360391
-0.248185 -0.238784 1.692233 58 254 69 1.692233 0.501361
-0.263337 -0.257153 1.672292 58 254 69 1.672292 0.613543
-0.264598 -0.272019 1.645052 58 254 69 1.645052 0.667532
-0.251632 -0.279400 1.617812 58 254 69 1.617812 0.650831
-0.227912 -0.277318 1.597871 58 254 69 1.597871 0.569637
-0.199794 -0.266331 1.590572 58 254 69 1.590572 0.445905
-0.174813 -0.249382 1.597871 58 254 69 1.597871 0.310975
-0.159661 -0.231013 1.617812 58 254 69 1.617812 0.198373
-0.158400 -0.216146 1.645052 58 254 69 1.645052 0.137733
-0.171366 -0.208765 1.672292 58 254 69 1.672292 0.148245
-0.195086 -0.210848 1.692233 58 254 69 1.692233 0.230051
-0.174723 -0.304924 1.741149 65 254 62 1.741149 0.532290
-0.195219 -0.327044 1.733717 65 254 62 1.733717 0.672118
-0.206178 -0.347832 1.713410 65 254 62 1.713410 0.783367
-0.204663 -0.361720 1.685671 65 254 62 1.685671 0.836511
-0.191080 -0.364984 1.657931 65 254 62 1.657931 0.818884
-0.169069 -0.356752 1.637625 65 254 62 1.637625 0.736826
-0.144528 -0.339228 1.630192 65 254 62 1.630192 0.612702
-0.124031 -0.317109 1.637625 65 254 62 1.637625 0.478376
-0.113073 -0.296320 1.657931 65 254 62 1.657931 0.367566
-0.114588 -0.282433 1.685671 65 254 62 1.685671 0.309250
-0.128170 -0.279168 1.713410 65 254 62 1.713410 0.321263
-0.150181 -0.287400 1.733717 65 254 62 1.733717 0.402999
-0.100308 -0.373257 1.782004 72 254 55 1.782004 0.694601
-0.109971 -0.401814 1.774539 72 254 55 1.774539 0.837368
-0.111609 -0.425182 1.754146 72 254 55 1.754146 0.946216
-0.104784 -0.437099 1.726289 72 254 55 1.726289 0.992744
-0.091324 -0.434372 1.698432 72 254 55 1.698432 0.965579
-0.074837 -0.417731 1.678039 72 254 55 1.678039 0.872585
-0.059739 -0.391636 1.670575 72 254 55 1.670575 0.738267
-0.050077 -0.363078 1.678039 72 254 55 1.678039 0.597377
-0.048439 -0.339710 1.698432 72 254 55 1.698432 0.486665
-0.055264 -0.327793 1.726289 72 254 55 1.726289 0.436322
-0.068724 -0.330521 1.754146 72 254 55 1.754146 0.461597
-0.085211 -0.347161 1.774539 72 254 55 1.774539 0.556523
-0.003158 -0.401285 1.822618 80 253 48 1.822618 0.759452
0.002836 -0.430831 1.815154 80 253 48 1.815154 0.899197
0.013163 -0.451858 1.794763 80 253 48 1.794763 0.999232
0.025057 -0.458733 1.766908 80 253 48 1.766908 1.000000
0.035330 -0.449612 1.739053 80 253 48 1.739053 0.993054
0.041230 -0.426940 1.718662 80 253 48 1.718662 0.887957
0.041176 -0.396792 1.711198 80 253 48 1.711198 0.745517
0.035181 -0.367246 1.718662 80 253 48 1.718662 0.603488
0.024854 -0.346219 1.739053 80 253 48 1.739053 0.500628
0.012960 -0.339344 1.766908 80 253 48 1.766908 0.465787
0.002687 -0.348465 1.794763 80 253 48 1.794763 0.508630
-0.003213 -0.371137 1.815154 80 253 48 1.815154 0.616528
0.094679 -0.376377 1.863211 87 252 42 1.863211 0.690529
0.114127 -0.399414 1.855750 87 252 42 1.855750 0.819103
0.133300 -0.412890 1.835369 87 252 42 1.835369 0.905786
0.147060 -0.413194 1.807526 87 252 42 1.807526 0.927307
0.151720 -0.400243 1.779684 87 252 42 1.779684 0.876724
0.146032 -0.377509 1.759302 87 252 42 1.759302 0.766227
0.131520 -0.351083 1.751842 87 252 42 1.751842 0.624940
0.112072 -0.328045 1.759302 87 252 42 1.759302 0.491806
0.092899 -0.314569 1.779684 87 252 42 1.779684 0.404470
0.079139 -0.314266 1.807526 87 252 42 1.807526 0.386954
0.074478 -0.327216 1.835369 87 252 42 1.835369 0.442120
0.080166 -0.349950 1.855750 87 252 42 1.855750 0.553173
0.168622 -0.312652 1.903358 95 250 36 1.903358 0.527805
0.195054 -0.327186 1.895961 95 250 36 1.895961 0.648397
0.217994 -0.332659 1.875751 95 250 36 1.875751 0.726879
0.231296 -0.327602 1.848145 95 250 36 1.848145 0.741549
0.231395 -0.313372 1.820539 95 250 36 1.820539 0.686514
0.218265 -0.293781 1.800329 95 250 36 1.800329 0.574734
0.195424 -0.274079 1.792932 95 250 36 1.792932 0.436029
0.168992 -0.259544 1.800329 95 250 36 1.800329 0.309678
0.146052 -0.254072 1.820539 95 250 36 1.820539 0.232302
0.132750 -0.259128 1.848145 95 250 36 1.848145 0.224627
0.132651 -0.273358 1.875751 95 250 36 1.875751 0.285403
0.145781 -0.292949 1.895961 95 250 36 1.895961 0.395942
0.214337 -0.239101 1.942668 103 248 31 1.942668 0.359337
0.242818 -0.249164 1.935446 103 248 31 1.935446 0.485254
0.266782 -0.250194 1.915716 103 248 31 1.915716 0.568545
0.279807 -0.241915 1.888764 103 248 31 1.888764 0.587049
0.278404 -0.226545 1.861812 103 248 31 1.861812 0.534292
0.262948 -0.208202 1.842081 103 248 31 1.842081 0.422335
0.237581 -0.191802 1.834860 103 248 31 1.834860 0.280100
0.209100 -0.181739 1.842081 103 248 31 1.842081 0.146934
0.185136 -0.180708 1.861812 103 248 31 1.861812 0.061637
0.172110 -0.188988 1.888764 103 248 31 1.888764 0.048615
0.173513 -0.204358 1.915716 103 248 31 1.915716 0.108717
0.188969 -0.222700 1.935446 103 248 31 1.935446 0.222439
0.247899 -0.170218 1.982329 111 245 26 1.982329 0.256061
0.275677 -0.182163 1.975235 111 245 26 1.975235 0.396464
0.299844 -0.184388 1.955856 111 245 26 1.955856 0.497905
0.313927 -0.176297 1.929382 111 245 26 1.929382 0.535002
0.314150 -0.160057 1.902909 111 245 26 1.902909 0.498560
0.300454 -0.140020 1.883529 111 245 26 1.883529 0.397663
0.276510 -0.121556 1.876435 111 245 26 1.876435 0.257589
0.248732 -0.109610 1.883529 111 245 26 1.883529 0.114253
0.224564 -0.107385 1.902909 111 245 26 1.902909 0.006478
0.210482 -0.115476 1.929382 111 245 26 1.929382 0.000000
0.210259 -0.131716 1.955856 111 245 26 1.955856 0.005552
0.223954 -0.151753 1.975235 111 245 26 1.975235 0.112781
0.291052 -0.100862 2.024102 119 241 21 2.024102 0.284045
0.317979 -0.114537 2.016854 119 241 21 2.016854 0.426310
0.341531 -0.118754 1.997051 119 241 21 1.997051 0.537998
0.355398 -0.112382 1.970001 119 241 21 1.970001 0.590242
0.355863 -0.097128 1.942950 119 241 21 1.942950 0.571037
0.342803 -0.077080 1.923148 119 241 21 1.923148 0.487002
0.319716 -0.057610 1.915900 119 241 21 1.915900 0.360479
0.292789 -0.043935 1.923148 119 241 21 1.923148 0.223348
0.269237 -0.039719 1.942950 119 241 21 1.942950 0.109903
0.255370 -0.046091 1.970001 119 241 21 1.970001 0.050542
0.254905 -0.061344 1.997051 119 241 21 1.997051 0.064481
0.267965 -0.081392 2.016854 119 241 21 2.016854 0.150501
0.340844 -0.021363 2.065935 127 237 17 2.065935 0.437219
0.369645 -0.030319 2.058524 127 237 17 2.058524 0.576844
0.393182 -0.031150 2.038277 127 237 17 2.038277 0.688356
0.405149 -0.023635 2.010619 127 237 17 2.010619 0.742154
0.402338 -0.009787 1.982962 127 237 17 1.982962 0.725539
0.385503 0.006683 1.962715 127 237 17 1.962715 0.644741
0.359156 0.021363 1.955304 127 237 17 1.955304 0.521899
0.330355 0.030319 1.962715 127 237 17 1.962715 0.388441
0.306818 0.031150 1.982962 127 237 17 1.982962 0.277595
0.294851 0.023635 2.010619 127 237 17 2.010619 0.218155
0.297662 0.009787 2.038277 127 237 17 2.038277 0.228466
0.314497 -0.006683 2.058524 127 237 17 2.058524 0.308741
