ply
format ascii 1.0
element vertex 1440
property float x
property float y
property float z
property uchar red
property uchar green
property uchar blue
element face 2880
property list uchar int vertex_indices
end_header
0.650000 0.000000 0.000000 127 237 17
0.644889 0.000000 0.038823 127 237 17
0.629904 0.000000 0.075000 127 237 17
0.606066 0.000000 0.106066 127 237 17
0.575000 0.000000 0.129904 127 237 17
0.538823 0.000000 0.144889 127 237 17
0.500000 0.000000 0.150000 127 237 17
0.461177 0.000000 0.144889 127 237 17
0.425000 0.000000 0.129904 127 237 17
0.393934 0.000000 0.106066 127 237 17
0.370096 0.000000 0.075000 127 237 17
0.355111 0.000000 0.038823 127 237 17
0.350000 0.000000 0.000000 127 237 17
0.355111 0.000000 -0.038823 127 237 17
0.370096 0.000000 -0.075000 127 237 17
0.393934 0.000000 -0.106066 127 237 17
0.425000 0.000000 -0.129904 127 237 17
0.461177 0.000000 -0.144889 127 237 17
0.500000 0.000000 -0.150000 127 237 17
0.538823 0.000000 -0.144889 127 237 17
0.575000 0.000000 -0.129904 127 237 17
0.606066 0.000000 -0.106066 127 237 17
0.629904 0.000000 -0.075000 127 237 17
0.644889 0.000000 -0.038823 127 237 17
0.643179 0.067601 0.031187 140 230 11
0.630180 0.066235 0.068099 140 230 11
0.608122 0.063916 0.100370 140 230 11
0.578509 0.060804 0.125801 140 230 11
0.543360 0.057109 0.142658 140 230 11
0.505068 0.053085 0.149794 140 230 11
0.466245 0.049004 0.146722 140 230 11
0.429535 0.045146 0.133651 140 230 11
0.397441 0.041773 0.111472 140 230 11
0.372150 0.039114 0.081696 140 230 11
0.355384 0.037352 0.046353 140 230 11
0.348287 0.036606 0.007850 140 230 11
0.351343 0.036928 -0.031187 140 230 11
0.364342 0.038294 -0.068099 140 230 11
0.386400 0.040612 -0.100370 140 230 11
0.416013 0.043725 -0.125801 140 230 11
0.451162 0.047419 -0.142658 140 230 11
0.489454 0.051444 -0.149794 140 230 11
0.528277 0.055524 -0.146722 140 230 11
0.564986 0.059382 -0.133651 140 230 11
0.597081 0.062756 -0.111472 140 230 11
0.622372 0.065414 -0.081696 140 230 11
0.639138 0.067176 -0.046353 140 230 11
0.646235 0.067922 -0.007850 140 230 11
0.623111 0.132446 0.061010 154 222 6
0.603098 0.128193 0.094398 154 222 6
0.575315 0.122287 0.121353 154 222 6
0.541654 0.115132 0.140037 154 222 6
0.504410 0.107216 0.149178 154 222 6
0.466121 0.099077 0.148153 154 222 6
0.429397 0.091271 0.137032 154 222 6
0.396739 0.084329 0.116572 154 222 6
0.370373 0.078725 0.088168 154 222 6
0.352097 0.074841 0.053755 154 222 6
0.343155 0.072940 0.015679 154 222 6
0.344158 0.073153 -0.023465 154 222 6
0.355036 0.075465 -0.061010 154 222 6
0.375049 0.079719 -0.094398 154 222 6
0.402833 0.085625 -0.121353 154 222 6
0.436493 0.092780 -0.140037 154 222 6
0.473737 0.100696 -0.149178 154 222 6
0.512026 0.108835 -0.148153 154 222 6
0.548751 0.116641 -0.137032 154 222 6
0.581409 0.123582 -0.116572 154 222 6
0.607775 0.129186 -0.088168 154 222 6
0.626051 0.133071 -0.053755 154 222 6
0.634992 0.134972 -0.015679 154 222 6
0.633990 0.134759 0.023465 154 222 6
0.590941 0.192008 0.088168 166 212 2
0.565306 0.183679 0.116572 166 212 2
0.533553 0.173362 0.137032 166 212 2
0.497845 0.161760 0.148153 166 212 2
0.460616 0.149663 0.149178 166 212 2
0.424404 0.137897 0.140037 166 212 2
0.391676 0.127263 0.121353 166 212 2
0.364662 0.118486 0.094398 166 212 2
0.345203 0.112163 0.061010 166 212 2
0.334626 0.108727 0.023465 166 212 2
0.333651 0.108410 -0.015679 166 212 2
0.342345 0.111235 -0.053755 166 212 2
0.360115 0.117008 -0.088168 166 212 2
0.385750 0.125338 -0.116572 166 212 2
0.417504 0.135655 -0.137032 166 212 2
0.453212 0.147257 -0.148153 166 212 2
0.490440 0.159354 -0.149178 166 212 2
0.526652 0.171120 -0.140037 166 212 2
0.559381 0.181754 -0.121353 166 212 2
0.586395 0.190531 -0.094398 166 212 2
0.605853 0.196854 -0.061010 166 212 2
0.616430 0.200290 -0.023465 166 212 2
0.617405 0.200607 0.015679 166 212 2
0.608711 0.197782 0.053755 166 212 2
0.548465 0.244192 0.111472 179 202 0
0.518984 0.231067 0.133651 179 202 0
0.485263 0.216053 0.146722 179 202 0
0.449601 0.200175 0.149794 179 202 0
0.414428 0.184515 0.142658 179 202 0
0.382140 0.170140 0.125801 179 202 0
0.354938 0.158029 0.100370 179 202 0
0.334676 0.149008 0.068099 179 202 0
0.322735 0.143691 0.031187 179 202 0
0.319929 0.142441 -0.007850 179 202 0
0.326448 0.145344 -0.046353 179 202 0
0.341848 0.152201 -0.081696 179 202 0
0.365081 0.162544 -0.111472 179 202 0
0.394562 0.175670 -0.133651 179 202 0
0.428282 0.190684 -0.146722 179 202 0
0.463944 0.206561 -0.149794 179 202 0
0.499118 0.222222 -0.142658 179 202 0
0.531406 0.236597 -0.125801 179 202 0
0.558607 0.248708 -0.100370 179 202 0
0.578869 0.257729 -0.068099 179 202 0
0.590810 0.263046 -0.031187 179 202 0
0.593617 0.264295 0.007850 179 202 0
0.587098 0.261393 0.046353 179 202 0
0.571697 0.254536 0.081696 179 202 0
0.497965 0.287500 0.129904 191 191 0
0.466634 0.269411 0.144889 191 191 0
0.433013 0.250000 0.150000 191 191 0
0.399391 0.230589 0.144889 191 191 0
0.368061 0.212500 0.129904 191 191 0
0.341157 0.196967 0.106066 191 191 0
0.320513 0.185048 0.075000 191 191 0
0.307535 0.177556 0.038823 191 191 0
0.303109 0.175000 0.000000 191 191 0
0.307535 0.177556 -0.038823 191 191 0
0.320513 0.185048 -0.075000 191 191 0
0.341157 0.196967 -0.106066 191 191 0
0.368061 0.212500 -0.129904 191 191 0
0.399391 0.230589 -0.144889 191 191 0
0.433013 0.250000 -0.150000 191 191 0
0.466634 0.269411 -0.144889 191 191 0
0.497965 0.287500 -0.129904 191 191 0
0.524869 0.303033 -0.106066 191 191 0
0.545513 0.314952 -0.075000 191 191 0
0.558490 0.322444 -0.038823 191 191 0
0.562917 0.325000 -0.000000 191 191 0
0.558490 0.322444 0.038823 191 191 0
0.545513 0.314952 0.075000 191 191 0
0.524869 0.303033 0.106066 191 191 0
0.442008 0.321138 0.142658 202 179 0
0.410860 0.298507 0.149794 202 179 0
0.379278 0.275562 0.146722 202 179 0
0.349416 0.253865 0.133651 202 179 0
0.323308 0.234897 0.111472 202 179 0
0.302734 0.219949 0.081696 202 179 0
0.289095 0.210040 0.046353 202 179 0
0.283322 0.205846 0.007850 202 179 0
0.285808 0.207652 -0.031187 202 179 0
0.296383 0.215335 -0.068099 202 179 0
0.314326 0.228371 -0.100370 202 179 0
0.338415 0.245873 -0.125801 202 179 0
0.367008 0.266647 -0.142658 202 179 0
0.398157 0.289278 -0.149794 202 179 0
0.429739 0.312224 -0.146722 202 179 0
0.459601 0.333920 -0.133651 202 179 0
0.485709 0.352888 -0.111472 202 179 0
0.506283 0.367836 -0.081696 202 179 0
0.519922 0.377745 -0.046353 202 179 0
0.525695 0.381940 -0.007850 202 179 0
0.523209 0.380134 0.031187 202 179 0
0.512634 0.372451 0.068099 202 179 0
0.494691 0.359414 0.100370 202 179 0
0.470602 0.341912 0.125801 202 179 0
0.383224 0.345057 0.149178 212 166 2
0.354134 0.318864 0.148153 212 166 2
0.326233 0.293741 0.137032 212 166 2
0.301421 0.271401 0.116572 212 166 2
0.281390 0.253365 0.088168 212 166 2
0.267505 0.240862 0.053755 212 166 2
0.260711 0.234746 0.015679 212 166 2
0.261473 0.235431 -0.023465 212 166 2
0.269738 0.242873 -0.061010 212 166 2
0.284943 0.256563 -0.094398 212 166 2
0.306051 0.275570 -0.121353 212 166 2
0.331625 0.298596 -0.140037 212 166 2
0.359920 0.324074 -0.149178 212 166 2
0.389010 0.350267 -0.148153 212 166 2
0.416912 0.375389 -0.137032 212 166 2
0.441724 0.397730 -0.116572 212 166 2
0.461755 0.415766 -0.088168 212 166 2
0.475640 0.428268 -0.053755 212 166 2
0.482433 0.434385 -0.015679 212 166 2
0.481672 0.433699 0.023465 212 166 2
0.473407 0.426257 0.061010 212 166 2
0.458202 0.412567 0.094398 212 166 2
0.437094 0.393561 0.121353 212 166 2
0.411520 0.370535 0.140037 212 166 2
0.324074 0.359920 0.149178 222 154 6
0.298596 0.331625 0.140037 222 154 6
0.275570 0.306051 0.121353 222 154 6
0.256563 0.284943 0.094398 222 154 6
0.242873 0.269738 0.061010 222 154 6
0.235431 0.261473 0.023465 222 154 6
0.234746 0.260711 -0.015679 222 154 6
0.240862 0.267505 -0.053755 222 154 6
0.253365 0.281390 -0.088168 222 154 6
0.271401 0.301421 -0.116572 222 154 6
0.293741 0.326233 -0.137032 222 154 6
0.318864 0.354134 -0.148153 222 154 6
0.345057 0.383224 -0.149178 222 154 6
0.370535 0.411520 -0.140037 222 154 6
0.393561 0.437094 -0.121353 222 154 6
0.412567 0.458202 -0.094398 222 154 6
0.426257 0.473407 -0.061010 222 154 6
0.433699 0.481672 -0.023465 222 154 6
0.434385 0.482433 0.015679 222 154 6
0.428268 0.475640 0.053755 222 154 6
0.415766 0.461755 0.088168 222 154 6
0.397730 0.441724 0.116572 222 154 6
0.375389 0.416912 0.137032 222 154 6
0.350267 0.389010 0.148153 222 154 6
0.266647 0.367008 0.142658 230 140 11
0.245873 0.338415 0.125801 230 140 11
0.228371 0.314326 0.100370 230 140 11
0.215335 0.296383 0.068099 230 140 11
0.207652 0.285808 0.031187 230 140 11
0.205846 0.283322 -0.007850 230 140 11
0.210040 0.289095 -0.046353 230 140 11
0.219949 0.302734 -0.081696 230 140 11
0.234897 0.323308 -0.111472 230 140 11
0.253865 0.349416 -0.133651 230 140 11
0.275562 0.379278 -0.146722 230 140 11
0.298507 0.410860 -0.149794 230 140 11
0.321138 0.442008 -0.142658 230 140 11
0.341912 0.470602 -0.125801 230 140 11
0.359414 0.494691 -0.100370 230 140 11
0.372451 0.512634 -0.068099 230 140 11
0.380134 0.523209 -0.031187 230 140 11
0.381940 0.525695 0.007850 230 140 11
0.377745 0.519922 0.046353 230 140 11
0.367836 0.506283 0.081696 230 140 11
0.352888 0.485709 0.111472 230 140 11
0.333920 0.459601 0.133651 230 140 11
0.312224 0.429739 0.146722 230 140 11
0.289278 0.398157 0.149794 230 140 11
0.212500 0.368061 0.129904 237 127 17
0.196967 0.341157 0.106066 237 127 17
0.185048 0.320513 0.075000 237 127 17
0.177556 0.307535 0.038823 237 127 17
0.175000 0.303109 0.000000 237 127 17
0.177556 0.307535 -0.038823 237 127 17
0.185048 0.320513 -0.075000 237 127 17
0.196967 0.341157 -0.106066 237 127 17
0.212500 0.368061 -0.129904 237 127 17
0.230589 0.399391 -0.144889 237 127 17
0.250000 0.433013 -0.150000 237 127 17
0.269411 0.466634 -0.144889 237 127 17
0.287500 0.497965 -0.129904 237 127 17
0.303033 0.524869 -0.106066 237 127 17
0.314952 0.545513 -0.075000 237 127 17
0.322444 0.558490 -0.038823 237 127 17
0.325000 0.562917 -0.000000 237 127 17
0.322444 0.558490 0.038823 237 127 17
0.314952 0.545513 0.075000 237 127 17
0.303033 0.524869 0.106066 237 127 17
0.287500 0.497965 0.129904 237 127 17
0.269411 0.466634 0.144889 237 127 17
0.250000 0.433013 0.150000 237 127 17
0.230589 0.399391 0.144889 237 127 17
0.162544 0.365081 0.111472 243 114 24
0.152201 0.341848 0.081696 243 114 24
0.145344 0.326448 0.046353 243 114 24
0.142441 0.319929 0.007850 243 114 24
0.143691 0.322735 -0.031187 243 114 24
0.149008 0.334676 -0.068099 243 114 24
0.158029 0.354938 -0.100370 243 114 24
0.170140 0.382140 -0.125801 243 114 24
0.184515 0.414428 -0.142658 243 114 24
0.200175 0.449601 -0.149794 243 114 24
0.216053 0.485263 -0.146722 243 114 24
0.231067 0.518984 -0.133651 243 114 24
0.244192 0.548465 -0.111472 243 114 24
0.254536 0.571697 -0.081696 243 114 24
0.261393 0.587098 -0.046353 243 114 24
0.264295 0.593617 -0.007850 243 114 24
0.263046 0.590810 0.031187 243 114 24
0.257729 0.578869 0.068099 243 114 24
0.248708 0.558607 0.100370 243 114 24
0.236597 0.531406 0.125801 243 114 24
0.222222 0.499118 0.142658 243 114 24
0.206561 0.463944 0.149794 243 114 24
0.190684 0.428282 0.146722 243 114 24
0.175670 0.394562 0.133651 243 114 24
0.117008 0.360115 0.088168 248 100 32
0.111235 0.342345 0.053755 248 100 32
0.108410 0.333651 0.015679 248 100 32
0.108727 0.334626 -0.023465 248 100 32
0.112163 0.345203 -0.061010 248 100 32
0.118486 0.364662 -0.094398 248 100 32
0.127263 0.391676 -0.121353 248 100 32
0.137897 0.424404 -0.140037 248 100 32
0.149663 0.460616 -0.149178 248 100 32
0.161760 0.497845 -0.148153 248 100 32
0.173362 0.533553 -0.137032 248 100 32
0.183679 0.565306 -0.116572 248 100 32
0.192008 0.590941 -0.088168 248 100 32
0.197782 0.608711 -0.053755 248 100 32
0.200607 0.617405 -0.015679 248 100 32
0.200290 0.616430 0.023465 248 100 32
0.196854 0.605853 0.061010 248 100 32
0.190531 0.586395 0.094398 248 100 32
0.181754 0.559381 0.121353 248 100 32
0.171120 0.526652 0.140037 248 100 32
0.159354 0.490440 0.149178 248 100 32
0.147257 0.453212 0.148153 248 100 32
0.135655 0.417504 0.137032 248 100 32
0.125338 0.385750 0.116572 248 100 32
0.075465 0.355036 0.061010 252 88 42
0.073153 0.344158 0.023465 252 88 42
0.072940 0.343155 -0.015679 252 88 42
0.074841 0.352097 -0.053755 252 88 42
0.078725 0.370373 -0.088168 252 88 42
0.084329 0.396739 -0.116572 252 88 42
0.091271 0.429397 -0.137032 252 88 42
0.099077 0.466121 -0.148153 252 88 42
0.107216 0.504410 -0.149178 252 88 42
0.115132 0.541654 -0.140037 252 88 42
0.122287 0.575315 -0.121353 252 88 42
0.128193 0.603098 -0.094398 252 88 42
0.132446 0.623111 -0.061010 252 88 42
0.134759 0.633990 -0.023465 252 88 42
0.134972 0.634992 0.015679 252 88 42
0.133071 0.626051 0.053755 252 88 42
0.129186 0.607775 0.088168 252 88 42
0.123582 0.581409 0.116572 252 88 42
0.116641 0.548751 0.137032 252 88 42
0.108835 0.512026 0.148153 252 88 42
0.100696 0.473737 0.149178 252 88 42
0.092780 0.436493 0.140037 252 88 42
0.085625 0.402833 0.121353 252 88 42
0.079719 0.375049 0.094398 252 88 42
0.036928 0.351343 0.031187 254 75 52
0.036606 0.348287 -0.007850 254 75 52
0.037352 0.355384 -0.046353 254 75 52
0.039114 0.372150 -0.081696 254 75 52
0.041773 0.397441 -0.111472 254 75 52
0.045146 0.429535 -0.133651 254 75 52
0.049004 0.466245 -0.146722 254 75 52
0.053085 0.505068 -0.149794 254 75 52
0.057109 0.543360 -0.142658 254 75 52
0.060804 0.578509 -0.125801 254 75 52
0.063916 0.608122 -0.100370 254 75 52
0.066235 0.630180 -0.068099 254 75 52
0.067601 0.643179 -0.031187 254 75 52
0.067922 0.646235 0.007850 254 75 52
0.067176 0.639138 0.046353 254 75 52
0.065414 0.622372 0.081696 254 75 52
0.062756 0.597081 0.111472 254 75 52
0.059382 0.564986 0.133651 254 75 52
0.055524 0.528277 0.146722 254 75 52
0.051444 0.489454 0.149794 254 75 52
0.047419 0.451162 0.142658 254 75 52
0.043725 0.416013 0.125801 254 75 52
0.040612 0.386400 0.100370 254 75 52
0.038294 0.364342 0.068099 254 75 52
0.000000 0.350000 0.000000 255 63 63
0.000000 0.355111 -0.038823 255 63 63
0.000000 0.370096 -0.075000 255 63 63
0.000000 0.393934 -0.106066 255 63 63
0.000000 0.425000 -0.129904 255 63 63
0.000000 0.461177 -0.144889 255 63 63
0.000000 0.500000 -0.150000 255 63 63
0.000000 0.538823 -0.144889 255 63 63
0.000000 0.575000 -0.129904 255 63 63
0.000000 0.606066 -0.106066 255 63 63
0.000000 0.629904 -0.075000 255 63 63
0.000000 0.644889 -0.038823 255 63 63
0.000000 0.650000 -0.000000 255 63 63
0.000000 0.644889 0.038823 255 63 63
0.000000 0.629904 0.075000 255 63 63
0.000000 0.606066 0.106066 255 63 63
0.000000 0.575000 0.129904 255 63 63
0.000000 0.538823 0.144889 255 63 63
0.000000 0.500000 0.150000 255 63 63
0.000000 0.461177 0.144889 255 63 63
0.000000 0.425000 0.129904 255 63 63
0.000000 0.393934 0.106066 255 63 63
0.000000 0.370096 0.075000 255 63 63
0.000000 0.355111 0.038823 255 63 63
-0.036928 0.351343 -0.031187 254 52 75
-0.038294 0.364342 -0.068099 254 52 75
-0.040612 0.386400 -0.100370 254 52 75
-0.043725 0.416013 -0.125801 254 52 75
-0.047419 0.451162 -0.142658 254 52 75
-0.051444 0.489454 -0.149794 254 52 75
-0.055524 0.528277 -0.146722 254 52 75
-0.059382 0.564986 -0.133651 254 52 75
-0.062756 0.597081 -0.111472 254 52 75
-0.065414 0.622372 -0.081696 254 52 75
-0.067176 0.639138 -0.046353 254 52 75
-0.067922 0.646235 -0.007850 254 52 75
-0.067601 0.643179 0.031187 254 52 75
-0.066235 0.630180 0.068099 254 52 75
-0.063916 0.608122 0.100370 254 52 75
-0.060804 0.578509 0.125801 254 52 75
-0.057109 0.543360 0.142658 254 52 75
-0.053085 0.505068 0.149794 254 52 75
-0.049004 0.466245 0.146722 254 52 75
-0.045146 0.429535 0.133651 254 52 75
-0.041773 0.397441 0.111472 254 52 75
-0.039114 0.372150 0.081696 254 52 75
-0.037352 0.355384 0.046353 254 52 75
-0.036606 0.348287 0.007850 254 52 75
-0.075465 0.355036 -0.061010 252 42 88
-0.079719 0.375049 -0.094398 252 42 88
-0.085625 0.402833 -0.121353 252 42 88
-0.092780 0.436493 -0.140037 252 42 88
-0.100696 0.473737 -0.149178 252 42 88
-0.108835 0.512026 -0.148153 252 42 88
-0.116641 0.548751 -0.137032 252 42 88
-0.123582 0.581409 -0.116572 252 42 88
-0.129186 0.607775 -0.088168 252 42 88
-0.133071 0.626051 -0.053755 252 42 88
-0.134972 0.634992 -0.015679 252 42 88
-0.134759 0.633990 0.023465 252 42 88
-0.132446 0.623111 0.061010 252 42 88
-0.128193 0.603098 0.094398 252 42 88
-0.122287 0.575315 0.121353 252 42 88
-0.115132 0.541654 0.140037 252 42 88
-0.107216 0.504410 0.149178 252 42 88
-0.099077 0.466121 0.148153 252 42 88
-0.091271 0.429397 0.137032 252 42 88
-0.084329 0.396739 0.116572 252 42 88
-0.078725 0.370373 0.088168 252 42 88
-0.074841 0.352097 0.053755 252 42 88
-0.072940 0.343155 0.015679 252 42 88
-0.073153 0.344158 -0.023465 252 42 88
-0.117008 0.360115 -0.088168 248 32 100
-0.125338 0.385750 -0.116572 248 32 100
-0.135655 0.417504 -0.137032 248 32 100
-0.147257 0.453212 -0.148153 248 32 100
-0.159354 0.490440 -0.149178 248 32 100
-0.171120 0.526652 -0.140037 248 32 100
-0.181754 0.559381 -0.121353 248 32 100
-0.190531 0.586395 -0.094398 248 32 100
-0.196854 0.605853 -0.061010 248 32 100
-0.200290 0.616430 -0.023465 248 32 100
-0.200607 0.617405 0.015679 248 32 100
-0.197782 0.608711 0.053755 248 32 100
-0.192008 0.590941 0.088168 248 32 100
-0.183679 0.565306 0.116572 248 32 100
-0.173362 0.533553 0.137032 248 32 100
-0.161760 0.497845 0.148153 248 32 100
-0.149663 0.460616 0.149178 248 32 100
-0.137897 0.424404 0.140037 248 32 100
-0.127263 0.391676 0.121353 248 32 100
-0.118486 0.364662 0.094398 248 32 100
-0.112163 0.345203 0.061010 248 32 100
-0.108727 0.334626 0.023465 248 32 100
-0.108410 0.333651 -0.015679 248 32 100
-0.111235 0.342345 -0.053755 248 32 100
-0.162544 0.365081 -0.111472 243 24 114
-0.175670 0.394562 -0.133651 243 24 114
-0.190684 0.428282 -0.146722 243 24 114
-0.206561 0.463944 -0.149794 243 24 114
-0.222222 0.499118 -0.142658 243 24 114
-0.236597 0.531406 -0.125801 243 24 114
-0.248708 0.558607 -0.100370 243 24 114
-0.257729 0.578869 -0.068099 243 24 114
-0.263046 0.590810 -0.031187 243 24 114
-0.264295 0.593617 0.007850 243 24 114
-0.261393 0.587098 0.046353 243 24 114
-0.254536 0.571697 0.081696 243 24 114
-0.244192 0.548465 0.111472 243 24 114
-0.231067 0.518984 0.133651 243 24 114
-0.216053 0.485263 0.146722 243 24 114
-0.200175 0.449601 0.149794 243 24 114
-0.184515 0.414428 0.142658 243 24 114
-0.170140 0.382140 0.125801 243 24 114
-0.158029 0.354938 0.100370 243 24 114
-0.149008 0.334676 0.068099 243 24 114
-0.143691 0.322735 0.031187 243 24 114
-0.142441 0.319929 -0.007850 243 24 114
-0.145344 0.326448 -0.046353 243 24 114
-0.152201 0.341848 -0.081696 243 24 114
-0.212500 0.368061 -0.129904 237 17 127
-0.230589 0.399391 -0.144889 237 17 127
-0.250000 0.433013 -0.150000 237 17 127
-0.269411 0.466634 -0.144889 237 17 127
-0.287500 0.497965 -0.129904 237 17 127
-0.303033 0.524869 -0.106066 237 17 127
-0.314952 0.545513 -0.075000 237 17 127
-0.322444 0.558490 -0.038823 237 17 127
-0.325000 0.562917 -0.000000 237 17 127
-0.322444 0.558490 0.038823 237 17 127
-0.314952 0.545513 0.075000 237 17 127
-0.303033 0.524869 0.106066 237 17 127
-0.287500 0.497965 0.129904 237 17 127
-0.269411 0.466634 0.144889 237 17 127
-0.250000 0.433013 0.150000 237 17 127
-0.230589 0.399391 0.144889 237 17 127
-0.212500 0.368061 0.129904 237 17 127
-0.196967 0.341157 0.106066 237 17 127
-0.185048 0.320513 0.075000 237 17 127
-0.177556 0.307535 0.038823 237 17 127
-0.175000 0.303109 0.000000 237 17 127
-0.177556 0.307535 -0.038823 237 17 127
-0.185048 0.320513 -0.075000 237 17 127
-0.196967 0.341157 -0.106066 237 17 127
-0.266647 0.367008 -0.142658 230 11 140
-0.289278 0.398157 -0.149794 230 11 140
-0.312224 0.429739 -0.146722 230 11 140
-0.333920 0.459601 -0.133651 230 11 140
-0.352888 0.485709 -0.111472 230 11 140
-0.367836 0.506283 -0.081696 230 11 140
-0.377745 0.519922 -0.046353 230 11 140
-0.381940 0.525695 -0.007850 230 11 140
-0.380134 0.523209 0.031187 230 11 140
-0.372451 0.512634 0.068099 230 11 140
-0.359414 0.494691 0.100370 230 11 140
-0.341912 0.470602 0.125801 230 11 140
-0.321138 0.442008 0.142658 230 11 140
-0.298507 0.410860 0.149794 230 11 140
-0.275562 0.379278 0.146722 230 11 140
-0.253865 0.349416 0.133651 230 11 140
-0.234897 0.323308 0.111472 230 11 140
-0.219949 0.302734 0.081696 230 11 140
-0.210040 0.289095 0.046353 230 11 140
-0.205846 0.283322 0.007850 230 11 140
-0.207652 0.285808 -0.031187 230 11 140
-0.215335 0.296383 -0.068099 230 11 140
-0.228371 0.314326 -0.100370 230 11 140
-0.245873 0.338415 -0.125801 230 11 140
-0.324074 0.359920 -0.149178 222 6 154
-0.350267 0.389010 -0.148153 222 6 154
-0.375389 0.416912 -0.137032 222 6 154
-0.397730 0.441724 -0.116572 222 6 154
-0.415766 0.461755 -0.088168 222 6 154
-0.428268 0.475640 -0.053755 222 6 154
-0.434385 0.482433 -0.015679 222 6 154
-0.433699 0.481672 0.023465 222 6 154
-0.426257 0.473407 0.061010 222 6 154
-0.412567 0.458202 0.094398 222 6 154
-0.393561 0.437094 0.121353 222 6 154
-0.370535 0.411520 0.140037 222 6 154
-0.345057 0.383224 0.149178 222 6 154
-0.318864 0.354134 0.148153 222 6 154
-0.293741 0.326233 0.137032 222 6 154
-0.271401 0.301421 0.116572 222 6 154
-0.253365 0.281390 0.088168 222 6 154
-0.240862 0.267505 0.053755 222 6 154
-0.234746 0.260711 0.015679 222 6 154
-0.235431 0.261473 -0.023465 222 6 154
-0.242873 0.269738 -0.061010 222 6 154
-0.256563 0.284943 -0.094398 222 6 154
-0.275570 0.306051 -0.121353 222 6 154
-0.298596 0.331625 -0.140037 222 6 154
-0.383224 0.345057 -0.149178 212 2 166
-0.411520 0.370535 -0.140037 212 2 166
-0.437094 0.393561 -0.121353 212 2 166
-0.458202 0.412567 -0.094398 212 2 166
-0.473407 0.426257 -0.061010 212 2 166
-0.481672 0.433699 -0.023465 212 2 166
-0.482433 0.434385 0.015679 212 2 166
-0.475640 0.428268 0.053755 212 2 166
-0.461755 0.415766 0.088168 212 2 166
-0.441724 0.397730 0.116572 212 2 166
-0.416912 0.375389 0.137032 212 2 166
-0.389010 0.350267 0.148153 212 2 166
-0.359920 0.324074 0.149178 212 2 166
-0.331625 0.298596 0.140037 212 2 166
-0.306051 0.275570 0.121353 212 2 166
-0.284943 0.256563 0.094398 212 2 166
-0.269738 0.242873 0.061010 212 2 166
-0.261473 0.235431 0.023465 212 2 166
-0.260711 0.234746 -0.015679 212 2 166
-0.267505 0.240862 -0.053755 212 2 166
-0.281390 0.253365 -0.088168 212 2 166
-0.301421 0.271401 -0.116572 212 2 166
-0.326233 0.293741 -0.137032 212 2 166
-0.354134 0.318864 -0.148153 212 2 166
-0.442008 0.321138 -0.142658 202 0 179
-0.470602 0.341912 -0.125801 202 0 179
-0.494691 0.359414 -0.100370 202 0 179
-0.512634 0.372451 -0.068099 202 0 179
-0.523209 0.380134 -0.031187 202 0 179
-0.525695 0.381940 0.007850 202 0 179
-0.519922 0.377745 0.046353 202 0 179
-0.506283 0.367836 0.081696 202 0 179
-0.485709 0.352888 0.111472 202 0 179
-0.459601 0.333920 0.133651 202 0 179
-0.429739 0.312224 0.146722 202 0 179
-0.398157 0.289278 0.149794 202 0 179
-0.367008 0.266647 0.142658 202 0 179
-0.338415 0.245873 0.125801 202 0 179
-0.314326 0.228371 0.100370 202 0 179
-0.296383 0.215335 0.068099 202 0 179
-0.285808 0.207652 0.031187 202 0 179
-0.283322 0.205846 -0.007850 202 0 179
-0.289095 0.210040 -0.046353 202 0 179
-0.302734 0.219949 -0.081696 202 0 179
-0.323308 0.234897 -0.111472 202 0 179
-0.349416 0.253865 -0.133651 202 0 179
-0.379278 0.275562 -0.146722 202 0 179
-0.410860 0.298507 -0.149794 202 0 179
-0.497965 0.287500 -0.129904 191 0 191
-0.524869 0.303033 -0.106066 191 0 191
-0.545513 0.314952 -0.075000 191 0 191
-0.558490 0.322444 -0.038823 191 0 191
-0.562917 0.325000 -0.000000 191 0 191
-0.558490 0.322444 0.038823 191 0 191
-0.545513 0.314952 0.075000 191 0 191
-0.524869 0.303033 0.106066 191 0 191
-0.497965 0.287500 0.129904 191 0 191
-0.466634 0.269411 0.144889 191 0 191
-0.433013 0.250000 0.150000 191 0 191
-0.399391 0.230589 0.144889 191 0 191
-0.368061 0.212500 0.129904 191 0 191
-0.341157 0.196967 0.106066 191 0 191
-0.320513 0.185048 0.075000 191 0 191
-0.307535 0.177556 0.038823 191 0 191
-0.303109 0.175000 0.000000 191 0 191
-0.307535 0.177556 -0.038823 191 0 191
-0.320513 0.185048 -0.075000 191 0 191
-0.341157 0.196967 -0.106066 191 0 191
-0.368061 0.212500 -0.129904 191 0 191
-0.399391 0.230589 -0.144889 191 0 191
-0.433013 0.250000 -0.150000 191 0 191
-0.466634 0.269411 -0.144889 191 0 191
-0.548465 0.244192 -0.111472 179 0 202
-0.571697 0.254536 -0.081696 179 0 202
-0.587098 0.261393 -0.046353 179 0 202
-0.593617 0.264295 -0.007850 179 0 202
-0.590810 0.263046 0.031187 179 0 202
-0.578869 0.257729 0.068099 179 0 202
-0.558607 0.248708 0.100370 179 0 202
-0.531406 0.236597 0.125801 179 0 202
-0.499118 0.222222 0.142658 179 0 202
-0.463944 0.206561 0.149794 179 0 202
-0.428282 0.190684 0.146722 179 0 202
-0.394562 0.175670 0.133651 179 0 202
-0.365081 0.162544 0.111472 179 0 202
-0.341848 0.152201 0.081696 179 0 202
-0.326448 0.145344 0.046353 179 0 202
-0.319929 0.142441 0.007850 179 0 202
-0.322735 0.143691 -0.031187 179 0 202
-0.334676 0.149008 -0.068099 179 0 202
-0.354938 0.158029 -0.100370 179 0 202
-0.382140 0.170140 -0.125801 179 0 202
-0.414428 0.184515 -0.142658 179 0 202
-0.449601 0.200175 -0.149794 179 0 202
-0.485263 0.216053 -0.146722 179 0 202
-0.518984 0.231067 -0.133651 179 0 202
-0.590941 0.192008 -0.088168 166 2 212
-0.608711 0.197782 -0.053755 166 2 212
-0.617405 0.200607 -0.015679 166 2 212
-0.616430 0.200290 0.023465 166 2 212
-0.605853 0.196854 0.061010 166 2 212
-0.586395 0.190531 0.094398 166 2 212
-0.559381 0.181754 0.121353 166 2 212
-0.526652 0.171120 0.140037 166 2 212
-0.490440 0.159354 0.149178 166 2 212
-0.453212 0.147257 0.148153 166 2 212
-0.417504 0.135655 0.137032 166 2 212
-0.385750 0.125338 0.116572 166 2 212
-0.360115 0.117008 0.088168 166 2 212
-0.342345 0.111235 0.053755 166 2 212
-0.333651 0.108410 0.015679 166 2 212
-0.334626 0.108727 -0.023465 166 2 212
-0.345203 0.112163 -0.061010 166 2 212
-0.364662 0.118486 -0.094398 166 2 212
-0.391676 0.127263 -0.121353 166 2 212
-0.424404 0.137897 -0.140037 166 2 212
-0.460616 0.149663 -0.149178 166 2 212
-0.497845 0.161760 -0.148153 166 2 212
-0.533553 0.173362 -0.137032 166 2 212
-0.565306 0.183679 -0.116572 166 2 212
-0.623111 0.132446 -0.061010 154 6 222
-0.633990 0.134759 -0.023465 154 6 222
-0.634992 0.134972 0.015679 154 6 222
-0.626051 0.133071 0.053755 154 6 222
-0.607775 0.129186 0.088168 154 6 222
-0.581409 0.123582 0.116572 154 6 222
-0.548751 0.116641 0.137032 154 6 222
-0.512026 0.108835 0.148153 154 6 222
-0.473737 0.100696 0.149178 154 6 222
-0.436493 0.092780 0.140037 154 6 222
-0.402833 0.085625 0.121353 154 6 222
-0.375049 0.079719 0.094398 154 6 222
-0.355036 0.075465 0.061010 154 6 222
-0.344158 0.073153 0.023465 154 6 222
-0.343155 0.072940 -0.015679 154 6 222
-0.352097 0.074841 -0.053755 154 6 222
-0.370373 0.078725 -0.088168 154 6 222
-0.396739 0.084329 -0.116572 154 6 222
-0.429397 0.091271 -0.137032 154 6 222
-0.466121 0.099077 -0.148153 154 6 222
-0.504410 0.107216 -0.149178 154 6 222
-0.541654 0.115132 -0.140037 154 6 222
-0.575315 0.122287 -0.121353 154 6 222
-0.603098 0.128193 -0.094398 154 6 222
-0.643179 0.067601 -0.031187 140 11 230
-0.646235 0.067922 0.007850 140 11 230
-0.639138 0.067176 0.046353 140 11 230
-0.622372 0.065414 0.081696 140 11 230
-0.597081 0.062756 0.111472 140 11 230
-0.564986 0.059382 0.133651 140 11 230
-0.528277 0.055524 0.146722 140 11 230
-0.489454 0.051444 0.149794 140 11 230
-0.451162 0.047419 0.142658 140 11 230
-0.416013 0.043725 0.125801 140 11 230
-0.386400 0.040612 0.100370 140 11 230
-0.364342 0.038294 0.068099 140 11 230
-0.351343 0.036928 0.031187 140 11 230
-0.348287 0.036606 -0.007850 140 11 230
-0.355384 0.037352 -0.046353 140 11 230
-0.372150 0.039114 -0.081696 140 11 230
-0.397441 0.041773 -0.111472 140 11 230
-0.429535 0.045146 -0.133651 140 11 230
-0.466245 0.049004 -0.146722 140 11 230
-0.505068 0.053085 -0.149794 140 11 230
-0.543360 0.057109 -0.142658 140 11 230
-0.578509 0.060804 -0.125801 140 11 230
-0.608122 0.063916 -0.100370 140 11 230
-0.630180 0.066235 -0.068099 140 11 230
-0.650000 0.000000 -0.000000 127 17 237
-0.644889 0.000000 0.038823 127 17 237
-0.629904 0.000000 0.075000 127 17 237
-0.606066 0.000000 0.106066 127 17 237
-0.575000 0.000000 0.129904 127 17 237
-0.538823 0.000000 0.144889 127 17 237
-0.500000 0.000000 0.150000 127 17 237
-0.461177 0.000000 0.144889 127 17 237
-0.425000 0.000000 0.129904 127 17 237
-0.393934 0.000000 0.106066 127 17 237
-0.370096 0.000000 0.075000 127 17 237
-0.355111 0.000000 0.038823 127 17 237
-0.350000 0.000000 0.000000 127 17 237
-0.355111 0.000000 -0.038823 127 17 237
-0.370096 0.000000 -0.075000 127 17 237
-0.393934 0.000000 -0.106066 127 17 237
-0.425000 0.000000 -0.129904 127 17 237
-0.461177 0.000000 -0.144889 127 17 237
-0.500000 0.000000 -0.150000 127 17 237
-0.538823 0.000000 -0.144889 127 17 237
-0.575000 0.000000 -0.129904 127 17 237
-0.606066 0.000000 -0.106066 127 17 237
-0.629904 0.000000 -0.075000 127 17 237
-0.644889 0.000000 -0.038823 127 17 237
-0.643179 -0.067601 0.031187 114 24 243
-0.630180 -0.066235 0.068099 114 24 243
-0.608122 -0.063916 0.100370 114 24 243
-0.578509 -0.060804 0.125801 114 24 243
-0.543360 -0.057109 0.142658 114 24 243
-0.505068 -0.053085 0.149794 114 24 243
-0.466245 -0.049004 0.146722 114 24 243
-0.429535 -0.045146 0.133651 114 24 243
-0.397441 -0.041773 0.111472 114 24 243
-0.372150 -0.039114 0.081696 114 24 243
-0.355384 -0.037352 0.046353 114 24 243
-0.348287 -0.036606 0.007850 114 24 243
-0.351343 -0.036928 -0.031187 114 24 243
-0.364342 -0.038294 -0.068099 114 24 243
-0.386400 -0.040612 -0.100370 114 24 243
-0.416013 -0.043725 -0.125801 114 24 243
-0.451162 -0.047419 -0.142658 114 24 243
-0.489454 -0.051444 -0.149794 114 24 243
-0.528277 -0.055524 -0.146722 114 24 243
-0.564986 -0.059382 -0.133651 114 24 243
-0.597081 -0.062756 -0.111472 114 24 243
-0.622372 -0.065414 -0.081696 114 24 243
-0.639138 -0.067176 -0.046353 114 24 243
-0.646235 -0.067922 -0.007850 114 24 243
-0.623111 -0.132446 0.061010 100 32 248
-0.603098 -0.128193 0.094398 100 32 248
-0.575315 -0.122287 0.121353 100 32 248
-0.541654 -0.115132 0.140037 100 32 248
-0.504410 -0.107216 0.149178 100 32 248
-0.466121 -0.099077 0.148153 100 32 248
-0.429397 -0.091271 0.137032 100 32 248
-0.396739 -0.084329 0.116572 100 32 248
-0.370373 -0.078725 0.088168 100 32 248
-0.352097 -0.074841 0.053755 100 32 248
-0.343155 -0.072940 0.015679 100 32 248
-0.344158 -0.073153 -0.023465 100 32 248
-0.355036 -0.075465 -0.061010 100 32 248
-0.375049 -0.079719 -0.094398 100 32 248
-0.402833 -0.085625 -0.121353 100 32 248
-0.436493 -0.092780 -0.140037 100 32 248
-0.473737 -0.100696 -0.149178 100 32 248
-0.512026 -0.108835 -0.148153 100 32 248
-0.548751 -0.116641 -0.137032 100 32 248
-0.581409 -0.123582 -0.116572 100 32 248
-0.607775 -0.129186 -0.088168 100 32 248
-0.626051 -0.133071 -0.053755 100 32 248
-0.634992 -0.134972 -0.015679 100 32 248
-0.633990 -0.134759 0.023465 100 32 248
-0.590941 -0.192008 0.088168 88 42 252
-0.565306 -0.183679 0.116572 88 42 252
-0.533553 -0.173362 0.137032 88 42 252
-0.497845 -0.161760 0.148153 88 42 252
-0.460616 -0.149663 0.149178 88 42 252
-0.424404 -0.137897 0.140037 88 42 252
-0.391676 -0.127263 0.121353 88 42 252
-0.364662 -0.118486 0.094398 88 42 252
-0.345203 -0.112163 0.061010 88 42 252
-0.334626 -0.108727 0.023465 88 42 252
-0.333651 -0.108410 -0.015679 88 42 252
-0.342345 -0.111235 -0.053755 88 42 252
-0.360115 -0.117008 -0.088168 88 42 252
-0.385750 -0.125338 -0.116572 88 42 252
-0.417504 -0.135655 -0.137032 88 42 252
-0.453212 -0.147257 -0.148153 88 42 252
-0.490440 -0.159354 -0.149178 88 42 252
-0.526652 -0.171120 -0.140037 88 42 252
-0.559381 -0.181754 -0.121353 88 42 252
-0.586395 -0.190531 -0.094398 88 42 252
-0.605853 -0.196854 -0.061010 88 42 252
-0.616430 -0.200290 -0.023465 88 42 252
-0.617405 -0.200607 0.015679 88 42 252
-0.608711 -0.197782 0.053755 88 42 252
-0.548465 -0.244192 0.111472 75 52 254
-0.518984 -0.231067 0.133651 75 52 254
-0.485263 -0.216053 0.146722 75 52 254
-0.449601 -0.200175 0.149794 75 52 254
-0.414428 -0.184515 0.142658 75 52 254
-0.382140 -0.170140 0.125801 75 52 254
-0.354938 -0.158029 0.100370 75 52 254
-0.334676 -0.149008 0.068099 75 52 254
-0.322735 -0.143691 0.031187 75 52 254
-0.319929 -0.142441 -0.007850 75 52 254
-0.326448 -0.145344 -0.046353 75 52 254
-0.341848 -0.152201 -0.081696 75 52 254
-0.365081 -0.162544 -0.111472 75 52 254
-0.394562 -0.175670 -0.133651 75 52 254
-0.428282 -0.190684 -0.146722 75 52 254
-0.463944 -0.206561 -0.149794 75 52 254
-0.499118 -0.222222 -0.142658 75 52 254
-0.531406 -0.236597 -0.125801 75 52 254
-0.558607 -0.248708 -0.100370 75 52 254
-0.578869 -0.257729 -0.068099 75 52 254
-0.590810 -0.263046 -0.031187 75 52 254
-0.593617 -0.264295 0.007850 75 52 254
-0.587098 -0.261393 0.046353 75 52 254
-0.571697 -0.254536 0.081696 75 52 254
-0.497965 -0.287500 0.129904 63 63 255
-0.466634 -0.269411 0.144889 63 63 255
-0.433013 -0.250000 0.150000 63 63 255
-0.399391 -0.230589 0.144889 63 63 255
-0.368061 -0.212500 0.129904 63 63 255
-0.341157 -0.196967 0.106066 63 63 255
-0.320513 -0.185048 0.075000 63 63 255
-0.307535 -0.177556 0.038823 63 63 255
-0.303109 -0.175000 0.000000 63 63 255
-0.307535 -0.177556 -0.038823 63 63 255
-0.320513 -0.185048 -0.075000 63 63 255
-0.341157 -0.196967 -0.106066 63 63 255
-0.368061 -0.212500 -0.129904 63 63 255
-0.399391 -0.230589 -0.144889 63 63 255
-0.433013 -0.250000 -0.150000 63 63 255
-0.466634 -0.269411 -0.144889 63 63 255
-0.497965 -0.287500 -0.129904 63 63 255
-0.524869 -0.303033 -0.106066 63 63 255
-0.545513 -0.314952 -0.075000 63 63 255
-0.558490 -0.322444 -0.038823 63 63 255
-0.562917 -0.325000 -0.000000 63 63 255
-0.558490 -0.322444 0.038823 63 63 255
-0.545513 -0.314952 0.075000 63 63 255
-0.524869 -0.303033 0.106066 63 63 255
-0.442008 -0.321138 0.142658 52 75 254
-0.410860 -0.298507 0.149794 52 75 254
-0.379278 -0.275562 0.146722 52 75 254
-0.349416 -0.253865 0.133651 52 75 254
-0.323308 -0.234897 0.111472 52 75 254
-0.302734 -0.219949 0.081696 52 75 254
-0.289095 -0.210040 0.046353 52 75 254
-0.283322 -0.205846 0.007850 52 75 254
-0.285808 -0.207652 -0.031187 52 75 254
-0.296383 -0.215335 -0.068099 52 75 254
-0.314326 -0.228371 -0.100370 52 75 254
-0.338415 -0.245873 -0.125801 52 75 254
-0.367008 -0.266647 -0.142658 52 75 254
-0.398157 -0.289278 -0.149794 52 75 254
-0.429739 -0.312224 -0.146722 52 75 254
-0.459601 -0.333920 -0.133651 52 75 254
-0.485709 -0.352888 -0.111472 52 75 254
-0.506283 -0.367836 -0.081696 52 75 254
-0.519922 -0.377745 -0.046353 52 75 254
-0.525695 -0.381940 -0.007850 52 75 254
-0.523209 -0.380134 0.031187 52 75 254
-0.512634 -0.372451 0.068099 52 75 254
-0.494691 -0.359414 0.100370 52 75 254
-0.470602 -0.341912 0.125801 52 75 254
-0.383224 -0.345057 0.149178 42 88 252
-0.354134 -0.318864 0.148153 42 88 252
-0.326233 -0.293741 0.137032 42 88 252
-0.301421 -0.271401 0.116572 42 88 252
-0.281390 -0.253365 0.088168 42 88 252
-0.267505 -0.240862 0.053755 42 88 252
-0.260711 -0.234746 0.015679 42 88 252
-0.261473 -0.235431 -0.023465 42 88 252
-0.269738 -0.242873 -0.061010 42 88 252
-0.284943 -0.256563 -0.094398 42 88 252
-0.306051 -0.275570 -0.121353 42 88 252
-0.331625 -0.298596 -0.140037 42 88 252
-0.359920 -0.324074 -0.149178 42 88 252
-0.389010 -0.350267 -0.148153 42 88 252
-0.416912 -0.375389 -0.137032 42 88 252
-0.441724 -0.397730 -0.116572 42 88 252
-0.461755 -0.415766 -0.088168 42 88 252
-0.475640 -0.428268 -0.053755 42 88 252
-0.482433 -0.434385 -0.015679 42 88 252
-0.481672 -0.433699 0.023465 42 88 252
-0.473407 -0.426257 0.061010 42 88 252
-0.458202 -0.412567 0.094398 42 88 252
-0.437094 -0.393561 0.121353 42 88 252
-0.411520 -0.370535 0.140037 42 88 252
-0.324074 -0.359920 0.149178 32 100 248
-0.298596 -0.331625 0.140037 32 100 248
-0.275570 -0.306051 0.121353 32 100 248
-0.256563 -0.284943 0.094398 32 100 248
-0.242873 -0.269738 0.061010 32 100 248
-0.235431 -0.261473 0.023465 32 100 248
-0.234746 -0.260711 -0.015679 32 100 248
-0.240862 -0.267505 -0.053755 32 100 248
-0.253365 -0.281390 -0.088168 32 100 248
-0.271401 -0.301421 -0.116572 32 100 248
-0.293741 -0.326233 -0.137032 32 100 248
-0.318864 -0.354134 -0.148153 32 100 248
-0.345057 -0.383224 -0.149178 32 100 248
-0.370535 -0.411520 -0.140037 32 100 248
-0.393561 -0.437094 -0.121353 32 100 248
-0.412567 -0.458202 -0.094398 32 100 248
-0.426257 -0.473407 -0.061010 32 100 248
-0.433699 -0.481672 -0.023465 32 100 248
-0.434385 -0.482433 0.015679 32 100 248
-0.428268 -0.475640 0.053755 32 100 248
-0.415766 -0.461755 0.088168 32 100 248
-0.397730 -0.441724 0.116572 32 100 248
-0.375389 -0.416912 0.137032 32 100 248
-0.350267 -0.389010 0.148153 32 100 248
-0.266647 -0.367008 0.142658 24 114 243
-0.245873 -0.338415 0.125801 24 114 243
-0.228371 -0.314326 0.100370 24 114 243
-0.215335 -0.296383 0.068099 24 114 243
-0.207652 -0.285808 0.031187 24 114 243
-0.205846 -0.283322 -0.007850 24 114 243
-0.210040 -0.289095 -0.046353 24 114 243
-0.219949 -0.302734 -0.081696 24 114 243
-0.234897 -0.323308 -0.111472 24 114 243
-0.253865 -0.349416 -0.133651 24 114 243
-0.275562 -0.379278 -0.146722 24 114 243
-0.298507 -0.410860 -0.149794 24 114 243
-0.321138 -0.442008 -0.142658 24 114 243
-0.341912 -0.470602 -0.125801 24 114 243
-0.359414 -0.494691 -0.100370 24 114 243
-0.372451 -0.512634 -0.068099 24 114 243
-0.380134 -0.523209 -0.031187 24 114 243
-0.381940 -0.525695 0.007850 24 114 243
-0.377745 -0.519922 0.046353 24 114 243
-0.367836 -0.506283 0.081696 24 114 243
-0.352888 -0.485709 0.111472 24 114 243
-0.333920 -0.459601 0.133651 24 114 243
-0.312224 -0.429739 0.146722 24 114 243
-0.289278 -0.398157 0.149794 24 114 243
-0.212500 -0.368061 0.129904 17 127 237
-0.196967 -0.341157 0.106066 17 127 237
-0.185048 -0.320513 0.075000 17 127 237
-0.177556 -0.307535 0.038823 17 127 237
-0.175000 -0.303109 0.000000 17 127 237
-0.177556 -0.307535 -0.038823 17 127 237
-0.185048 -0.320513 -0.075000 17 127 237
-0.196967 -0.341157 -0.106066 17 127 237
-0.212500 -0.368061 -0.129904 17 127 237
-0.230589 -0.399391 -0.144889 17 127 237
-0.250000 -0.433013 -0.150000 17 127 237
-0.269411 -0.466634 -0.144889 17 127 237
-0.287500 -0.497965 -0.129904 17 127 237
-0.303033 -0.524869 -0.106066 17 127 237
-0.314952 -0.545513 -0.075000 17 127 237
-0.322444 -0.558490 -0.038823 17 127 237
-0.325000 -0.562917 -0.000000 17 127 237
-0.322444 -0.558490 0.038823 17 127 237
-0.314952 -0.545513 0.075000 17 127 237
-0.303033 -0.524869 0.106066 17 127 237
-0.287500 -0.497965 0.129904 17 127 237
-0.269411 -0.466634 0.144889 17 127 237
-0.250000 -0.433013 0.150000 17 127 237
-0.230589 -0.399391 0.144889 17 127 237
-0.162544 -0.365081 0.111472 11 140 230
-0.152201 -0.341848 0.081696 11 140 230
-0.145344 -0.326448 0.046353 11 140 230
-0.142441 -0.319929 0.007850 11 140 230
-0.143691 -0.322735 -0.031187 11 140 230
-0.149008 -0.334676 -0.068099 11 140 230
-0.158029 -0.354938 -0.100370 11 140 230
-0.170140 -0.382140 -0.125801 11 140 230
-0.184515 -0.414428 -0.142658 11 140 230
-0.200175 -0.449601 -0.149794 11 140 230
-0.216053 -0.485263 -0.146722 11 140 230
-0.231067 -0.518984 -0.133651 11 140 230
-0.244192 -0.548465 -0.111472 11 140 230
-0.254536 -0.571697 -0.081696 11 140 230
-0.261393 -0.587098 -0.046353 11 140 230
-0.264295 -0.593617 -0.007850 11 140 230
-0.263046 -0.590810 0.031187 11 140 230
-0.257729 -0.578869 0.068099 11 140 230
-0.248708 -0.558607 0.100370 11 140 230
-0.236597 -0.531406 0.125801 11 140 230
-0.222222 -0.499118 0.142658 11 140 230
-0.206561 -0.463944 0.149794 11 140 230
-0.190684 -0.428282 0.146722 11 140 230
-0.175670 -0.394562 0.133651 11 140 230
-0.117008 -0.360115 0.088168 6 154 222
-0.111235 -0.342345 0.053755 6 154 222
-0.108410 -0.333651 0.015679 6 154 222
-0.108727 -0.334626 -0.023465 6 154 222
-0.112163 -0.345203 -0.061010 6 154 222
-0.118486 -0.364662 -0.094398 6 154 222
-0.127263 -0.391676 -0.121353 6 154 222
-0.137897 -0.424404 -0.140037 6 154 222
-0.149663 -0.460616 -0.149178 6 154 222
-0.161760 -0.497845 -0.148153 6 154 222
-0.173362 -0.533553 -0.137032 6 154 222
-0.183679 -0.565306 -0.116572 6 154 222
-0.192008 -0.590941 -0.088168 6 154 222
-0.197782 -0.608711 -0.053755 6 154 222
-0.200607 -0.617405 -0.015679 6 154 222
-0.200290 -0.616430 0.023465 6 154 222
-0.196854 -0.605853 0.061010 6 154 222
-0.190531 -0.586395 0.094398 6 154 222
-0.181754 -0.559381 0.121353 6 154 222
-0.171120 -0.526652 0.140037 6 154 222
-0.159354 -0.490440 0.149178 6 154 222
-0.147257 -0.453212 0.148153 6 154 222
-0.135655 -0.417504 0.137032 6 154 222
-0.125338 -0.385750 0.116572 6 154 222
-0.075465 -0.355036 0.061010 2 166 212
-0.073153 -0.344158 0.023465 2 166 212
-0.072940 -0.343155 -0.015679 2 166 212
-0.074841 -0.352097 -0.053755 2 166 212
-0.078725 -0.370373 -0.088168 2 166 212
-0.084329 -0.396739 -0.116572 2 166 212
-0.091271 -0.429397 -0.137032 2 166 212
-0.099077 -0.466121 -0.148153 2 166 212
-0.107216 -0.504410 -0.149178 2 166 212
-0.115132 -0.541654 -0.140037 2 166 212
-0.122287 -0.575315 -0.121353 2 166 212
-0.128193 -0.603098 -0.094398 2 166 212
-0.132446 -0.623111 -0.061010 2 166 212
-0.134759 -0.633990 -0.023465 2 166 212
-0.134972 -0.634992 0.015679 2 166 212
-0.133071 -0.626051 0.053755 2 166 212
-0.129186 -0.607775 0.088168 2 166 212
-0.123582 -0.581409 0.116572 2 166 212
-0.116641 -0.548751 0.137032 2 166 212
-0.108835 -0.512026 0.148153 2 166 212
-0.100696 -0.473737 0.149178 2 166 212
-0.092780 -0.436493 0.140037 2 166 212
-0.085625 -0.402833 0.121353 2 166 212
-0.079719 -0.375049 0.094398 2 166 212
-0.036928 -0.351343 0.031187 0 179 202
-0.036606 -0.348287 -0.007850 0 179 202
-0.037352 -0.355384 -0.046353 0 179 202
-0.039114 -0.372150 -0.081696 0 179 202
-0.041773 -0.397441 -0.111472 0 179 202
-0.045146 -0.429535 -0.133651 0 179 202
-0.049004 -0.466245 -0.146722 0 179 202
-0.053085 -0.505068 -0.149794 0 179 202
-0.057109 -0.543360 -0.142658 0 179 202
-0.060804 -0.578509 -0.125801 0 179 202
-0.063916 -0.608122 -0.100370 0 179 202
-0.066235 -0.630180 -0.068099 0 179 202
-0.067601 -0.643179 -0.031187 0 179 202
-0.067922 -0.646235 0.007850 0 179 202
-0.067176 -0.639138 0.046353 0 179 202
-0.065414 -0.622372 0.081696 0 179 202
-0.062756 -0.597081 0.111472 0 179 202
-0.059382 -0.564986 0.133651 0 179 202
-0.055524 -0.528277 0.146722 0 179 202
-0.051444 -0.489454 0.149794 0 179 202
-0.047419 -0.451162 0.142658 0 179 202
-0.043725 -0.416013 0.125801 0 179 202
-0.040612 -0.386400 0.100370 0 179 202
-0.038294 -0.364342 0.068099 0 179 202
-0.000000 -0.350000 0.000000 0 191 191
-0.000000 -0.355111 -0.038823 0 191 191
-0.000000 -0.370096 -0.075000 0 191 191
-0.000000 -0.393934 -0.106066 0 191 191
-0.000000 -0.425000 -0.129904 0 191 191
-0.000000 -0.461177 -0.144889 0 191 191
-0.000000 -0.500000 -0.150000 0 191 191
-0.000000 -0.538823 -0.144889 0 191 191
-0.000000 -0.575000 -0.129904 0 191 191
-0.000000 -0.606066 -0.106066 0 191 191
-0.000000 -0.629904 -0.075000 0 191 191
-0.000000 -0.644889 -0.038823 0 191 191
-0.000000 -0.650000 -0.000000 0 191 191
-0.000000 -0.644889 0.038823 0 191 191
-0.000000 -0.629904 0.075000 0 191 191
-0.000000 -0.606066 0.106066 0 191 191
-0.000000 -0.575000 0.129904 0 191 191
-0.000000 -0.538823 0.144889 0 191 191
-0.000000 -0.500000 0.150000 0 191 191
-0.000000 -0.461177 0.144889 0 191 191
-0.000000 -0.425000 0.129904 0 191 191
-0.000000 -0.393934 0.106066 0 191 191
-0.000000 -0.370096 0.075000 0 191 191
-0.000000 -0.355111 0.038823 0 191 191
0.036928 -0.351343 -0.031187 0 202 179
0.038294 -0.364342 -0.068099 0 202 179
0.040612 -0.386400 -0.100370 0 202 179
0.043725 -0.416013 -0.125801 0 202 179
0.047419 -0.451162 -0.142658 0 202 179
0.051444 -0.489454 -0.149794 0 202 179
0.055524 -0.528277 -0.146722 0 202 179
0.059382 -0.564986 -0.133651 0 202 179
0.062756 -0.597081 -0.111472 0 202 179
0.065414 -0.622372 -0.081696 0 202 179
0.067176 -0.639138 -0.046353 0 202 179
0.067922 -0.646235 -0.007850 0 202 179
0.067601 -0.643179 0.031187 0 202 179
0.066235 -0.630180 0.068099 0 202 179
0.063916 -0.608122 0.100370 0 202 179
0.060804 -0.578509 0.125801 0 202 179
0.057109 -0.543360 0.142658 0 202 179
0.053085 -0.505068 0.149794 0 202 179
0.049004 -0.466245 0.146722 0 202 179
0.045146 -0.429535 0.133651 0 202 179
0.041773 -0.397441 0.111472 0 202 179
0.039114 -0.372150 0.081696 0 202 179
0.037352 -0.355384 0.046353 0 202 179
0.036606 -0.348287 0.007850 0 202 179
0.075465 -0.355036 -0.061010 2 212 166
0.079719 -0.375049 -0.094398 2 212 166
0.085625 -0.402833 -0.121353 2 212 166
0.092780 -0.436493 -0.140037 2 212 166
0.100696 -0.473737 -0.149178 2 212 166
0.108835 -0.512026 -0.148153 2 212 166
0.116641 -0.548751 -0.137032 2 212 166
0.123582 -0.581409 -0.116572 2 212 166
0.129186 -0.607775 -0.088168 2 212 166
0.133071 -0.626051 -0.053755 2 212 166
0.134972 -0.634992 -0.015679 2 212 166
0.134759 -0.633990 0.023465 2 212 166
0.132446 -0.623111 0.061010 2 212 166
0.128193 -0.603098 0.094398 2 212 166
0.122287 -0.575315 0.121353 2 212 166
0.115132 -0.541654 0.140037 2 212 166
0.107216 -0.504410 0.149178 2 212 166
0.099077 -0.466121 0.148153 2 212 166
0.091271 -0.429397 0.137032 2 212 166
0.084329 -0.396739 0.116572 2 212 166
0.078725 -0.370373 0.088168 2 212 166
0.074841 -0.352097 0.053755 2 212 166
0.072940 -0.343155 0.015679 2 212 166
0.073153 -0.344158 -0.023465 2 212 166
0.117008 -0.360115 -0.088168 6 222 154
0.125338 -0.385750 -0.116572 6 222 154
0.135655 -0.417504 -0.137032 6 222 154
0.147257 -0.453212 -0.148153 6 222 154
0.159354 -0.490440 -0.149178 6 222 154
0.171120 -0.526652 -0.140037 6 222 154
0.181754 -0.559381 -0.121353 6 222 154
0.190531 -0.586395 -0.094398 6 222 154
0.196854 -0.605853 -0.061010 6 222 154
0.200290 -0.616430 -0.023465 6 222 154
0.200607 -0.617405 0.015679 6 222 154
0.197782 -0.608711 0.053755 6 222 154
0.192008 -0.590941 0.088168 6 222 154
0.183679 -0.565306 0.116572 6 222 154
0.173362 -0.533553 0.137032 6 222 154
0.161760 -0.497845 0.148153 6 222 154
0.149663 -0.460616 0.149178 6 222 154
0.137897 -0.424404 0.140037 6 222 154
0.127263 -0.391676 0.121353 6 222 154
0.118486 -0.364662 0.094398 6 222 154
0.112163 -0.345203 0.061010 6 222 154
0.108727 -0.334626 0.023465 6 222 154
0.108410 -0.333651 -0.015679 6 222 154
0.111235 -0.342345 -0.053755 6 222 154
0.162544 -0.365081 -0.111472 11 230 140
0.175670 -0.394562 -0.133651 11 230 140
0.190684 -0.428282 -0.146722 11 230 140
0.206561 -0.463944 -0.149794 11 230 140
0.222222 -0.499118 -0.142658 11 230 140
0.236597 -0.531406 -0.125801 11 230 140
0.248708 -0.558607 -0.100370 11 230 140
0.257729 -0.578869 -0.068099 11 230 140
0.263046 -0.590810 -0.031187 11 230 140
0.264295 -0.593617 0.007850 11 230 140
0.261393 -0.587098 0.046353 11 230 140
0.254536 -0.571697 0.081696 11 230 140
0.244192 -0.548465 0.111472 11 230 140
0.231067 -0.518984 0.133651 11 230 140
0.216053 -0.485263 0.146722 11 230 140
0.200175 -0.449601 0.149794 11 230 140
0.184515 -0.414428 0.142658 11 230 140
0.170140 -0.382140 0.125801 11 230 140
0.158029 -0.354938 0.100370 11 230 140
0.149008 -0.334676 0.068099 11 230 140
0.143691 -0.322735 0.031187 11 230 140
0.142441 -0.319929 -0.007850 11 230 140
0.145344 -0.326448 -0.046353 11 230 140
0.152201 -0.341848 -0.081696 11 230 140
0.212500 -0.368061 -0.129904 17 237 127
0.230589 -0.399391 -0.144889 17 237 127
0.250000 -0.433013 -0.150000 17 237 127
0.269411 -0.466634 -0.144889 17 237 127
0.287500 -0.497965 -0.129904 17 237 127
0.303033 -0.524869 -0.106066 17 237 127
0.314952 -0.545513 -0.075000 17 237 127
0.322444 -0.558490 -0.038823 17 237 127
0.325000 -0.562917 -0.000000 17 237 127
0.322444 -0.558490 0.038823 17 237 127
0.314952 -0.545513 0.075000 17 237 127
0.303033 -0.524869 0.106066 17 237 127
0.287500 -0.497965 0.129904 17 237 127
0.269411 -0.466634 0.144889 17 237 127
0.250000 -0.433013 0.150000 17 237 127
0.230589 -0.399391 0.144889 17 237 127
0.212500 -0.368061 0.129904 17 237 127
0.196967 -0.341157 0.106066 17 237 127
0.185048 -0.320513 0.075000 17 237 127
0.177556 -0.307535 0.038823 17 237 127
0.175000 -0.303109 0.000000 17 237 127
0.177556 -0.307535 -0.038823 17 237 127
0.185048 -0.320513 -0.075000 17 237 127
0.196967 -0.341157 -0.106066 17 237 127
0.266647 -0.367008 -0.142658 24 243 114
0.289278 -0.398157 -0.149794 24 243 114
0.312224 -0.429739 -0.146722 24 243 114
0.333920 -0.459601 -0.133651 24 243 114
0.352888 -0.485709 -0.111472 24 243 114
0.367836 -0.506283 -0.081696 24 243 114
0.377745 -0.519922 -0.046353 24 243 114
0.381940 -0.525695 -0.007850 24 243 114
0.380134 -0.523209 0.031187 24 243 114
0.372451 -0.512634 0.068099 24 243 114
0.359414 -0.494691 0.100370 24 243 114
0.341912 -0.470602 0.125801 24 243 114
0.321138 -0.442008 0.142658 24 243 114
0.298507 -0.410860 0.149794 24 243 114
0.275562 -0.379278 0.146722 24 243 114
0.253865 -0.349416 0.133651 24 243 114
0.234897 -0.323308 0.111472 24 243 114
0.219949 -0.302734 0.081696 24 243 114
0.210040 -0.289095 0.046353 24 243 114
0.205846 -0.283322 0.007850 24 243 114
0.207652 -0.285808 -0.031187 24 243 114
0.215335 -0.296383 -0.068099 24 243 114
0.228371 -0.314326 -0.100370 24 243 114
0.245873 -0.338415 -0.125801 24 243 114
0.324074 -0.359920 -0.149178 32 248 100
0.350267 -0.389010 -0.148153 32 248 100
0.375389 -0.416912 -0.137032 32 248 100
0.397730 -0.441724 -0.116572 32 248 100
0.415766 -0.461755 -0.088168 32 248 100
0.428268 -0.475640 -0.053755 32 248 100
0.434385 -0.482433 -0.015679 32 248 100
0.433699 -0.481672 0.023465 32 248 100
0.426257 -0.473407 0.061010 32 248 100
0.412567 -0.458202 0.094398 32 248 100
0.393561 -0.437094 0.121353 32 248 100
0.370535 -0.411520 0.140037 32 248 100
0.345057 -0.383224 0.149178 32 248 100
0.318864 -0.354134 0.148153 32 248 100
0.293741 -0.326233 0.137032 32 248 100
0.271401 -0.301421 0.116572 32 248 100
0.253365 -0.281390 0.088168 32 248 100
0.240862 -0.267505 0.053755 32 248 100
0.234746 -0.260711 0.015679 32 248 100
0.235431 -0.261473 -0.023465 32 248 100
0.242873 -0.269738 -0.061010 32 248 100
0.256563 -0.284943 -0.094398 32 248 100
0.275570 -0.306051 -0.121353 32 248 100
0.298596 -0.331625 -0.140037 32 248 100
0.383224 -0.345057 -0.149178 42 252 88
0.411520 -0.370535 -0.140037 42 252 88
0.437094 -0.393561 -0.121353 42 252 88
0.458202 -0.412567 -0.094398 42 252 88
0.473407 -0.426257 -0.061010 42 252 88
0.481672 -0.433699 -0.023465 42 252 88
0.482433 -0.434385 0.015679 42 252 88
0.475640 -0.428268 0.053755 42 252 88
0.461755 -0.415766 0.088168 42 252 88
0.441724 -0.397730 0.116572 42 252 88
0.416912 -0.375389 0.137032 42 252 88
0.389010 -0.350267 0.148153 42 252 88
0.359920 -0.324074 0.149178 42 252 88
0.331625 -0.298596 0.140037 42 252 88
0.306051 -0.275570 0.121353 42 252 88
0.284943 -0.256563 0.094398 42 252 88
0.269738 -0.242873 0.061010 42 252 88
0.261473 -0.235431 0.023465 42 252 88
0.260711 -0.234746 -0.015679 42 252 88
0.267505 -0.240862 -0.053755 42 252 88
0.281390 -0.253365 -0.088168 42 252 88
0.301421 -0.271401 -0.116572 42 252 88
0.326233 -0.293741 -0.137032 42 252 88
0.354134 -0.318864 -0.148153 42 252 88
0.442008 -0.321138 -0.142658 52 254 75
0.470602 -0.341912 -0.125801 52 254 75
0.494691 -0.359414 -0.100370 52 254 75
0.512634 -0.372451 -0.068099 52 254 75
0.523209 -0.380134 -0.031187 52 254 75
0.525695 -0.381940 0.007850 52 254 75
0.519922 -0.377745 0.046353 52 254 75
0.506283 -0.367836 0.081696 52 254 75
0.485709 -0.352888 0.111472 52 254 75
0.459601 -0.333920 0.133651 52 254 75
0.429739 -0.312224 0.146722 52 254 75
0.398157 -0.289278 0.149794 52 254 75
0.367008 -0.266647 0.142658 52 254 75
0.338415 -0.245873 0.125801 52 254 75
0.314326 -0.228371 0.100370 52 254 75
0.296383 -0.215335 0.068099 52 254 75
0.285808 -0.207652 0.031187 52 254 75
0.283322 -0.205846 -0.007850 52 254 75
0.289095 -0.210040 -0.046353 52 254 75
0.302734 -0.219949 -0.081696 52 254 75
0.323308 -0.234897 -0.111472 52 254 75
0.349416 -0.253865 -0.133651 52 254 75
0.379278 -0.275562 -0.146722 52 254 75
0.410860 -0.298507 -0.149794 52 254 75
0.497965 -0.287500 -0.129904 63 255 63
0.524869 -0.303033 -0.106066 63 255 63
0.545513 -0.314952 -0.075000 63 255 63
0.558490 -0.322444 -0.038823 63 255 63
0.562917 -0.325000 -0.000000 63 255 63
0.558490 -0.322444 0.038823 63 255 63
0.545513 -0.314952 0.075000 63 255 63
0.524869 -0.303033 0.106066 63 255 63
0.497965 -0.287500 0.129904 63 255 63
0.466634 -0.269411 0.144889 63 255 63
0.433013 -0.250000 0.150000 63 255 63
0.399391 -0.230589 0.144889 63 255 63
0.368061 -0.212500 0.129904 63 255 63
0.341157 -0.196967 0.106066 63 255 63
0.320513 -0.185048 0.075000 63 255 63
0.307535 -0.177556 0.038823 63 255 63
0.303109 -0.175000 0.000000 63 255 63
0.307535 -0.177556 -0.038823 63 255 63
0.320513 -0.185048 -0.075000 63 255 63
0.341157 -0.196967 -0.106066 63 255 63
0.368061 -0.212500 -0.129904 63 255 63
0.399391 -0.230589 -0.144889 63 255 63
0.433013 -0.250000 -0.150000 63 255 63
0.466634 -0.269411 -0.144889 63 255 63
0.548465 -0.244192 -0.111472 75 254 52
0.571697 -0.254536 -0.081696 75 254 52
0.587098 -0.261393 -0.046353 75 254 52
0.593617 -0.264295 -0.007850 75 254 52
0.590810 -0.263046 0.031187 75 254 52
0.578869 -0.257729 0.068099 75 254 52
0.558607 -0.248708 0.100370 75 254 52
0.531406 -0.236597 0.125801 75 254 52
0.499118 -0.222222 0.142658 75 254 52
0.463944 -0.206561 0.149794 75 254 52
0.428282 -0.190684 0.146722 75 254 52
0.394562 -0.175670 0.133651 75 254 52
0.365081 -0.162544 0.111472 75 254 52
0.341848 -0.152201 0.081696 75 254 52
0.326448 -0.145344 0.046353 75 254 52
0.319929 -0.142441 0.007850 75 254 52
0.322735 -0.143691 -0.031187 75 254 52
0.334676 -0.149008 -0.068099 75 254 52
0.354938 -0.158029 -0.100370 75 254 52
0.382140 -0.170140 -0.125801 75 254 52
0.414428 -0.184515 -0.142658 75 254 52
0.449601 -0.200175 -0.149794 75 254 52
0.485263 -0.216053 -0.146722 75 254 52
0.518984 -0.231067 -0.133651 75 254 52
0.590941 -0.192008 -0.088168 88 252 42
0.608711 -0.197782 -0.053755 88 252 42
0.617405 -0.200607 -0.015679 88 252 42
0.616430 -0.200290 0.023465 88 252 42
0.605853 -0.196854 0.061010 88 252 42
0.586395 -0.190531 0.094398 88 252 42
0.559381 -0.181754 0.121353 88 252 42
0.526652 -0.171120 0.140037 88 252 42
0.490440 -0.159354 0.149178 88 252 42
0.453212 -0.147257 0.148153 88 252 42
0.417504 -0.135655 0.137032 88 252 42
0.385750 -0.125338 0.116572 88 252 42
0.360115 -0.117008 0.088168 88 252 42
0.342345 -0.111235 0.053755 88 252 42
0.333651 -0.108410 0.015679 88 252 42
0.334626 -0.108727 -0.023465 88 252 42
0.345203 -0.112163 -0.061010 88 252 42
0.364662 -0.118486 -0.094398 88 252 42
0.391676 -0.127263 -0.121353 88 252 42
0.424404 -0.137897 -0.140037 88 252 42
0.460616 -0.149663 -0.149178 88 252 42
0.497845 -0.161760 -0.148153 88 252 42
0.533553 -0.173362 -0.137032 88 252 42
0.565306 -0.183679 -0.116572 88 252 42
0.623111 -0.132446 -0.061010 100 248 32
0.633990 -0.134759 -0.023465 100 248 32
0.634992 -0.134972 0.015679 100 248 32
0.626051 -0.133071 0.053755 100 248 32
0.607775 -0.129186 0.088168 100 248 32
0.581409 -0.123582 0.116572 100 248 32
0.548751 -0.116641 0.137032 100 248 32
0.512026 -0.108835 0.148153 100 248 32
0.473737 -0.100696 0.149178 100 248 32
0.436493 -0.092780 0.140037 100 248 32
0.402833 -0.085625 0.121353 100 248 32
0.375049 -0.079719 0.094398 100 248 32
0.355036 -0.075465 0.061010 100 248 32
0.344158 -0.073153 0.023465 100 248 32
0.343155 -0.072940 -0.015679 100 248 32
0.352097 -0.074841 -0.053755 100 248 32
0.370373 -0.078725 -0.088168 100 248 32
0.396739 -0.084329 -0.116572 100 248 32
0.429397 -0.091271 -0.137032 100 248 32
0.466121 -0.099077 -0.148153 100 248 32
0.504410 -0.107216 -0.149178 100 248 32
0.541654 -0.115132 -0.140037 100 248 32
0.575315 -0.122287 -0.121353 100 248 32
0.603098 -0.128193 -0.094398 100 248 32
0.643179 -0.067601 -0.031187 114 243 24
0.646235 -0.067922 0.007850 114 243 24
0.639138 -0.067176 0.046353 114 243 24
0.622372 -0.065414 0.081696 114 243 24
0.597081 -0.062756 0.111472 114 243 24
0.564986 -0.059382 0.133651 114 243 24
0.528277 -0.055524 0.146722 114 243 24
0.489454 -0.051444 0.149794 114 243 24
0.451162 -0.047419 0.142658 114 243 24
0.416013 -0.043725 0.125801 114 243 24
0.386400 -0.040612 0.100370 114 243 24
0.364342 -0.038294 0.068099 114 243 24
0.351343 -0.036928 0.031187 114 243 24
0.348287 -0.036606 -0.007850 114 243 24
0.355384 -0.037352 -0.046353 114 243 24
0.372150 -0.039114 -0.081696 114 243 24
0.397441 -0.041773 -0.111472 114 243 24
0.429535 -0.045146 -0.133651 114 243 24
0.466245 -0.049004 -0.146722 114 243 24
0.505068 -0.053085 -0.149794 114 243 24
0.543360 -0.057109 -0.142658 114 243 24
0.578509 -0.060804 -0.125801 114 243 24
0.608122 -0.063916 -0.100370 114 243 24
0.630180 -0.066235 -0.068099 114 243 24
3 0 24 25
3 0 25 1
3 1 25 26
3 1 26 2
3 2 26 27
3 2 27 3
3 3 27 28
3 3 28 4
3 4 28 29
3 4 29 5
3 5 29 30
3 5 30 6
3 6 30 31
3 6 31 7
3 7 31 32
3 7 32 8
3 8 32 33
3 8 33 9
3 9 33 34
3 9 34 10
3 10 34 35
3 10 35 11
3 11 35 36
3 11 36 12
3 12 36 37
3 12 37 13
3 13 37 38
3 13 38 14
3 14 38 39
3 14 39 15
3 15 39 40
3 15 40 16
3 16 40 41
3 16 41 17
3 17 41 42
3 17 42 18
3 18 42 43
3 18 43 19
3 19 43 44
3 19 44 20
3 20 44 45
3 20 45 21
3 21 45 46
3 21 46 22
3 22 46 47
3 22 47 23
3 23 47 24
3 23 24 0
3 24 48 49
3 24 49 25
3 25 49 50
3 25 50 26
3 26 50 51
3 26 51 27
3 27 51 52
3 27 52 28
3 28 52 53
3 28 53 29
3 29 53 54
3 29 54 30
3 30 54 55
3 30 55 31
3 31 55 56
3 31 56 32
3 32 56 57
3 32 57 33
3 33 57 58
3 33 58 34
3 34 58 59
3 34 59 35
3 35 59 60
3 35 60 36
3 36 60 61
3 36 61 37
3 37 61 62
3 37 62 38
3 38 62 63
3 38 63 39
3 39 63 64
3 39 64 40
3 40 64 65
3 40 65 41
3 41 65 66
3 41 66 42
3 42 66 67
3 42 67 43
3 43 67 68
3 43 68 44
3 44 68 69
3 44 69 45
3 45 69 70
3 45 70 46
3 46 70 71
3 46 71 47
3 47 71 48
3 47 48 24
3 48 72 73
3 48 73 49
3 49 73 74
3 49 74 50
3 50 74 75
3 50 75 51
3 51 75 76
3 51 76 52
3 52 76 77
3 52 77 53
3 53 77 78
3 53 78 54
3 54 78 79
3 54 79 55
3 55 79 80
3 55 80 56
3 56 80 81
3 56 81 57
3 57 81 82
3 57 82 58
3 58 82 83
3 58 83 59
3 59 83 84
3 59 84 60
3 60 84 85
3 60 85 61
3 61 85 86
3 61 86 62
3 62 86 87
3 62 87 63
3 63 87 88
3 63 88 64
3 64 88 89
3 64 89 65
3 65 89 90
3 65 90 66
3 66 90 91
3 66 91 67
3 67 91 92
3 67 92 68
3 68 92 93
3 68 93 69
3 69 93 94
3 69 94 70
3 70 94 95
3 70 95 71
3 71 95 72
3 71 72 48
3 72 96 97
3 72 97 73
3 73 97 98
3 73 98 74
3 74 98 99
3 74 99 75
3 75 99 100
3 75 100 76
3 76 100 101
3 76 101 77
3 77 101 102
3 77 102 78
3 78 102 103
3 78 103 79
3 79 103 104
3 79 104 80
3 80 104 105
3 80 105 81
3 81 105 106
3 81 106 82
3 82 106 107
3 82 107 83
3 83 107 108
3 83 108 84
3 84 108 109
3 84 109 85
3 85 109 110
3 85 110 86
3 86 110 111
3 86 111 87
3 87 111 112
3 87 112 88
3 88 112 113
3 88 113 89
3 89 113 114
3 89 114 90
3 90 114 115
3 90 115 91
3 91 115 116
3 91 116 92
3 92 116 117
3 92 117 93
3 93 117 118
3 93 118 94
3 94 118 119
3 94 119 95
3 95 119 96
3 95 96 72
3 96 120 121
3 96 121 97
3 97 121 122
3 97 122 98
3 98 122 123
3 98 123 99
3 99 123 124
3 99 124 100
3 100 124 125
3 100 125 101
3 101 125 126
3 101 126 102
3 102 126 127
3 102 127 103
3 103 127 128
3 103 128 104
3 104 128 129
3 104 129 105
3 105 129 130
3 105 130 106
3 106 130 131
3 106 131 107
3 107 131 132
3 107 132 108
3 108 132 133
3 108 133 109
3 109 133 134
3 109 134 110
3 110 134 135
3 110 135 111
3 111 135 136
3 111 136 112
3 112 136 137
3 112 137 113
3 113 137 138
3 113 138 114
3 114 138 139
3 114 139 115
3 115 139 140
3 115 140 116
3 116 140 141
3 116 141 117
3 117 141 142
3 117 142 118
3 118 142 143
3 118 143 119
3 119 143 120
3 119 120 96
3 120 144 145
3 120 145 121
3 121 145 146
3 121 146 122
3 122 146 147
3 122 147 123
3 123 147 148
3 123 148 124
3 124 148 149
3 124 149 125
3 125 149 150
3 125 150 126
3 126 150 151
3 126 151 127
3 127 151 152
3 127 152 128
3 128 152 153
3 128 153 129
3 129 153 154
3 129 154 130
3 130 154 155
3 130 155 131
3 131 155 156
3 131 156 132
3 132 156 157
3 132 157 133
3 133 157 158
3 133 158 134
3 134 158 159
3 134 159 135
3 135 159 160
3 135 160 136
3 136 160 161
3 136 161 137
3 137 161 162
3 137 162 138
3 138 162 163
3 138 163 139
3 139 163 164
3 139 164 140
3 140 164 165
3 140 165 141
3 141 165 166
3 141 166 142
3 142 166 167
3 142 167 143
3 143 167 144
3 143 144 120
3 144 168 169
3 144 169 145
3 145 169 170
3 145 170 146
3 146 170 171
3 146 171 147
3 147 171 172
3 147 172 148
3 148 172 173
3 148 173 149
3 149 173 174
3 149 174 150
3 150 174 175
3 150 175 151
3 151 175 176
3 151 176 152
3 152 176 177
3 152 177 153
3 153 177 178
3 153 178 154
3 154 178 179
3 154 179 155
3 155 179 180
3 155 180 156
3 156 180 181
3 156 181 157
3 157 181 182
3 157 182 158
3 158 182 183
3 158 183 159
3 159 183 184
3 159 184 160
3 160 184 185
3 160 185 161
3 161 185 186
3 161 186 162
3 162 186 187
3 162 187 163
3 163 187 188
3 163 188 164
3 164 188 189
3 164 189 165
3 165 189 190
3 165 190 166
3 166 190 191
3 166 191 167
3 167 191 168
3 167 168 144
3 168 192 193
3 168 193 169
3 169 193 194
3 169 194 170
3 170 194 195
3 170 195 171
3 171 195 196
3 171 196 172
3 172 196 197
3 172 197 173
3 173 197 198
3 173 198 174
3 174 198 199
3 174 199 175
3 175 199 200
3 175 200 176
3 176 200 201
3 176 201 177
3 177 201 202
3 177 202 178
3 178 202 203
3 178 203 179
3 179 203 204
3 179 204 180
3 180 204 205
3 180 205 181
3 181 205 206
3 181 206 182
3 182 206 207
3 182 207 183
3 183 207 208
3 183 208 184
3 184 208 209
3 184 209 185
3 185 209 210
3 185 210 186
3 186 210 211
3 186 211 187
3 187 211 212
3 187 212 188
3 188 212 213
3 188 213 189
3 189 213 214
3 189 214 190
3 190 214 215
3 190 215 191
3 191 215 192
3 191 192 168
3 192 216 217
3 192 217 193
3 193 217 218
3 193 218 194
3 194 218 219
3 194 219 195
3 195 219 220
3 195 220 196
3 196 220 221
3 196 221 197
3 197 221 222
3 197 222 198
3 198 222 223
3 198 223 199
3 199 223 224
3 199 224 200
3 200 224 225
3 200 225 201
3 201 225 226
3 201 226 202
3 202 226 227
3 202 227 203
3 203 227 228
3 203 228 204
3 204 228 229
3 204 229 205
3 205 229 230
3 205 230 206
3 206 230 231
3 206 231 207
3 207 231 232
3 207 232 208
3 208 232 233
3 208 233 209
3 209 233 234
3 209 234 210
3 210 234 235
3 210 235 211
3 211 235 236
3 211 236 212
3 212 236 237
3 212 237 213
3 213 237 238
3 213 238 214
3 214 238 239
3 214 239 215
3 215 239 216
3 215 216 192
3 216 240 241
3 216 241 217
3 217 241 242
3 217 242 218
3 218 242 243
3 218 243 219
3 219 243 244
3 219 244 220
3 220 244 245
3 220 245 221
3 221 245 246
3 221 246 222
3 222 246 247
3 222 247 223
3 223 247 248
3 223 248 224
3 224 248 249
3 224 249 225
3 225 249 250
3 225 250 226
3 226 250 251
3 226 251 227
3 227 251 252
3 227 252 228
3 228 252 253
3 228 253 229
3 229 253 254
3 229 254 230
3 230 254 255
3 230 255 231
3 231 255 256
3 231 256 232
3 232 256 257
3 232 257 233
3 233 257 258
3 233 258 234
3 234 258 259
3 234 259 235
3 235 259 260
3 235 260 236
3 236 260 261
3 236 261 237
3 237 261 262
3 237 262 238
3 238 262 263
3 238 263 239
3 239 263 240
3 239 240 216
3 240 264 265
3 240 265 241
3 241 265 266
3 241 266 242
3 242 266 267
3 242 267 243
3 243 267 268
3 243 268 244
3 244 268 269
3 244 269 245
3 245 269 270
3 245 270 246
3 246 270 271
3 246 271 247
3 247 271 272
3 247 272 248
3 248 272 273
3 248 273 249
3 249 273 274
3 249 274 250
3 250 274 275
3 250 275 251
3 251 275 276
3 251 276 252
3 252 276 277
3 252 277 253
3 253 277 278
3 253 278 254
3 254 278 279
3 254 279 255
3 255 279 280
3 255 280 256
3 256 280 281
3 256 281 257
3 257 281 282
3 257 282 258
3 258 282 283
3 258 283 259
3 259 283 284
3 259 284 260
3 260 284 285
3 260 285 261
3 261 285 286
3 261 286 262
3 262 286 287
3 262 287 263
3 263 287 264
3 263 264 240
3 264 288 289
3 264 289 265
3 265 289 290
3 265 290 266
3 266 290 291
3 266 291 267
3 267 291 292
3 267 292 268
3 268 292 293
3 268 293 269
3 269 293 294
3 269 294 270
3 270 294 295
3 270 295 271
3 271 295 296
3 271 296 272
3 272 296 297
3 272 297 273
3 273 297 298
3 273 298 274
3 274 298 299
3 274 299 275
3 275 299 300
3 275 300 276
3 276 300 301
3 276 301 277
3 277 301 302
3 277 302 278
3 278 302 303
3 278 303 279
3 279 303 304
3 279 304 280
3 280 304 305
3 280 305 281
3 281 305 306
3 281 306 282
3 282 306 307
3 282 307 283
3 283 307 308
3 283 308 284
3 284 308 309
3 284 309 285
3 285 309 310
3 285 310 286
3 286 310 311
3 286 311 287
3 287 311 288
3 287 288 264
3 288 312 313
3 288 313 289
3 289 313 314
3 289 314 290
3 290 314 315
3 290 315 291
3 291 315 316
3 291 316 292
3 292 316 317
3 292 317 293
3 293 317 318
3 293 318 294
3 294 318 319
3 294 319 295
3 295 319 320
3 295 320 296
3 296 320 321
3 296 321 297
3 297 321 322
3 297 322 298
3 298 322 323
3 298 323 299
3 299 323 324
3 299 324 300
3 300 324 325
3 300 325 301
3 301 325 326
3 301 326 302
3 302 326 327
3 302 327 303
3 303 327 328
3 303 328 304
3 304 328 329
3 304 329 305
3 305 329 330
3 305 330 306
3 306 330 331
3 306 331 307
3 307 331 332
3 307 332 308
3 308 332 333
3 308 333 309
3 309 333 334
3 309 334 310
3 310 334 335
3 310 335 311
3 311 335 312
3 311 312 288
3 312 336 337
3 312 337 313
3 313 337 338
3 313 338 314
3 314 338 339
3 314 339 315
3 315 339 340
3 315 340 316
3 316 340 341
3 316 341 317
3 317 341 342
3 317 342 318
3 318 342 343
3 318 343 319
3 319 343 344
3 319 344 320
3 320 344 345
3 320 345 321
3 321 345 346
3 321 346 322
3 322 346 347
3 322 347 323
3 323 347 348
3 323 348 324
3 324 348 349
3 324 349 325
3 325 349 350
3 325 350 326
3 326 350 351
3 326 351 327
3 327 351 352
3 327 352 328
3 328 352 353
3 328 353 329
3 329 353 354
3 329 354 330
3 330 354 355
3 330 355 331
3 331 355 356
3 331 356 332
3 332 356 357
3 332 357 333
3 333 357 358
3 333 358 334
3 334 358 359
3 334 359 335
3 335 359 336
3 335 336 312
3 336 360 361
3 336 361 337
3 337 361 362
3 337 362 338
3 338 362 363
3 338 363 339
3 339 363 364
3 339 364 340
3 340 364 365
3 340 365 341
3 341 365 366
3 341 366 342
3 342 366 367
3 342 367 343
3 343 367 368
3 343 368 344
3 344 368 369
3 344 369 345
3 345 369 370
3 345 370 346
3 346 370 371
3 346 371 347
3 347 371 372
3 347 372 348
3 348 372 373
3 348 373 349
3 349 373 374
3 349 374 350
3 350 374 375
3 350 375 351
3 351 375 376
3 351 376 352
3 352 376 377
3 352 377 353
3 353 377 378
3 353 378 354
3 354 378 379
3 354 379 355
3 355 379 380
3 355 380 356
3 356 380 381
3 356 381 357
3 357 381 382
3 357 382 358
3 358 382 383
3 358 383 359
3 359 383 360
3 359 360 336
3 360 384 385
3 360 385 361
3 361 385 386
3 361 386 362
3 362 386 387
3 362 387 363
3 363 387 388
3 363 388 364
3 364 388 389
3 364 389 365
3 365 389 390
3 365 390 366
3 366 390 391
3 366 391 367
3 367 391 392
3 367 392 368
3 368 392 393
3 368 393 369
3 369 393 394
3 369 394 370
3 370 394 395
3 370 395 371
3 371 395 396
3 371 396 372
3 372 396 397
3 372 397 373
3 373 397 398
3 373 398 374
3 374 398 399
3 374 399 375
3 375 399 400
3 375 400 376
3 376 400 401
3 376 401 377
3 377 401 402
3 377 402 378
3 378 402 403
3 378 403 379
3 379 403 404
3 379 404 380
3 380 404 405
3 380 405 381
3 381 405 406
3 381 406 382
3 382 406 407
3 382 407 383
3 383 407 384
3 383 384 360
3 384 408 409
3 384 409 385
3 385 409 410
3 385 410 386
3 386 410 411
3 386 411 387
3 387 411 412
3 387 412 388
3 388 412 413
3 388 413 389
3 389 413 414
3 389 414 390
3 390 414 415
3 390 415 391
3 391 415 416
3 391 416 392
3 392 416 417
3 392 417 393
3 393 417 418
3 393 418 394
3 394 418 419
3 394 419 395
3 395 419 420
3 395 420 396
3 396 420 421
3 396 421 397
3 397 421 422
3 397 422 398
3 398 422 423
3 398 423 399
3 399 423 424
3 399 424 400
3 400 424 425
3 400 425 401
3 401 425 426
3 401 426 402
3 402 426 427
3 402 427 403
3 403 427 428
3 403 428 404
3 404 428 429
3 404 429 405
3 405 429 430
3 405 430 406
3 406 430 431
3 406 431 407
3 407 431 408
3 407 408 384
3 408 432 433
3 408 433 409
3 409 433 434
3 409 434 410
3 410 434 435
3 410 435 411
3 411 435 436
3 411 436 412
3 412 436 437
3 412 437 413
3 413 437 438
3 413 438 414
3 414 438 439
3 414 439 415
3 415 439 440
3 415 440 416
3 416 440 441
3 416 441 417
3 417 441 442
3 417 442 418
3 418 442 443
3 418 443 419
3 419 443 444
3 419 444 420
3 420 444 445
3 420 445 421
3 421 445 446
3 421 446 422
3 422 446 447
3 422 447 423
3 423 447 448
3 423 448 424
3 424 448 449
3 424 449 425
3 425 449 450
3 425 450 426
3 426 450 451
3 426 451 427
3 427 451 452
3 427 452 428
3 428 452 453
3 428 453 429
3 429 453 454
3 429 454 430
3 430 454 455
3 430 455 431
3 431 455 432
3 431 432 408
3 432 456 457
3 432 457 433
3 433 457 458
3 433 458 434
3 434 458 459
3 434 459 435
3 435 459 460
3 435 460 436
3 436 460 461
3 436 461 437
3 437 461 462
3 437 462 438
3 438 462 463
3 438 463 439
3 439 463 464
3 439 464 440
3 440 464 465
3 440 465 441
3 441 465 466
3 441 466 442
3 442 466 467
3 442 467 443
3 443 467 468
3 443 468 444
3 444 468 469
3 444 469 445
3 445 469 470
3 445 470 446
3 446 470 471
3 446 471 447
3 447 471 472
3 447 472 448
3 448 472 473
3 448 473 449
3 449 473 474
3 449 474 450
3 450 474 475
3 450 475 451
3 451 475 476
3 451 476 452
3 452 476 477
3 452 477 453
3 453 477 478
3 453 478 454
3 454 478 479
3 454 479 455
3 455 479 456
3 455 456 432
3 456 480 481
3 456 481 457
3 457 481 482
3 457 482 458
3 458 482 483
3 458 483 459
3 459 483 484
3 459 484 460
3 460 484 485
3 460 485 461
3 461 485 486
3 461 486 462
3 462 486 487
3 462 487 463
3 463 487 488
3 463 488 464
3 464 488 489
3 464 489 465
3 465 489 490
3 465 490 466
3 466 490 491
3 466 491 467
3 467 491 492
3 467 492 468
3 468 492 493
3 468 493 469
3 469 493 494
3 469 494 470
3 470 494 495
3 470 495 471
3 471 495 496
3 471 496 472
3 472 496 497
3 472 497 473
3 473 497 498
3 473 498 474
3 474 498 499
3 474 499 475
3 475 499 500
3 475 500 476
3 476 500 501
3 476 501 477
3 477 501 502
3 477 502 478
3 478 502 503
3 478 503 479
3 479 503 480
3 479 480 456
3 480 504 505
3 480 505 481
3 481 505 506
3 481 506 482
3 482 506 507
3 482 507 483
3 483 507 508
3 483 508 484
3 484 508 509
3 484 509 485
3 485 509 510
3 485 510 486
3 486 510 511
3 486 511 487
3 487 511 512
3 487 512 488
3 488 512 513
3 488 513 489
3 489 513 514
3 489 514 490
3 490 514 515
3 490 515 491
3 491 515 516
3 491 516 492
3 492 516 517
3 492 517 493
3 493 517 518
3 493 518 494
3 494 518 519
3 494 519 495
3 495 519 520
3 495 520 496
3 496 520 521
3 496 521 497
3 497 521 522
3 497 522 498
3 498 522 523
3 498 523 499
3 499 523 524
3 499 524 500
3 500 524 525
3 500 525 501
3 501 525 526
3 501 526 502
3 502 526 527
3 502 527 503
3 503 527 504
3 503 504 480
3 504 528 529
3 504 529 505
3 505 529 530
3 505 530 506
3 506 530 531
3 506 531 507
3 507 531 532
3 507 532 508
3 508 532 533
3 508 533 509
3 509 533 534
3 509 534 510
3 510 534 535
3 510 535 511
3 511 535 536
3 511 536 512
3 512 536 537
3 512 537 513
3 513 537 538
3 513 538 514
3 514 538 539
3 514 539 515
3 515 539 540
3 515 540 516
3 516 540 541
3 516 541 517
3 517 541 542
3 517 542 518
3 518 542 543
3 518 543 519
3 519 543 544
3 519 544 520
3 520 544 545
3 520 545 521
3 521 545 546
3 521 546 522
3 522 546 547
3 522 547 523
3 523 547 548
3 523 548 524
3 524 548 549
3 524 549 525
3 525 549 550
3 525 550 526
3 526 550 551
3 526 551 527
3 527 551 528
3 527 528 504
3 528 552 553
3 528 553 529
3 529 553 554
3 529 554 530
3 530 554 555
3 530 555 531
3 531 555 556
3 531 556 532
3 532 556 557
3 532 557 533
3 533 557 558
3 533 558 534
3 534 558 559
3 534 559 535
3 535 559 560
3 535 560 536
3 536 560 561
3 536 561 537
3 537 561 562
3 537 562 538
3 538 562 563
3 538 563 539
3 539 563 564
3 539 564 540
3 540 564 565
3 540 565 541
3 541 565 566
3 541 566 542
3 542 566 567
3 542 567 543
3 543 567 568
3 543 568 544
3 544 568 569
3 544 569 545
3 545 569 570
3 545 570 546
3 546 570 571
3 546 571 547
3 547 571 572
3 547 572 548
3 548 572 573
3 548 573 549
3 549 573 574
3 549 574 550
3 550 574 575
3 550 575 551
3 551 575 552
3 551 552 528
3 552 576 577
3 552 577 553
3 553 577 578
3 553 578 554
3 554 578 579
3 554 579 555
3 555 579 580
3 555 580 556
3 556 580 581
3 556 581 557
3 557 581 582
3 557 582 558
3 558 582 583
3 558 583 559
3 559 583 584
3 559 584 560
3 560 584 585
3 560 585 561
3 561 585 586
3 561 586 562
3 562 586 587
3 562 587 563
3 563 587 588
3 563 588 564
3 564 588 589
3 564 589 565
3 565 589 590
3 565 590 566
3 566 590 591
3 566 591 567
3 567 591 592
3 567 592 568
3 568 592 593
3 568 593 569
3 569 593 594
3 569 594 570
3 570 594 595
3 570 595 571
3 571 595 596
3 571 596 572
3 572 596 597
3 572 597 573
3 573 597 598
3 573 598 574
3 574 598 599
3 574 599 575
3 575 599 576
3 575 576 552
3 576 600 601
3 576 601 577
3 577 601 602
3 577 602 578
3 578 602 603
3 578 603 579
3 579 603 604
3 579 604 580
3 580 604 605
3 580 605 581
3 581 605 606
3 581 606 582
3 582 606 607
3 582 607 583
3 583 607 608
3 583 608 584
3 584 608 609
3 584 609 585
3 585 609 610
3 585 610 586
3 586 610 611
3 586 611 587
3 587 611 612
3 587 612 588
3 588 612 613
3 588 613 589
3 589 613 614
3 589 614 590
3 590 614 615
3 590 615 591
3 591 615 616
3 591 616 592
3 592 616 617
3 592 617 593
3 593 617 618
3 593 618 594
3 594 618 619
3 594 619 595
3 595 619 620
3 595 620 596
3 596 620 621
3 596 621 597
3 597 621 622
3 597 622 598
3 598 622 623
3 598 623 599
3 599 623 600
3 599 600 576
3 600 624 625
3 600 625 601
3 601 625 626
3 601 626 602
3 602 626 627
3 602 627 603
3 603 627 628
3 603 628 604
3 604 628 629
3 604 629 605
3 605 629 630
3 605 630 606
3 606 630 631
3 606 631 607
3 607 631 632
3 607 632 608
3 608 632 633
3 608 633 609
3 609 633 634
3 609 634 610
3 610 634 635
3 610 635 611
3 611 635 636
3 611 636 612
3 612 636 637
3 612 637 613
3 613 637 638
3 613 638 614
3 614 638 639
3 614 639 615
3 615 639 640
3 615 640 616
3 616 640 641
3 616 641 617
3 617 641 642
3 617 642 618
3 618 642 643
3 618 643 619
3 619 643 644
3 619 644 620
3 620 644 645
3 620 645 621
3 621 645 646
3 621 646 622
3 622 646 647
3 622 647 623
3 623 647 624
3 623 624 600
3 624 648 649
3 624 649 625
3 625 649 650
3 625 650 626
3 626 650 651
3 626 651 627
3 627 651 652
3 627 652 628
3 628 652 653
3 628 653 629
3 629 653 654
3 629 654 630
3 630 654 655
3 630 655 631
3 631 655 656
3 631 656 632
3 632 656 657
3 632 657 633
3 633 657 658
3 633 658 634
3 634 658 659
3 634 659 635
3 635 659 660
3 635 660 636
3 636 660 661
3 636 661 637
3 637 661 662
3 637 662 638
3 638 662 663
3 638 663 639
3 639 663 664
3 639 664 640
3 640 664 665
3 640 665 641
3 641 665 666
3 641 666 642
3 642 666 667
3 642 667 643
3 643 667 668
3 643 668 644
3 644 668 669
3 644 669 645
3 645 669 670
3 645 670 646
3 646 670 671
3 646 671 647
3 647 671 648
3 647 648 624
3 648 672 673
3 648 673 649
3 649 673 674
3 649 674 650
3 650 674 675
3 650 675 651
3 651 675 676
3 651 676 652
3 652 676 677
3 652 677 653
3 653 677 678
3 653 678 654
3 654 678 679
3 654 679 655
3 655 679 680
3 655 680 656
3 656 680 681
3 656 681 657
3 657 681 682
3 657 682 658
3 658 682 683
3 658 683 659
3 659 683 684
3 659 684 660
3 660 684 685
3 660 685 661
3 661 685 686
3 661 686 662
3 662 686 687
3 662 687 663
3 663 687 688
3 663 688 664
3 664 688 689
3 664 689 665
3 665 689 690
3 665 690 666
3 666 690 691
3 666 691 667
3 667 691 692
3 667 692 668
3 668 692 693
3 668 693 669
3 669 693 694
3 669 694 670
3 670 694 695
3 670 695 671
3 671 695 672
3 671 672 648
3 672 696 697
3 672 697 673
3 673 697 698
3 673 698 674
3 674 698 699
3 674 699 675
3 675 699 700
3 675 700 676
3 676 700 701
3 676 701 677
3 677 701 702
3 677 702 678
3 678 702 703
3 678 703 679
3 679 703 704
3 679 704 680
3 680 704 705
3 680 705 681
3 681 705 706
3 681 706 682
3 682 706 707
3 682 707 683
3 683 707 708
3 683 708 684
3 684 708 709
3 684 709 685
3 685 709 710
3 685 710 686
3 686 710 711
3 686 711 687
3 687 711 712
3 687 712 688
3 688 712 713
3 688 713 689
3 689 713 714
3 689 714 690
3 690 714 715
3 690 715 691
3 691 715 716
3 691 716 692
3 692 716 717
3 692 717 693
3 693 717 718
3 693 718 694
3 694 718 719
3 694 719 695
3 695 719 696
3 695 696 672
3 696 720 721
3 696 721 697
3 697 721 722
3 697 722 698
3 698 722 723
3 698 723 699
3 699 723 724
3 699 724 700
3 700 724 725
3 700 725 701
3 701 725 726
3 701 726 702
3 702 726 727
3 702 727 703
3 703 727 728
3 703 728 704
3 704 728 729
3 704 729 705
3 705 729 730
3 705 730 706
3 706 730 731
3 706 731 707
3 707 731 732
3 707 732 708
3 708 732 733
3 708 733 709
3 709 733 734
3 709 734 710
3 710 734 735
3 710 735 711
3 711 735 736
3 711 736 712
3 712 736 737
3 712 737 713
3 713 737 738
3 713 738 714
3 714 738 739
3 714 739 715
3 715 739 740
3 715 740 716
3 716 740 741
3 716 741 717
3 717 741 742
3 717 742 718
3 718 742 743
3 718 743 719
3 719 743 720
3 719 720 696
3 720 744 745
3 720 745 721
3 721 745 746
3 721 746 722
3 722 746 747
3 722 747 723
3 723 747 748
3 723 748 724
3 724 748 749
3 724 749 725
3 725 749 750
3 725 750 726
3 726 750 751
3 726 751 727
3 727 751 752
3 727 752 728
3 728 752 753
3 728 753 729
3 729 753 754
3 729 754 730
3 730 754 755
3 730 755 731
3 731 755 756
3 731 756 732
3 732 756 757
3 732 757 733
3 733 757 758
3 733 758 734
3 734 758 759
3 734 759 735
3 735 759 760
3 735 760 736
3 736 760 761
3 736 761 737
3 737 761 762
3 737 762 738
3 738 762 763
3 738 763 739
3 739 763 764
3 739 764 740
3 740 764 765
3 740 765 741
3 741 765 766
3 741 766 742
3 742 766 767
3 742 767 743
3 743 767 744
3 743 744 720
3 744 768 769
3 744 769 745
3 745 769 770
3 745 770 746
3 746 770 771
3 746 771 747
3 747 771 772
3 747 772 748
3 748 772 773
3 748 773 749
3 749 773 774
3 749 774 750
3 750 774 775
3 750 775 751
3 751 775 776
3 751 776 752
3 752 776 777
3 752 777 753
3 753 777 778
3 753 778 754
3 754 778 779
3 754 779 755
3 755 779 780
3 755 780 756
3 756 780 781
3 756 781 757
3 757 781 782
3 757 782 758
3 758 782 783
3 758 783 759
3 759 783 784
3 759 784 760
3 760 784 785
3 760 785 761
3 761 785 786
3 761 786 762
3 762 786 787
3 762 787 763
3 763 787 788
3 763 788 764
3 764 788 789
3 764 789 765
3 765 789 790
3 765 790 766
3 766 790 791
3 766 791 767
3 767 791 768
3 767 768 744
3 768 792 793
3 768 793 769
3 769 793 794
3 769 794 770
3 770 794 795
3 770 795 771
3 771 795 796
3 771 796 772
3 772 796 797
3 772 797 773
3 773 797 798
3 773 798 774
3 774 798 799
3 774 799 775
3 775 799 800
3 775 800 776
3 776 800 801
3 776 801 777
3 777 801 802
3 777 802 778
3 778 802 803
3 778 803 779
3 779 803 804
3 779 804 780
3 780 804 805
3 780 805 781
3 781 805 806
3 781 806 782
3 782 806 807
3 782 807 783
3 783 807 808
3 783 808 784
3 784 808 809
3 784 809 785
3 785 809 810
3 785 810 786
3 786 810 811
3 786 811 787
3 787 811 812
3 787 812 788
3 788 812 813
3 788 813 789
3 789 813 814
3 789 814 790
3 790 814 815
3 790 815 791
3 791 815 792
3 791 792 768
3 792 816 817
3 792 817 793
3 793 817 818
3 793 818 794
3 794 818 819
3 794 819 795
3 795 819 820
3 795 820 796
3 796 820 821
3 796 821 797
3 797 821 822
3 797 822 798
3 798 822 823
3 798 823 799
3 799 823 824
3 799 824 800
3 800 824 825
3 800 825 801
3 801 825 826
3 801 826 802
3 802 826 827
3 802 827 803
3 803 827 828
3 803 828 804
3 804 828 829
3 804 829 805
3 805 829 830
3 805 830 806
3 806 830 831
3 806 831 807
3 807 831 832
3 807 832 808
3 808 832 833
3 808 833 809
3 809 833 834
3 809 834 810
3 810 834 835
3 810 835 811
3 811 835 836
3 811 836 812
3 812 836 837
3 812 837 813
3 813 837 838
3 813 838 814
3 814 838 839
3 814 839 815
3 815 839 816
3 815 816 792
3 816 840 841
3 816 841 817
3 817 841 842
3 817 842 818
3 818 842 843
3 818 843 819
3 819 843 844
3 819 844 820
3 820 844 845
3 820 845 821
3 821 845 846
3 821 846 822
3 822 846 847
3 822 847 823
3 823 847 848
3 823 848 824
3 824 848 849
3 824 849 825
3 825 849 850
3 825 850 826
3 826 850 851
3 826 851 827
3 827 851 852
3 827 852 828
3 828 852 853
3 828 853 829
3 829 853 854
3 829 854 830
3 830 854 855
3 830 855 831
3 831 855 856
3 831 856 832
3 832 856 857
3 832 857 833
3 833 857 858
3 833 858 834
3 834 858 859
3 834 859 835
3 835 859 860
3 835 860 836
3 836 860 861
3 836 861 837
3 837 861 862
3 837 862 838
3 838 862 863
3 838 863 839
3 839 863 840
3 839 840 816
3 840 864 865
3 840 865 841
3 841 865 866
3 841 866 842
3 842 866 867
3 842 867 843
3 843 867 868
3 843 868 844
3 844 868 869
3 844 869 845
3 845 869 870
3 845 870 846
3 846 870 871
3 846 871 847
3 847 871 872
3 847 872 848
3 848 872 873
3 848 873 849
3 849 873 874
3 849 874 850
3 850 874 875
3 850 875 851
3 851 875 876
3 851 876 852
3 852 876 877
3 852 877 853
3 853 877 878
3 853 878 854
3 854 878 879
3 854 879 855
3 855 879 880
3 855 880 856
3 856 880 881
3 856 881 857
3 857 881 882
3 857 882 858
3 858 882 883
3 858 883 859
3 859 883 884
3 859 884 860
3 860 884 885
3 860 885 861
3 861 885 886
3 861 886 862
3 862 886 887
3 862 887 863
3 863 887 864
3 863 864 840
3 864 888 889
3 864 889 865
3 865 889 890
3 865 890 866
3 866 890 891
3 866 891 867
3 867 891 892
3 867 892 868
3 868 892 893
3 868 893 869
3 869 893 894
3 869 894 870
3 870 894 895
3 870 895 871
3 871 895 896
3 871 896 872
3 872 896 897
3 872 897 873
3 873 897 898
3 873 898 874
3 874 898 899
3 874 899 875
3 875 899 900
3 875 900 876
3 876 900 901
3 876 901 877
3 877 901 902
3 877 902 878
3 878 902 903
3 878 903 879
3 879 903 904
3 879 904 880
3 880 904 905
3 880 905 881
3 881 905 906
3 881 906 882
3 882 906 907
3 882 907 883
3 883 907 908
3 883 908 884
3 884 908 909
3 884 909 885
3 885 909 910
3 885 910 886
3 886 910 911
3 886 911 887
3 887 911 888
3 887 888 864
3 888 912 913
3 888 913 889
3 889 913 914
3 889 914 890
3 890 914 915
3 890 915 891
3 891 915 916
3 891 916 892
3 892 916 917
3 892 917 893
3 893 917 918
3 893 918 894
3 894 918 919
3 894 919 895
3 895 919 920
3 895 920 896
3 896 920 921
3 896 921 897
3 897 921 922
3 897 922 898
3 898 922 923
3 898 923 899
3 899 923 924
3 899 924 900
3 900 924 925
3 900 925 901
3 901 925 926
3 901 926 902
3 902 926 927
3 902 927 903
3 903 927 928
3 903 928 904
3 904 928 929
3 904 929 905
3 905 929 930
3 905 930 906
3 906 930 931
3 906 931 907
3 907 931 932
3 907 932 908
3 908 932 933
3 908 933 909
3 909 933 934
3 909 934 910
3 910 934 935
3 910 935 911
3 911 935 912
3 911 912 888
3 912 936 937
3 912 937 913
3 913 937 938
3 913 938 914
3 914 938 939
3 914 939 915
3 915 939 940
3 915 940 916
3 916 940 941
3 916 941 917
3 917 941 942
3 917 942 918
3 918 942 943
3 918 943 919
3 919 943 944
3 919 944 920
3 920 944 945
3 920 945 921
3 921 945 946
3 921 946 922
3 922 946 947
3 922 947 923
3 923 947 948
3 923 948 924
3 924 948 949
3 924 949 925
3 925 949 950
3 925 950 926
3 926 950 951
3 926 951 927
3 927 951 952
3 927 952 928
3 928 952 953
3 928 953 929
3 929 953 954
3 929 954 930
3 930 954 955
3 930 955 931
3 931 955 956
3 931 956 932
3 932 956 957
3 932 957 933
3 933 957 958
3 933 958 934
3 934 958 959
3 934 959 935
3 935 959 936
3 935 936 912
3 936 960 961
3 936 961 937
3 937 961 962
3 937 962 938
3 938 962 963
3 938 963 939
3 939 963 964
3 939 964 940
3 940 964 965
3 940 965 941
3 941 965 966
3 941 966 942
3 942 966 967
3 942 967 943
3 943 967 968
3 943 968 944
3 944 968 969
3 944 969 945
3 945 969 970
3 945 970 946
3 946 970 971
3 946 971 947
3 947 971 972
3 947 972 948
3 948 972 973
3 948 973 949
3 949 973 974
3 949 974 950
3 950 974 975
3 950 975 951
3 951 975 976
3 951 976 952
3 952 976 977
3 952 977 953
3 953 977 978
3 953 978 954
3 954 978 979
3 954 979 955
3 955 979 980
3 955 980 956
3 956 980 981
3 956 981 957
3 957 981 982
3 957 982 958
3 958 982 983
3 958 983 959
3 959 983 960
3 959 960 936
3 960 984 985
3 960 985 961
3 961 985 986
3 961 986 962
3 962 986 987
3 962 987 963
3 963 987 988
3 963 988 964
3 964 988 989
3 964 989 965
3 965 989 990
3 965 990 966
3 966 990 991
3 966 991 967
3 967 991 992
3 967 992 968
3 968 992 993
3 968 993 969
3 969 993 994
3 969 994 970
3 970 994 995
3 970 995 971
3 971 995 996
3 971 996 972
3 972 996 997
3 972 997 973
3 973 997 998
3 973 998 974
3 974 998 999
3 974 999 975
3 975 999 1000
3 975 1000 976
3 976 1000 1001
3 976 1001 977
3 977 1001 1002
3 977 1002 978
3 978 1002 1003
3 978 1003 979
3 979 1003 1004
3 979 1004 980
3 980 1004 1005
3 980 1005 981
3 981 1005 1006
3 981 1006 982
3 982 1006 1007
3 982 1007 983
3 983 1007 984
3 983 984 960
3 984 1008 1009
3 984 1009 985
3 985 1009 1010
3 985 1010 986
3 986 1010 1011
3 986 1011 987
3 987 1011 1012
3 987 1012 988
3 988 1012 1013
3 988 1013 989
3 989 1013 1014
3 989 1014 990
3 990 1014 1015
3 990 1015 991
3 991 1015 1016
3 991 1016 992
3 992 1016 1017
3 992 1017 993
3 993 1017 1018
3 993 1018 994
3 994 1018 1019
3 994 1019 995
3 995 1019 1020
3 995 1020 996
3 996 1020 1021
3 996 1021 997
3 997 1021 1022
3 997 1022 998
3 998 1022 1023
3 998 1023 999
3 999 1023 1024
3 999 1024 1000
3 1000 1024 1025
3 1000 1025 1001
3 1001 1025 1026
3 1001 1026 1002
3 1002 1026 1027
3 1002 1027 1003
3 1003 1027 1028
3 1003 1028 1004
3 1004 1028 1029
3 1004 1029 1005
3 1005 1029 1030
3 1005 1030 1006
3 1006 1030 1031
3 1006 1031 1007
3 1007 1031 1008
3 1007 1008 984
3 1008 1032 1033
3 1008 1033 1009
3 1009 1033 1034
3 1009 1034 1010
3 1010 1034 1035
3 1010 1035 1011
3 1011 1035 1036
3 1011 1036 1012
3 1012 1036 1037
3 1012 1037 1013
3 1013 1037 1038
3 1013 1038 1014
3 1014 1038 1039
3 1014 1039 1015
3 1015 1039 1040
3 1015 1040 1016
3 1016 1040 1041
3 1016 1041 1017
3 1017 1041 1042
3 1017 1042 1018
3 1018 1042 1043
3 1018 1043 1019
3 1019 1043 1044
3 1019 1044 1020
3 1020 1044 1045
3 1020 1045 1021
3 1021 1045 1046
3 1021 1046 1022
3 1022 1046 1047
3 1022 1047 1023
3 1023 1047 1048
3 1023 1048 1024
3 1024 1048 1049
3 1024 1049 1025
3 1025 1049 1050
3 1025 1050 1026
3 1026 1050 1051
3 1026 1051 1027
3 1027 1051 1052
3 1027 1052 1028
3 1028 1052 1053
3 1028 1053 1029
3 1029 1053 1054
3 1029 1054 1030
3 1030 1054 1055
3 1030 1055 1031
3 1031 1055 1032
3 1031 1032 1008
3 1032 1056 1057
3 1032 1057 1033
3 1033 1057 1058
3 1033 1058 1034
3 1034 1058 1059
3 1034 1059 1035
3 1035 1059 1060
3 1035 1060 1036
3 1036 1060 1061
3 1036 1061 1037
3 1037 1061 1062
3 1037 1062 1038
3 1038 1062 1063
3 1038 1063 1039
3 1039 1063 1064
3 1039 1064 1040
3 1040 1064 1065
3 1040 1065 1041
3 1041 1065 1066
3 1041 1066 1042
3 1042 1066 1067
3 1042 1067 1043
3 1043 1067 1068
3 1043 1068 1044
3 1044 1068 1069
3 1044 1069 1045
3 1045 1069 1070
3 1045 1070 1046
3 1046 1070 1071
3 1046 1071 1047
3 1047 1071 1072
3 1047 1072 1048
3 1048 1072 1073
3 1048 1073 1049
3 1049 1073 1074
3 1049 1074 1050
3 1050 1074 1075
3 1050 1075 1051
3 1051 1075 1076
3 1051 1076 1052
3 1052 1076 1077
3 1052 1077 1053
3 1053 1077 1078
3 1053 1078 1054
3 1054 1078 1079
3 1054 1079 1055
3 1055 1079 1056
3 1055 1056 1032
3 1056 1080 1081
3 1056 1081 1057
3 1057 1081 1082
3 1057 1082 1058
3 1058 1082 1083
3 1058 1083 1059
3 1059 1083 1084
3 1059 1084 1060
3 1060 1084 1085
3 1060 1085 1061
3 1061 1085 1086
3 1061 1086 1062
3 1062 1086 1087
3 1062 1087 1063
3 1063 1087 1088
3 1063 1088 1064
3 1064 1088 1089
3 1064 1089 1065
3 1065 1089 1090
3 1065 1090 1066
3 1066 1090 1091
3 1066 1091 1067
3 1067 1091 1092
3 1067 1092 1068
3 1068 1092 1093
3 1068 1093 1069
3 1069 1093 1094
3 1069 1094 1070
3 1070 1094 1095
3 1070 1095 1071
3 1071 1095 1096
3 1071 1096 1072
3 1072 1096 1097
3 1072 1097 1073
3 1073 1097 1098
3 1073 1098 1074
3 1074 1098 1099
3 1074 1099 1075
3 1075 1099 1100
3 1075 1100 1076
3 1076 1100 1101
3 1076 1101 1077
3 1077 1101 1102
3 1077 1102 1078
3 1078 1102 1103
3 1078 1103 1079
3 1079 1103 1080
3 1079 1080 1056
3 1080 1104 1105
3 1080 1105 1081
3 1081 1105 1106
3 1081 1106 1082
3 1082 1106 1107
3 1082 1107 1083
3 1083 1107 1108
3 1083 1108 1084
3 1084 1108 1109
3 1084 1109 1085
3 1085 1109 1110
3 1085 1110 1086
3 1086 1110 1111
3 1086 1111 1087
3 1087 1111 1112
3 1087 1112 1088
3 1088 1112 1113
3 1088 1113 1089
3 1089 1113 1114
3 1089 1114 1090
3 1090 1114 1115
3 1090 1115 1091
3 1091 1115 1116
3 1091 1116 1092
3 1092 1116 1117
3 1092 1117 1093
3 1093 1117 1118
3 1093 1118 1094
3 1094 1118 1119
3 1094 1119 1095
3 1095 1119 1120
3 1095 1120 1096
3 1096 1120 1121
3 1096 1121 1097
3 1097 1121 1122
3 1097 1122 1098
3 1098 1122 1123
3 1098 1123 1099
3 1099 1123 1124
3 1099 1124 1100
3 1100 1124 1125
3 1100 1125 1101
3 1101 1125 1126
3 1101 1126 1102
3 1102 1126 1127
3 1102 1127 1103
3 1103 1127 1104
3 1103 1104 1080
3 1104 1128 1129
3 1104 1129 1105
3 1105 1129 1130
3 1105 1130 1106
3 1106 1130 1131
3 1106 1131 1107
3 1107 1131 1132
3 1107 1132 1108
3 1108 1132 1133
3 1108 1133 1109
3 1109 1133 1134
3 1109 1134 1110
3 1110 1134 1135
3 1110 1135 1111
3 1111 1135 1136
3 1111 1136 1112
3 1112 1136 1137
3 1112 1137 1113
3 1113 1137 1138
3 1113 1138 1114
3 1114 1138 1139
3 1114 1139 1115
3 1115 1139 1140
3 1115 1140 1116
3 1116 1140 1141
3 1116 1141 1117
3 1117 1141 1142
3 1117 1142 1118
3 1118 1142 1143
3 1118 1143 1119
3 1119 1143 1144
3 1119 1144 1120
3 1120 1144 1145
3 1120 1145 1121
3 1121 1145 1146
3 1121 1146 1122
3 1122 1146 1147
3 1122 1147 1123
3 1123 1147 1148
3 1123 1148 1124
3 1124 1148 1149
3 1124 1149 1125
3 1125 1149 1150
3 1125 1150 1126
3 1126 1150 1151
3 1126 1151 1127
3 1127 1151 1128
3 1127 1128 1104
3 1128 1152 1153
3 1128 1153 1129
3 1129 1153 1154
3 1129 1154 1130
3 1130 1154 1155
3 1130 1155 1131
3 1131 1155 1156
3 1131 1156 1132
3 1132 1156 1157
3 1132 1157 1133
3 1133 1157 1158
3 1133 1158 1134
3 1134 1158 1159
3 1134 1159 1135
3 1135 1159 1160
3 1135 1160 1136
3 1136 1160 1161
3 1136 1161 1137
3 1137 1161 1162
3 1137 1162 1138
3 1138 1162 1163
3 1138 1163 1139
3 1139 1163 1164
3 1139 1164 1140
3 1140 1164 1165
3 1140 1165 1141
3 1141 1165 1166
3 1141 1166 1142
3 1142 1166 1167
3 1142 1167 1143
3 1143 1167 1168
3 1143 1168 1144
3 1144 1168 1169
3 1144 1169 1145
3 1145 1169 1170
3 1145 1170 1146
3 1146 1170 1171
3 1146 1171 1147
3 1147 1171 1172
3 1147 1172 1148
3 1148 1172 1173
3 1148 1173 1149
3 1149 1173 1174
3 1149 1174 1150
3 1150 1174 1175
3 1150 1175 1151
3 1151 1175 1152
3 1151 1152 1128
3 1152 1176 1177
3 1152 1177 1153
3 1153 1177 1178
3 1153 1178 1154
3 1154 1178 1179
3 1154 1179 1155
3 1155 1179 1180
3 1155 1180 1156
3 1156 1180 1181
3 1156 1181 1157
3 1157 1181 1182
3 1157 1182 1158
3 1158 1182 1183
3 1158 1183 1159
3 1159 1183 1184
3 1159 1184 1160
3 1160 1184 1185
3 1160 1185 1161
3 1161 1185 1186
3 1161 1186 1162
3 1162 1186 1187
3 1162 1187 1163
3 1163 1187 1188
3 1163 1188 1164
3 1164 1188 1189
3 1164 1189 1165
3 1165 1189 1190
3 1165 1190 1166
3 1166 1190 1191
3 1166 1191 1167
3 1167 1191 1192
3 1167 1192 1168
3 1168 1192 1193
3 1168 1193 1169
3 1169 1193 1194
3 1169 1194 1170
3 1170 1194 1195
3 1170 1195 1171
3 1171 1195 1196
3 1171 1196 1172
3 1172 1196 1197
3 1172 1197 1173
3 1173 1197 1198
3 1173 1198 1174
3 1174 1198 1199
3 1174 1199 1175
3 1175 1199 1176
3 1175 1176 1152
3 1176 1200 1201
3 1176 1201 1177
3 1177 1201 1202
3 1177 1202 1178
3 1178 1202 1203
3 1178 1203 1179
3 1179 1203 1204
3 1179 1204 1180
3 1180 1204 1205
3 1180 1205 1181
3 1181 1205 1206
3 1181 1206 1182
3 1182 1206 1207
3 1182 1207 1183
3 1183 1207 1208
3 1183 1208 1184
3 1184 1208 1209
3 1184 1209 1185
3 1185 1209 1210
3 1185 1210 1186
3 1186 1210 1211
3 1186 1211 1187
3 1187 1211 1212
3 1187 1212 1188
3 1188 1212 1213
3 1188 1213 1189
3 1189 1213 1214
3 1189 1214 1190
3 1190 1214 1215
3 1190 1215 1191
3 1191 1215 1216
3 1191 1216 1192
3 1192 1216 1217
3 1192 1217 1193
3 1193 1217 1218
3 1193 1218 1194
3 1194 1218 1219
3 1194 1219 1195
3 1195 1219 1220
3 1195 1220 1196
3 1196 1220 1221
3 1196 1221 1197
3 1197 1221 1222
3 1197 1222 1198
3 1198 1222 1223
3 1198 1223 1199
3 1199 1223 1200
3 1199 1200 1176
3 1200 1224 1225
3 1200 1225 1201
3 1201 1225 1226
3 1201 1226 1202
3 1202 1226 1227
3 1202 1227 1203
3 1203 1227 1228
3 1203 1228 1204
3 1204 1228 1229
3 1204 1229 1205
3 1205 1229 1230
3 1205 1230 1206
3 1206 1230 1231
3 1206 1231 1207
3 1207 1231 1232
3 1207 1232 1208
3 1208 1232 1233
3 1208 1233 1209
3 1209 1233 1234
3 1209 1234 1210
3 1210 1234 1235
3 1210 1235 1211
3 1211 1235 1236
3 1211 1236 1212
3 1212 1236 1237
3 1212 1237 1213
3 1213 1237 1238
3 1213 1238 1214
3 1214 1238 1239
3 1214 1239 1215
3 1215 1239 1240
3 1215 1240 1216
3 1216 1240 1241
3 1216 1241 1217
3 1217 1241 1242
3 1217 1242 1218
3 1218 1242 1243
3 1218 1243 1219
3 1219 1243 1244
3 1219 1244 1220
3 1220 1244 1245
3 1220 1245 1221
3 1221 1245 1246
3 1221 1246 1222
3 1222 1246 1247
3 1222 1247 1223
3 1223 1247 1224
3 1223 1224 1200
3 1224 1248 1249
3 1224 1249 1225
3 1225 1249 1250
3 1225 1250 1226
3 1226 1250 1251
3 1226 1251 1227
3 1227 1251 1252
3 1227 1252 1228
3 1228 1252 1253
3 1228 1253 1229
3 1229 1253 1254
3 1229 1254 1230
3 1230 1254 1255
3 1230 1255 1231
3 1231 1255 1256
3 1231 1256 1232
3 1232 1256 1257
3 1232 1257 1233
3 1233 1257 1258
3 1233 1258 1234
3 1234 1258 1259
3 1234 1259 1235
3 1235 1259 1260
3 1235 1260 1236
3 1236 1260 1261
3 1236 1261 1237
3 1237 1261 1262
3 1237 1262 1238
3 1238 1262 1263
3 1238 1263 1239
3 1239 1263 1264
3 1239 1264 1240
3 1240 1264 1265
3 1240 1265 1241
3 1241 1265 1266
3 1241 1266 1242
3 1242 1266 1267
3 1242 1267 1243
3 1243 1267 1268
3 1243 1268 1244
3 1244 1268 1269
3 1244 1269 1245
3 1245 1269 1270
3 1245 1270 1246
3 1246 1270 1271
3 1246 1271 1247
3 1247 1271 1248
3 1247 1248 1224
3 1248 1272 1273
3 1248 1273 1249
3 1249 1273 1274
3 1249 1274 1250
3 1250 1274 1275
3 1250 1275 1251
3 1251 1275 1276
3 1251 1276 1252
3 1252 1276 1277
3 1252 1277 1253
3 1253 1277 1278
3 1253 1278 1254
3 1254 1278 1279
3 1254 1279 1255
3 1255 1279 1280
3 1255 1280 1256
3 1256 1280 1281
3 1256 1281 1257
3 1257 1281 1282
3 1257 1282 1258
3 1258 1282 1283
3 1258 1283 1259
3 1259 1283 1284
3 1259 1284 1260
3 1260 1284 1285
3 1260 1285 1261
3 1261 1285 1286
3 1261 1286 1262
3 1262 1286 1287
3 1262 1287 1263
3 1263 1287 1288
3 1263 1288 1264
3 1264 1288 1289
3 1264 1289 1265
3 1265 1289 1290
3 1265 1290 1266
3 1266 1290 1291
3 1266 1291 1267
3 1267 1291 1292
3 1267 1292 1268
3 1268 1292 1293
3 1268 1293 1269
3 1269 1293 1294
3 1269 1294 1270
3 1270 1294 1295
3 1270 1295 1271
3 1271 1295 1272
3 1271 1272 1248
3 1272 1296 1297
3 1272 1297 1273
3 1273 1297 1298
3 1273 1298 1274
3 1274 1298 1299
3 1274 1299 1275
3 1275 1299 1300
3 1275 1300 1276
3 1276 1300 1301
3 1276 1301 1277
3 1277 1301 1302
3 1277 1302 1278
3 1278 1302 1303
3 1278 1303 1279
3 1279 1303 1304
3 1279 1304 1280
3 1280 1304 1305
3 1280 1305 1281
3 1281 1305 1306
3 1281 1306 1282
3 1282 1306 1307
3 1282 1307 1283
3 1283 1307 1308
3 1283 1308 1284
3 1284 1308 1309
3 1284 1309 1285
3 1285 1309 1310
3 1285 1310 1286
3 1286 1310 1311
3 1286 1311 1287
3 1287 1311 1312
3 1287 1312 1288
3 1288 1312 1313
3 1288 1313 1289
3 1289 1313 1314
3 1289 1314 1290
3 1290 1314 1315
3 1290 1315 1291
3 1291 1315 1316
3 1291 1316 1292
3 1292 1316 1317
3 1292 1317 1293
3 1293 1317 1318
3 1293 1318 1294
3 1294 1318 1319
3 1294 1319 1295
3 1295 1319 1296
3 1295 1296 1272
3 1296 1320 1321
3 1296 1321 1297
3 1297 1321 1322
3 1297 1322 1298
3 1298 1322 1323
3 1298 1323 1299
3 1299 1323 1324
3 1299 1324 1300
3 1300 1324 1325
3 1300 1325 1301
3 1301 1325 1326
3 1301 1326 1302
3 1302 1326 1327
3 1302 1327 1303
3 1303 1327 1328
3 1303 1328 1304
3 1304 1328 1329
3 1304 1329 1305
3 1305 1329 1330
3 1305 1330 1306
3 1306 1330 1331
3 1306 1331 1307
3 1307 1331 1332
3 1307 1332 1308
3 1308 1332 1333
3 1308 1333 1309
3 1309 1333 1334
3 1309 1334 1310
3 1310 1334 1335
3 1310 1335 1311
3 1311 1335 1336
3 1311 1336 1312
3 1312 1336 1337
3 1312 1337 1313
3 1313 1337 1338
3 1313 1338 1314
3 1314 1338 1339
3 1314 1339 1315
3 1315 1339 1340
3 1315 1340 1316
3 1316 1340 1341
3 1316 1341 1317
3 1317 1341 1342
3 1317 1342 1318
3 1318 1342 1343
3 1318 1343 1319
3 1319 1343 1320
3 1319 1320 1296
3 1320 1344 1345
3 1320 1345 1321
3 1321 1345 1346
3 1321 1346 1322
3 1322 1346 1347
3 1322 1347 1323
3 1323 1347 1348
3 1323 1348 1324
3 1324 1348 1349
3 1324 1349 1325
3 1325 1349 1350
3 1325 1350 1326
3 1326 1350 1351
3 1326 1351 1327
3 1327 1351 1352
3 1327 1352 1328
3 1328 1352 1353
3 1328 1353 1329
3 1329 1353 1354
3 1329 1354 1330
3 1330 1354 1355
3 1330 1355 1331
3 1331 1355 1356
3 1331 1356 1332
3 1332 1356 1357
3 1332 1357 1333
3 1333 1357 1358
3 1333 1358 1334
3 1334 1358 1359
3 1334 1359 1335
3 1335 1359 1360
3 1335 1360 1336
3 1336 1360 1361
3 1336 1361 1337
3 1337 1361 1362
3 1337 1362 1338
3 1338 1362 1363
3 1338 1363 1339
3 1339 1363 1364
3 1339 1364 1340
3 1340 1364 1365
3 1340 1365 1341
3 1341 1365 1366
3 1341 1366 1342
3 1342 1366 1367
3 1342 1367 1343
3 1343 1367 1344
3 1343 1344 1320
3 1344 1368 1369
3 1344 1369 1345
3 1345 1369 1370
3 1345 1370 1346
3 1346 1370 1371
3 1346 1371 1347
3 1347 1371 1372
3 1347 1372 1348
3 1348 1372 1373
3 1348 1373 1349
3 1349 1373 1374
3 1349 1374 1350
3 1350 1374 1375
3 1350 1375 1351
3 1351 1375 1376
3 1351 1376 1352
3 1352 1376 1377
3 1352 1377 1353
3 1353 1377 1378
3 1353 1378 1354
3 1354 1378 1379
3 1354 1379 1355
3 1355 1379 1380
3 1355 1380 1356
3 1356 1380 1381
3 1356 1381 1357
3 1357 1381 1382
3 1357 1382 1358
3 1358 1382 1383
3 1358 1383 1359
3 1359 1383 1384
3 1359 1384 1360
3 1360 1384 1385
3 1360 1385 1361
3 1361 1385 1386
3 1361 1386 1362
3 1362 1386 1387
3 1362 1387 1363
3 1363 1387 1388
3 1363 1388 1364
3 1364 1388 1389
3 1364 1389 1365
3 1365 1389 1390
3 1365 1390 1366
3 1366 1390 1391
3 1366 1391 1367
3 1367 1391 1368
3 1367 1368 1344
3 1368 1392 1393
3 1368 1393 1369
3 1369 1393 1394
3 1369 1394 1370
3 1370 1394 1395
3 1370 1395 1371
3 1371 1395 1396
3 1371 1396 1372
3 1372 1396 1397
3 1372 1397 1373
3 1373 1397 1398
3 1373 1398 1374
3 1374 1398 1399
3 1374 1399 1375
3 1375 1399 1400
3 1375 1400 1376
3 1376 1400 1401
3 1376 1401 1377
3 1377 1401 1402
3 1377 1402 1378
3 1378 1402 1403
3 1378 1403 1379
3 1379 1403 1404
3 1379 1404 1380
3 1380 1404 1405
3 1380 1405 1381
3 1381 1405 1406
3 1381 1406 1382
3 1382 1406 1407
3 1382 1407 1383
3 1383 1407 1408
3 1383 1408 1384
3 1384 1408 1409
3 1384 1409 1385
3 1385 1409 1410
3 1385 1410 1386
3 1386 1410 1411
3 1386 1411 1387
3 1387 1411 1412
3 1387 1412 1388
3 1388 1412 1413
3 1388 1413 1389
3 1389 1413 1414
3 1389 1414 1390
3 1390 1414 1415
3 1390 1415 1391
3 1391 1415 1392
3 1391 1392 1368
3 1392 1416 1417
3 1392 1417 1393
3 1393 1417 1418
3 1393 1418 1394
3 1394 1418 1419
3 1394 1419 1395
3 1395 1419 1420
3 1395 1420 1396
3 1396 1420 1421
3 1396 1421 1397
3 1397 1421 1422
3 1397 1422 1398
3 1398 1422 1423
3 1398 1423 1399
3 1399 1423 1424
3 1399 1424 1400
3 1400 1424 1425
3 1400 1425 1401
3 1401 1425 1426
3 1401 1426 1402
3 1402 1426 1427
3 1402 1427 1403
3 1403 1427 1428
3 1403 1428 1404
3 1404 1428 1429
3 1404 1429 1405
3 1405 1429 1430
3 1405 1430 1406
3 1406 1430 1431
3 1406 1431 1407
3 1407 1431 1432
3 1407 1432 1408
3 1408 1432 1433
3 1408 1433 1409
3 1409 1433 1434
3 1409 1434 1410
3 1410 1434 1435
3 1410 1435 1411
3 1411 1435 1436
3 1411 1436 1412
3 1412 1436 1437
3 1412 1437 1413
3 1413 1437 1438
3 1413 1438 1414
3 1414 1438 1439
3 1414 1439 1415
3 1415 1439 1416
3 1415 1416 1392
3 1416 0 1
3 1416 1 1417
3 1417 1 2
3 1417 2 1418
3 1418 2 3
3 1418 3 1419
3 1419 3 4
3 1419 4 1420
3 1420 4 5
3 1420 5 1421
3 1421 5 6
3 1421 6 1422
3 1422 6 7
3 1422 7 1423
3 1423 7 8
3 1423 8 1424
3 1424 8 9
3 1424 9 1425
3 1425 9 10
3 1425 10 1426
3 1426 10 11
3 1426 11 1427
3 1427 11 12
3 1427 12 1428
3 1428 12 13
3 1428 13 1429
3 1429 13 14
3 1429 14 1430
3 1430 14 15
3 1430 15 1431
3 1431 15 16
3 1431 16 1432
3 1432 16 17
3 1432 17 1433
3 1433 17 18
3 1433 18 1434
3 1434 18 19
3 1434 19 1435
3 1435 19 20
3 1435 20 1436
3 1436 20 21
3 1436 21 1437
3 1437 21 22
3 1437 22 1438
3 1438 22 23
3 1438 23 1439
3 1439 23 0
3 1439 0 1416
