<svg xmlns="http://www.w3.org/2000/svg" viewBox="0 0 48 48" fill="none" stroke-linejoin="round" stroke-linecap="round">
  <rect x="12" y="16" width="28" height="26" rx="2" fill="#dcdce4" stroke="#232430" stroke-width="1.6"/><path d="M16.0,42 V46" stroke="#232430" stroke-width="1.5"/><path d="M8,21 H12" stroke="#232430" stroke-width="1.5"/><path d="M22.6,42 V46" stroke="#232430" stroke-width="1.5"/><path d="M8,27 H12" stroke="#232430" stroke-width="1.5"/><path d="M29.2,42 V46" stroke="#232430" stroke-width="1.5"/><path d="M8,33 H12" stroke="#232430" stroke-width="1.5"/><path d="M35.8,42 V46" stroke="#232430" stroke-width="1.5"/><path d="M8,39 H12" stroke="#232430" stroke-width="1.5"/><rect x="16.0" y="25.0" width="6.2" height="6.2" fill="#0059a0" fill-opacity="0.85"/><rect x="23.2" y="25.0" width="6.2" height="6.2" fill="#0059a0" fill-opacity="0.35"/><rect x="30.4" y="25.0" width="6.2" height="6.2" fill="#0059a0" fill-opacity="0.85"/><rect x="16.0" y="32.2" width="6.2" height="6.2" fill="#0059a0" fill-opacity="0.35"/><rect x="23.2" y="32.2" width="6.2" height="6.2" fill="#0059a0" fill-opacity="0.85"/><rect x="30.4" y="32.2" width="6.2" height="6.2" fill="#0059a0" fill-opacity="0.35"/><rect x="20.8" y="2" width="6.4" height="6.4" fill="#0059a0"/><path d="M24,9 V14" stroke="#1f7a8c" stroke-width="1.8"/><path d="M21.2,13 L24,17.5 L26.8,13 Z" fill="#1f7a8c"/>
</svg>
