<svg xmlns="http://www.w3.org/2000/svg" viewBox="0 0 48 48" fill="none" stroke-linejoin="round" stroke-linecap="round">
  <rect x="4" y="9" width="40" height="30" rx="2" fill="#ffffff" stroke="#232430" stroke-width="1.6"/><rect x="5.5" y="10.5" width="9" height="13.5" fill="#0059a0" fill-opacity="0.25"/><rect x="14.5" y="10.5" width="9" height="13.5" fill="#0059a0" fill-opacity="0.45"/><rect x="5.5" y="24.0" width="9" height="13.5" fill="#0059a0" fill-opacity="0.65"/><rect x="14.5" y="24.0" width="9" height="13.5" fill="#0059a0" fill-opacity="0.85"/><rect x="23.5" y="10.5" width="2.4" height="3.4" fill="#0059a0" fill-opacity="0.18"/><rect x="25.9" y="10.5" width="2.4" height="3.4" fill="#0059a0" fill-opacity="0.63"/><rect x="28.3" y="10.5" width="2.4" height="3.4" fill="#0059a0" fill-opacity="0.27"/><rect x="30.7" y="10.5" width="2.4" height="3.4" fill="#0059a0" fill-opacity="0.72"/><rect x="33.1" y="10.5" width="2.4" height="3.4" fill="#0059a0" fill-opacity="0.36"/><rect x="35.5" y="10.5" width="2.4" height="3.4" fill="#0059a0" fill-opacity="0.81"/><rect x="37.9" y="10.5" width="2.4" height="3.4" fill="#0059a0" fill-opacity="0.45"/><rect x="40.3" y="10.5" width="2.4" height="3.4" fill="#0059a0" fill-opacity="0.90"/><rect x="23.5" y="13.9" width="2.4" height="3.4" fill="#0059a0" fill-opacity="0.45"/><rect x="25.9" y="13.9" width="2.4" height="3.4" fill="#0059a0" fill-opacity="0.90"/><rect x="28.3" y="13.9" width="2.4" height="3.4" fill="#0059a0" fill-opacity="0.54"/><rect x="30.7" y="13.9" width="2.4" height="3.4" fill="#0059a0" fill-opacity="0.18"/><rect x="33.1" y="13.9" width="2.4" height="3.4" fill="#0059a0" fill-opacity="0.63"/><rect x="35.5" y="13.9" width="2.4" height="3.4" fill="#0059a0" fill-opacity="0.27"/><rect x="37.9" y="13.9" width="2.4" height="3.4" fill="#0059a0" fill-opacity="0.72"/><rect x="40.3" y="13.9" width="2.4" height="3.4" fill="#0059a0" fill-opacity="0.36"/><rect x="23.5" y="17.3" width="2.4" height="3.4" fill="#0059a0" fill-opacity="0.72"/><rect x="25.9" y="17.3" width="2.4" height="3.4" fill="#0059a0" fill-opacity="0.36"/><rect x="28.3" y="17.3" width="2.4" height="3.4" fill="#0059a0" fill-opacity="0.81"/><rect x="30.7" y="17.3" width="2.4" height="3.4" fill="#0059a0" fill-opacity="0.45"/><rect x="33.1" y="17.3" width="2.4" height="3.4" fill="#0059a0" fill-opacity="0.90"/><rect x="35.5" y="17.3" width="2.4" height="3.4" fill="#0059a0" fill-opacity="0.54"/><rect x="37.9" y="17.3" width="2.4" height="3.4" fill="#0059a0" fill-opacity="0.18"/><rect x="40.3" y="17.3" width="2.4" height="3.4" fill="#0059a0" fill-opacity="0.63"/><rect x="23.5" y="20.7" width="2.4" height="3.4" fill="#0059a0" fill-opacity="0.18"/><rect x="25.9" y="20.7" width="2.4" height="3.4" fill="#0059a0" fill-opacity="0.63"/><rect x="28.3" y="20.7" width="2.4" height="3.4" fill="#0059a0" fill-opacity="0.27"/><rect x="30.7" y="20.7" width="2.4" height="3.4" fill="#0059a0" fill-opacity="0.72"/><rect x="33.1" y="20.7" width="2.4" height="3.4" fill="#0059a0" fill-opacity="0.36"/><rect x="35.5" y="20.7" width="2.4" height="3.4" fill="#0059a0" fill-opacity="0.81"/><rect x="37.9" y="20.7" width="2.4" height="3.4" fill="#0059a0" fill-opacity="0.45"/><rect x="40.3" y="20.7" width="2.4" height="3.4" fill="#0059a0" fill-opacity="0.90"/><rect x="23.5" y="24.1" width="2.4" height="3.4" fill="#0059a0" fill-opacity="0.45"/><rect x="25.9" y="24.1" width="2.4" height="3.4" fill="#0059a0" fill-opacity="0.90"/><rect x="28.3" y="24.1" width="2.4" height="3.4" fill="#0059a0" fill-opacity="0.54"/><rect x="30.7" y="24.1" width="2.4" height="3.4" fill="#0059a0" fill-opacity="0.18"/><rect x="33.1" y="24.1" width="2.4" height="3.4" fill="#0059a0" fill-opacity="0.63"/><rect x="35.5" y="24.1" width="2.4" height="3.4" fill="#0059a0" fill-opacity="0.27"/><rect x="37.9" y="24.1" width="2.4" height="3.4" fill="#0059a0" fill-opacity="0.72"/><rect x="40.3" y="24.1" width="2.4" height="3.4" fill="#0059a0" fill-opacity="0.36"/><rect x="23.5" y="27.5" width="2.4" height="3.4" fill="#0059a0" fill-opacity="0.72"/><rect x="25.9" y="27.5" width="2.4" height="3.4" fill="#0059a0" fill-opacity="0.36"/><rect x="28.3" y="27.5" width="2.4" height="3.4" fill="#0059a0" fill-opacity="0.81"/><rect x="30.7" y="27.5" width="2.4" height="3.4" fill="#0059a0" fill-opacity="0.45"/><rect x="33.1" y="27.5" width="2.4" height="3.4" fill="#0059a0" fill-opacity="0.90"/><rect x="35.5" y="27.5" width="2.4" height="3.4" fill="#0059a0" fill-opacity="0.54"/><rect x="37.9" y="27.5" width="2.4" height="3.4" fill="#0059a0" fill-opacity="0.18"/><rect x="40.3" y="27.5" width="2.4" height="3.4" fill="#0059a0" fill-opacity="0.63"/><rect x="23.5" y="30.9" width="2.4" height="3.4" fill="#0059a0" fill-opacity="0.18"/><rect x="25.9" y="30.9" width="2.4" height="3.4" fill="#0059a0" fill-opacity="0.63"/><rect x="28.3" y="30.9" width="2.4" height="3.4" fill="#0059a0" fill-opacity="0.27"/><rect x="30.7" y="30.9" width="2.4" height="3.4" fill="#0059a0" fill-opacity="0.72"/><rect x="33.1" y="30.9" width="2.4" height="3.4" fill="#0059a0" fill-opacity="0.36"/><rect x="35.5" y="30.9" width="2.4" height="3.4" fill="#0059a0" fill-opacity="0.81"/><rect x="37.9" y="30.9" width="2.4" height="3.4" fill="#0059a0" fill-opacity="0.45"/><rect x="40.3" y="30.9" width="2.4" height="3.4" fill="#0059a0" fill-opacity="0.90"/><rect x="23.5" y="34.3" width="2.4" height="3.4" fill="#0059a0" fill-opacity="0.45"/><rect x="25.9" y="34.3" width="2.4" height="3.4" fill="#0059a0" fill-opacity="0.90"/><rect x="28.3" y="34.3" width="2.4" height="3.4" fill="#0059a0" fill-opacity="0.54"/><rect x="30.7" y="34.3" width="2.4" height="3.4" fill="#0059a0" fill-opacity="0.18"/><rect x="33.1" y="34.3" width="2.4" height="3.4" fill="#0059a0" fill-opacity="0.63"/><rect x="35.5" y="34.3" width="2.4" height="3.4" fill="#0059a0" fill-opacity="0.27"/><rect x="37.9" y="34.3" width="2.4" height="3.4" fill="#0059a0" fill-opacity="0.72"/><rect x="40.3" y="34.3" width="2.4" height="3.4" fill="#0059a0" fill-opacity="0.36"/><path d="M23.5,10.5 V37.5" stroke="#e2a13c" stroke-width="1.6"/>
</svg>
