<?xml version="1.0" encoding="UTF-8" standalone="no"?>
<svg
   version="1.1"
   id="Ebene_1"
   x="0px"
   y="0px"
   width="472.75601"
   height="101.79015"
   viewBox="0 0 472.75602 101.79014"
   enable-background="new 0 0 891.381 302.875"
   xml:space="preserve"
   sodipodi:docname="test.svg"
   inkscape:version="1.1.2 (0a00cf5339, 2022-02-04)"
   xmlns:inkscape="http://www.inkscape.org/namespaces/inkscape"
   xmlns:sodipodi="http://sodipodi.sourceforge.net/DTD/sodipodi-0.dtd"
   xmlns="http://www.w3.org/2000/svg"
   xmlns:svg="http://www.w3.org/2000/svg"
   xmlns:rdf="http://www.w3.org/1999/02/22-rdf-syntax-ns#"
   xmlns:cc="http://creativecommons.org/ns#"
   xmlns:dc="http://purl.org/dc/elements/1.1/">
   <metadata id="metadata4157">
      <rdf:RDF>
         <cc:Work rdf:about="">
            <dc:format>image/svg+xml</dc:format>
            <dc:type rdf:resource="http://purl.org/dc/dcmitype/StillImage" />
         </cc:Work>
      </rdf:RDF>
   </metadata>
   <metadata id="metadata625503">
      <rdf:RDF>
         <cc:Work rdf:about="">
            <cc:license rdf:resource="http://creativecommons.org/licenses/by/4.0/"/>
         </cc:Work>
      </rdf:RDF>
   </metadata>
   <defs id="defs4155" />
   <sodipodi:namedview
   pagecolor="#ffffff"
   bordercolor="#666666"
   borderopacity="1"
   objecttolerance="10"
   gridtolerance="10"
   guidetolerance="10"
   inkscape:pageopacity="0"
   inkscape:pageshadow="2"
   inkscape:window-width="1820"
   inkscape:window-height="1051"
   id="namedview4153"
   showgrid="false"
   inkscape:zoom="1.6866679"
   inkscape:cx="234.486"
   inkscape:cy="55.731186"
   inkscape:window-x="100"
   inkscape:window-y="0"
   inkscape:window-maximized="1"
   inkscape:current-layer="Ebene_1"
   inkscape:pagecheckerboard="0"
   inkscape:document-rotation="0"
   inkscape:snap-bbox="true"
   inkscape:object-paths="true"
   inkscape:snap-center="false" />

















<g
   id="g861"><line
     stroke-miterlimit="10"
     x1="35.543991"
     y1="60.840145"
     x2="67.949997"
     y2="75.855148"
     id="line4042"
     style="fill:#002864;fill-opacity:1;stroke:#002864;stroke-width:2.4017;stroke-miterlimit:10;stroke-opacity:1" /><line
     stroke-miterlimit="10"
     x1="8.2839985"
     y1="71.140152"
     x2="67.949997"
     y2="75.855148"
     id="line4044"
     style="fill:#002864;fill-opacity:1;stroke:#002864;stroke-width:2.4017;stroke-miterlimit:10;stroke-opacity:1" /><line
     stroke-miterlimit="10"
     x1="58.934006"
     y1="30.365154"
     x2="72.117004"
     y2="96.830154"
     id="line4046"
     style="fill:#002864;fill-opacity:1;stroke:#002864;stroke-width:2.4017;stroke-miterlimit:10;stroke-opacity:1" /><line
     stroke-miterlimit="10"
     x1="58.916958"
     y1="30.373323"
     x2="28.292295"
     y2="94.285912"
     id="line4048"
     style="fill:#002864;fill-opacity:1;stroke:#002864;stroke-width:2.43951;stroke-miterlimit:10;stroke-opacity:1" /><line
     stroke-miterlimit="10"
     x1="28.783998"
     y1="93.287155"
     x2="127.73799"
     y2="49.335155"
     id="line4050"
     style="fill:#002864;fill-opacity:1;stroke:#002864;stroke-width:2.4017;stroke-miterlimit:10;stroke-opacity:1" /><line
     stroke-miterlimit="10"
     x1="58.934006"
     y1="30.365154"
     x2="127.73799"
     y2="49.335155"
     id="line4052"
     style="fill:#002864;fill-opacity:1;stroke:#002864;stroke-width:2.4017;stroke-miterlimit:10;stroke-opacity:1" /><line
     stroke-miterlimit="10"
     x1="111.45447"
     y1="4.0372596"
     x2="127.2934"
     y2="49.282295"
     id="line4060"
     style="fill:#002864;fill-opacity:1;stroke:#002864;stroke-width:2.60313;stroke-miterlimit:10;stroke-opacity:1" /><line
     stroke-miterlimit="10"
     x1="113.02834"
     y1="4.2679896"
     x2="67.932922"
     y2="75.866554"
     id="line4062"
     style="fill:#002864;fill-opacity:1;stroke:#002864;stroke-width:2.36659;stroke-miterlimit:10;stroke-opacity:1" /><line
     stroke-miterlimit="10"
     x1="58.934006"
     y1="30.365154"
     x2="113.116"
     y2="96.830154"
     id="line4066"
     style="fill:#002864;fill-opacity:1;stroke:#002864;stroke-width:2.4017;stroke-miterlimit:10;stroke-opacity:1" /><line
     stroke-miterlimit="10"
     x1="127.55548"
     y1="49.333462"
     x2="112.89791"
     y2="93.922958"
     id="line4068"
     style="fill:#002864;fill-opacity:1;stroke:#002864;stroke-width:2.32991;stroke-miterlimit:10;stroke-opacity:1" /><line
     stroke-miterlimit="10"
     x1="67.949997"
     y1="75.855148"
     x2="113.116"
     y2="96.830154"
     id="line4074"
     style="fill:#002864;fill-opacity:1;stroke:#002864;stroke-width:2.4017;stroke-miterlimit:10;stroke-opacity:1" /></g>







<g
   id="g901"><g
     id="g4056"
     transform="translate(-100.483,-100.41585)"
     style="fill:#002864;fill-opacity:1;stroke:none;stroke-opacity:1">
	<path
   d="m 214.644,201.706 h -88.769 c -13.725,0 -24.892,-11.166 -24.892,-24.891 0,-13.726 11.167,-24.892 24.892,-24.892 1.977,0 3.922,0.233 5.821,0.695 3.414,-17.172 18.611,-29.995 36.577,-29.995 3.412,0 6.772,0.461 10.03,1.372 6.854,-13.72 20.711,-22.652 36.236,-23.066 l 0.207,7.727 c -13.656,0.363 -25.726,8.815 -30.751,21.532 l -1.413,3.577 -3.584,-1.397 c -3.431,-1.337 -7.039,-2.015 -10.726,-2.015 -15.593,0 -28.555,12.182 -29.508,27.732 l -0.351,5.719 -5.171,-2.467 c -2.343,-1.117 -4.822,-1.685 -7.369,-1.685 -9.463,0 -17.161,7.698 -17.161,17.162 0,9.463 7.698,17.161 17.161,17.161 h 88.769 v 7.731 z"
   id="path4054"
   inkscape:connector-curvature="0"
   style="fill:#002864;fill-opacity:1;stroke:none;stroke-opacity:1" />
</g><g
     transform="translate(0.5,-0.74282372)"
     id="g180"><path
       d="M 198.482,41.882973 V 1.0289734 h 19.359 V 101.95897 H 198.482 V 61.245973 H 163.888 V 101.95897 H 144.529 V 1.0289734 h 19.359 V 41.882973 Z"
       id="path4140"
       inkscape:connector-curvature="0"
       style="fill:#002864;fill-opacity:1" /><path
       d="M 254.752,101.95797 H 235.391 V 1.0269734 h 19.361 z"
       id="path4142"
       inkscape:connector-curvature="0"
       style="fill:#002864;fill-opacity:1" /><path
       d="M 337.642,1.0279734 V 20.386973 h -45.979 v 21.495 h 40.144 v 19.362 H 291.663 V 101.95697 H 272.301 V 10.563973 c 0,-0.8539996 0.285,-1.7079996 0.998,-2.2769996 l 6.264,-6.263 c 0.569,-0.57 1.424,-0.997 2.277,-0.997 h 55.802 z"
       id="path4144"
       inkscape:connector-curvature="0"
       style="fill:#002864;fill-opacity:1" /><path
       d="M 374.553,101.95797 H 355.192 V 1.0269734 h 19.361 z"
       id="path4146"
       inkscape:connector-curvature="0"
       style="fill:#002864;fill-opacity:1" /><path
       d="m 446.111,101.96997 h -28.416 c -4.311,0 -8.363,-1.678 -11.412,-4.726997 l -11.346,-11.347 13.691,-13.689 9.457,9.456 c 0.604,0.604 1.426,0.945 2.283,0.945 h 23.07 c 0.855,0 1.676,-0.341 2.283,-0.945 l 6.227,-6.226 c 0.604,-0.607 0.945,-1.428 0.945,-2.285 v -3.351 c 0,-1.446 -0.974,-2.728 -2.366,-3.114 l -41.894,-11.666 c -4.725,-1.314 -8.963,-4.191 -11.93,-8.099 -2.969,-3.906 -4.604,-8.761 -4.604,-13.666 v -6.024 c 0,-4.279 1.701,-8.386 4.727,-11.412 L 406.833,5.8129734 c 3.048,-3.047 7.101,-4.725 11.411,-4.725 h 28.416 c 4.311,0 8.365,1.678 11.412,4.725 l 11.346,11.3489996 -13.689,13.689 -9.457,-9.456 c -0.606,-0.604 -1.428,-0.945 -2.284,-0.945 h -23.069 c -0.857,0 -1.68,0.341 -2.284,0.945 l -6.226,6.227 c -0.606,0.604 -0.945,1.427 -0.945,2.282 v 3.353 c 0,1.443 0.972,2.725 2.365,3.114 l 41.891,11.664 c 4.727,1.316 8.965,4.191 11.934,8.098 2.967,3.909 4.602,8.762 4.602,13.669 v 6.024 c 0,4.31 -1.678,8.362 -4.728,11.412 l -10.005,10.005 c -3.048,3.048997 -7.1,4.726997 -11.412,4.726997 z"
       id="path4148"
       inkscape:connector-curvature="0"
       style="fill:#002864;fill-opacity:1" /></g><circle
     r="4.6789999"
     cy="49.243999"
     cx="127.74"
     id="path850"
     style="opacity:1;fill:#002864;stroke:none;stroke-width:0.865527;stroke-miterlimit:2.1818;stroke-opacity:1;fill-opacity:1" /><circle
     style="opacity:1;fill:#002864;stroke:none;stroke-width:0.865527;stroke-miterlimit:2.1818;stroke-opacity:1;fill-opacity:1"
     id="path850-9"
     cx="67.905998"
     cy="75.877998"
     r="4.6789999" /><circle
     r="4.6789999"
     cy="30.625999"
     cx="59.193001"
     id="path850-9-1"
     style="opacity:1;fill:#002864;fill-opacity:1;stroke:none;stroke-width:0.865527;stroke-miterlimit:2.1818;stroke-opacity:1" /></g></svg>
