<?xml version="1.0" encoding="utf-8"?>
<!-- Generator: Adobe Illustrator 25.0.0, SVG Export Plug-In . SVG Version: 6.00 Build 0)  -->
<svg version="1.1"
	 id="svg2" xmlns:cc="http://creativecommons.org/ns#" xmlns:dc="http://purl.org/dc/elements/1.1/" xmlns:inkscape="http://www.inkscape.org/namespaces/inkscape" xmlns:rdf="http://www.w3.org/1999/02/22-rdf-syntax-ns#" xmlns:sodipodi="http://sodipodi.sourceforge.net/DTD/sodipodi-0.dtd" xmlns:svg="http://www.w3.org/2000/svg"
	 xmlns="http://www.w3.org/2000/svg" xmlns:xlink="http://www.w3.org/1999/xlink" x="0px" y="0px" viewBox="0 0 501 238.3"
	 style="enable-background:new 0 0 501 238.3;" xml:space="preserve">
<style type="text/css">
	.st0{fill:none;stroke:#000000;stroke-width:0.8559;stroke-linecap:round;stroke-linejoin:round;}
	.st1{fill:url(#path5670_1_);}
	.st2{fill:url(#path6573_1_);}
	.st3{fill:url(#path6585_1_);}
	.st4{fill:url(#path6589_1_);}
	.st5{fill:url(#path6593_1_);}
	.st6{fill:url(#path6597_1_);}
	.st7{fill:url(#path6601_1_);}
	.st8{fill:url(#path6605_1_);}
	.st9{fill:url(#path6609_1_);}
	.st10{fill:url(#path6613_1_);}
	.st11{fill:url(#path6625_1_);}
	.st12{fill:url(#path6633_1_);}
	.st13{fill:url(#path6641_1_);}
	.st14{fill:url(#path6645_1_);}
	.st15{fill:url(#path6649_1_);}
	.st16{fill:url(#path6653_1_);}
	.st17{fill:url(#path6661_1_);}
	.st18{fill:url(#path6669_1_);}
	.st19{fill:url(#path6677_1_);}
	.st20{fill:url(#path6681_1_);}
	.st21{fill:url(#path6685_1_);}
	.st22{fill:url(#path6689_1_);}
	.st23{fill:url(#path6693_1_);}
	.st24{fill:url(#path6697_1_);}
	.st25{fill:url(#path6717_1_);}
	.st26{fill:url(#path6721_1_);}
	.st27{fill:url(#path6733_1_);}
	.st28{fill:url(#path6565_1_);}
	.st29{fill:url(#path6569_1_);}
	.st30{fill:url(#path6581_1_);}
	
		.st31{fill-rule:evenodd;clip-rule:evenodd;fill:#E19500;fill-opacity:0.6198;stroke:#000000;stroke-linecap:round;stroke-linejoin:round;}
	.st32{fill:url(#path6617_1_);}
	.st33{fill:url(#path6621_1_);}
	.st34{fill:url(#path6665_1_);}
	.st35{fill:url(#path6673_1_);}
	.st36{fill:url(#path6701_1_);}
	.st37{fill:url(#path6629_1_);}
	.st38{fill:url(#path6637_1_);}
	.st39{fill:url(#path6709_1_);}
	.st40{fill:url(#path6705_1_);}
	.st41{fill:url(#path6725_1_);}
	.st42{fill:url(#path6737_1_);}
	.st43{fill:url(#path6713_1_);}
	.st44{fill:url(#path6577_1_);}
	.st45{fill:url(#path6657_1_);}
</style>
<defs>
	
		<inkscape:perspective  id="perspective246" inkscape:persp3d-origin="250.51785 : 78.559057 : 1" inkscape:vp_x="0 : 117.83858 : 1" inkscape:vp_y="0 : 1000 : 0" inkscape:vp_z="501.03571 : 117.83858 : 1" sodipodi:type="inkscape:persp3d">
		</inkscape:perspective>
</defs>
<sodipodi:namedview  bordercolor="#666666" borderopacity="1.0" id="base" inkscape:current-layer="layer2" inkscape:cx="248.25832" inkscape:cy="113.83519" inkscape:document-units="px" inkscape:pageopacity="0.0" inkscape:pageshadow="2" inkscape:window-height="964" inkscape:window-maximized="0" inkscape:window-width="1674" inkscape:window-x="0" inkscape:window-y="0" inkscape:zoom="1.9909137" pagecolor="#ffffff" showgrid="false">
	</sodipodi:namedview>
<g id="layer1" transform="translate(-111.8744,-96.19371)" inkscape:groupmode="layer" inkscape:label="Calque 1">
	<rect id="rect5465" x="458.6" y="96.7" class="st0" width="43" height="43"/>
	<rect id="rect1872" x="116.2" y="109.5" class="st0" width="43" height="43"/>
	<rect id="rect2760" x="138" y="96.7" class="st0" width="43" height="43"/>
	<path id="path2762" class="st0" d="M116.3,109l21.5-12.4"/>
	<path id="path3649" class="st0" d="M159,109.4L180.5,97"/>
	<path id="path3651" class="st0" d="M159.5,152.4L181,140"/>
	<path id="path3653" class="st0" d="M116.2,152.2l21.5-12.4"/>
	<rect id="rect5435" x="223" y="109.5" class="st0" width="43" height="43"/>
	<rect id="rect5437" x="244.9" y="96.7" class="st0" width="43" height="43"/>
	<path id="path5439" class="st0" d="M223.2,109l21.5-12.4"/>
	<path id="path5441" class="st0" d="M265.9,109.4L287.4,97"/>
	<path id="path5443" class="st0" d="M266.4,152.4l21.5-12.4"/>
	<path id="path5445" class="st0" d="M223.1,152.2l21.5-12.4"/>
	<rect id="rect5451" x="351.8" y="96.7" class="st0" width="43" height="43"/>
	<path id="path5453" class="st0" d="M330,109l21.5-12.4"/>
	<path id="path5455" class="st0" d="M372.8,109.4L394.3,97"/>
	<path id="path5457" class="st0" d="M373.2,152.4l21.5-12.4"/>
	<path id="path5459" class="st0" d="M330,152.2l21.5-12.4"/>
	<rect id="rect5463" x="436.8" y="109.5" class="st0" width="43" height="43"/>
	<path id="path5467" class="st0" d="M436.9,109l21.5-12.4"/>
	<path id="path5469" class="st0" d="M479.6,109.4L501.1,97"/>
	<path id="path5471" class="st0" d="M480.1,152.4l21.5-12.4"/>
	<path id="path5473" class="st0" d="M436.8,152.2l21.5-12.4"/>
	<rect id="rect5479" x="565.5" y="96.7" class="st0" width="43" height="43"/>
	<path id="path5481" class="st0" d="M543.8,109l21.5-12.4"/>
	<path id="path5483" class="st0" d="M586.5,109.4L608,97"/>
	<path id="path5485" class="st0" d="M587,152.4l21.5-12.4"/>
	<path id="path5487" class="st0" d="M543.7,152.2l21.5-12.4"/>
	<rect id="rect5530" x="116.2" y="197.1" class="st0" width="43" height="43"/>
	<rect id="rect5532" x="138" y="184.3" class="st0" width="43" height="43"/>
	<path id="path5534" class="st0" d="M116.3,196.6l21.5-12.4"/>
	<path id="path5536" class="st0" d="M159,197l21.5-12.4"/>
	<path id="path5538" class="st0" d="M159.5,240l21.5-12.4"/>
	<path id="path5540" class="st0" d="M116.2,239.8l21.5-12.4"/>
	<rect id="rect5544" x="223" y="197.1" class="st0" width="43" height="43"/>
	<rect id="rect5546" x="244.9" y="184.3" class="st0" width="43" height="43"/>
	<path id="path5548" class="st0" d="M223.2,196.6l21.5-12.4"/>
	<path id="path5550" class="st0" d="M265.9,197l21.5-12.4"/>
	<path id="path5552" class="st0" d="M266.4,240l21.5-12.4"/>
	<path id="path5554" class="st0" d="M223.1,239.8l21.5-12.4"/>
	<rect id="rect5560" x="351.8" y="184.3" class="st0" width="43" height="43"/>
	<path id="path5562" class="st0" d="M330,196.6l21.5-12.4"/>
	<path id="path5566" class="st0" d="M373.2,240l21.5-12.4"/>
	<path id="path5568" class="st0" d="M330,239.8l21.5-12.4"/>
	<rect id="rect5574" x="458.6" y="184.3" class="st0" width="43" height="43"/>
	<path id="path5576" class="st0" d="M436.9,196.6l21.5-12.4"/>
	<path id="path5580" class="st0" d="M480.1,240l21.5-12.4"/>
	<path id="path5582" class="st0" d="M436.8,239.8l21.5-12.4"/>
	<rect id="rect5588" x="565.5" y="184.3" class="st0" width="43" height="43"/>
	<path id="path5590" class="st0" d="M543.8,196.6l21.5-12.4"/>
	<path id="path5594" class="st0" d="M587,240l21.5-12.4"/>
	<path id="path5596" class="st0" d="M543.7,239.8l21.5-12.4"/>
	<rect id="rect5602" x="116.2" y="284.7" class="st0" width="43" height="43"/>
	<rect id="rect5604" x="138" y="271.9" class="st0" width="43" height="43"/>
	<path id="path5606" class="st0" d="M116.3,284.2l21.5-12.4"/>
	<path id="path5608" class="st0" d="M159,284.6l21.5-12.4"/>
	<path id="path5610" class="st0" d="M159.5,327.6l21.5-12.4"/>
	<path id="path5612" class="st0" d="M116.2,327.4l21.5-12.4"/>
	<rect id="rect5618" x="244.9" y="271.9" class="st0" width="43" height="43"/>
	<path id="path5620" class="st0" d="M223.2,284.2l21.5-12.4"/>
	<path id="path5622" class="st0" d="M265.9,284.6l21.5-12.4"/>
	<path id="path5624" class="st0" d="M266.4,327.6l21.5-12.4"/>
	<path id="path5626" class="st0" d="M223.1,327.4l21.5-12.4"/>
	<rect id="rect5632" x="351.8" y="271.9" class="st0" width="43" height="43"/>
	<path id="path5634" class="st0" d="M330,284.2l21.5-12.4"/>
	<path id="path5636" class="st0" d="M372.8,284.6l21.5-12.4"/>
	<path id="path5638" class="st0" d="M373.2,327.6l21.5-12.4"/>
	<path id="path5640" class="st0" d="M330,327.4l21.5-12.4"/>
	<rect id="rect5646" x="458.6" y="271.9" class="st0" width="43" height="43"/>
	<path id="path5648" class="st0" d="M436.9,284.2l21.5-12.4"/>
	<path id="path5652" class="st0" d="M480.1,327.6l21.5-12.4"/>
	<path id="path5654" class="st0" d="M436.8,327.4l21.5-12.4"/>
	<rect id="rect5660" x="565.5" y="271.9" class="st0" width="43" height="43"/>
	<path id="path5662" class="st0" d="M543.8,284.2l21.5-12.4"/>
	<path id="path5666" class="st0" d="M587,327.6l21.5-12.4"/>
	<path id="path5668" class="st0" d="M543.7,327.4l21.5-12.4"/>
	<rect id="rect5449" x="329.9" y="109.5" class="st0" width="43" height="43"/>
	<rect id="rect5477" x="543.6" y="109.5" class="st0" width="43" height="43"/>
</g>
<g id="layer3" transform="translate(-111.8744,-96.19371)" inkscape:groupmode="layer" inkscape:label="boules">
	
		<radialGradient id="path5670_1_" cx="381.6719" cy="170.2629" r="5.5558" gradientTransform="matrix(0.7727 0 0 -0.7727 -71.9371 283.6304)" gradientUnits="userSpaceOnUse">
		<stop  offset="0" style="stop-color:#FFE900"/>
		<stop  offset="1" style="stop-color:#FF7900"/>
	</radialGradient>
	
		<path id="path5670" sodipodi:cx="222.73863" sodipodi:cy="154.33656" sodipodi:rx="5.5558391" sodipodi:ry="5.5558391" sodipodi:type="arc" class="st1" d="
		M227.3,152.1c0,2.4-1.9,4.3-4.3,4.3c-2.4,0-4.3-1.9-4.3-4.3c0-2.4,1.9-4.3,4.3-4.3C225.4,147.8,227.3,149.7,227.3,152.1z"/>
	
		<radialGradient id="path6573_1_" cx="381.6719" cy="170.2629" r="5.5558" gradientTransform="matrix(0.7727 0 0 -0.7727 141.9628 283.3779)" gradientUnits="userSpaceOnUse">
		<stop  offset="0" style="stop-color:#FFE900"/>
		<stop  offset="1" style="stop-color:#FF7900"/>
	</radialGradient>
	
		<path id="path6573" sodipodi:cx="222.73863" sodipodi:cy="154.33656" sodipodi:rx="5.5558391" sodipodi:ry="5.5558391" sodipodi:type="arc" class="st2" d="
		M441.2,151.8c0,2.4-1.9,4.3-4.3,4.3s-4.3-1.9-4.3-4.3s1.9-4.3,4.3-4.3S441.2,149.4,441.2,151.8z"/>
	
		<radialGradient id="path6585_1_" cx="381.6719" cy="170.2629" r="5.5558" gradientTransform="matrix(0.7727 0 0 -0.7727 313.6888 270.751)" gradientUnits="userSpaceOnUse">
		<stop  offset="0" style="stop-color:#FFE900"/>
		<stop  offset="1" style="stop-color:#FF7900"/>
	</radialGradient>
	
		<path id="path6585" sodipodi:cx="222.73863" sodipodi:cy="154.33656" sodipodi:rx="5.5558391" sodipodi:ry="5.5558391" sodipodi:type="arc" class="st3" d="
		M612.9,139.2c0,2.4-1.9,4.3-4.3,4.3s-4.3-1.9-4.3-4.3c0-2.4,1.9-4.3,4.3-4.3S612.9,136.8,612.9,139.2z"/>
	
		<radialGradient id="path6589_1_" cx="381.6719" cy="170.2629" r="5.5558" gradientTransform="matrix(0.7727 0 0 -0.7727 270.7573 270.751)" gradientUnits="userSpaceOnUse">
		<stop  offset="0" style="stop-color:#FFE900"/>
		<stop  offset="1" style="stop-color:#FF7900"/>
	</radialGradient>
	
		<path id="path6589" sodipodi:cx="222.73863" sodipodi:cy="154.33656" sodipodi:rx="5.5558391" sodipodi:ry="5.5558391" sodipodi:type="arc" class="st4" d="
		M570,139.2c0,2.4-1.9,4.3-4.3,4.3c-2.4,0-4.3-1.9-4.3-4.3c0-2.4,1.9-4.3,4.3-4.3C568.1,134.9,570,136.8,570,139.2z"/>
	
		<radialGradient id="path6593_1_" cx="381.6719" cy="170.2629" r="5.5558" gradientTransform="matrix(0.7727 0 0 -0.7727 -178.7607 371.7663)" gradientUnits="userSpaceOnUse">
		<stop  offset="0" style="stop-color:#FFE900"/>
		<stop  offset="1" style="stop-color:#FF7900"/>
	</radialGradient>
	
		<path id="path6593" sodipodi:cx="222.73863" sodipodi:cy="154.33656" sodipodi:rx="5.5558391" sodipodi:ry="5.5558391" sodipodi:type="arc" class="st5" d="
		M120.5,240.2c0,2.4-1.9,4.3-4.3,4.3c-2.4,0-4.3-1.9-4.3-4.3c0-2.4,1.9-4.3,4.3-4.3C118.5,235.9,120.5,237.8,120.5,240.2z"/>
	
		<radialGradient id="path6597_1_" cx="381.6719" cy="170.2629" r="5.5558" gradientTransform="matrix(0.7727 0 0 -0.7727 -136.8393 371.2612)" gradientUnits="userSpaceOnUse">
		<stop  offset="0" style="stop-color:#FFE900"/>
		<stop  offset="1" style="stop-color:#FF7900"/>
	</radialGradient>
	
		<path id="path6597" sodipodi:cx="222.73863" sodipodi:cy="154.33656" sodipodi:rx="5.5558391" sodipodi:ry="5.5558391" sodipodi:type="arc" class="st6" d="
		M162.4,239.7c0,2.4-1.9,4.3-4.3,4.3s-4.3-1.9-4.3-4.3c0-2.4,1.9-4.3,4.3-4.3S162.4,237.3,162.4,239.7z"/>
	
		<radialGradient id="path6601_1_" cx="381.6719" cy="170.2629" r="5.5558" gradientTransform="matrix(0.7727 0 0 -0.7727 -113.6058 359.1393)" gradientUnits="userSpaceOnUse">
		<stop  offset="0" style="stop-color:#FFE900"/>
		<stop  offset="1" style="stop-color:#FF7900"/>
	</radialGradient>
	
		<path id="path6601" sodipodi:cx="222.73863" sodipodi:cy="154.33656" sodipodi:rx="5.5558391" sodipodi:ry="5.5558391" sodipodi:type="arc" class="st7" d="
		M185.6,227.6c0,2.4-1.9,4.3-4.3,4.3c-2.4,0-4.3-1.9-4.3-4.3c0-2.4,1.9-4.3,4.3-4.3C183.7,223.3,185.6,225.2,185.6,227.6z"/>
	
		<radialGradient id="path6605_1_" cx="381.6719" cy="170.2629" r="5.5558" gradientTransform="matrix(0.7727 0 0 -0.7727 -157.0424 358.6342)" gradientUnits="userSpaceOnUse">
		<stop  offset="0" style="stop-color:#FFE900"/>
		<stop  offset="1" style="stop-color:#FF7900"/>
	</radialGradient>
	
		<path id="path6605" sodipodi:cx="222.73863" sodipodi:cy="154.33656" sodipodi:rx="5.5558391" sodipodi:ry="5.5558391" sodipodi:type="arc" class="st8" d="
		M142.2,227.1c0,2.4-1.9,4.3-4.3,4.3s-4.3-1.9-4.3-4.3c0-2.4,1.9-4.3,4.3-4.3S142.2,224.7,142.2,227.1z"/>
	
		<radialGradient id="path6609_1_" cx="381.6719" cy="170.2629" r="5.5558" gradientTransform="matrix(0.7727 0 0 -0.7727 -178.2556 459.1445)" gradientUnits="userSpaceOnUse">
		<stop  offset="0" style="stop-color:#FFE900"/>
		<stop  offset="1" style="stop-color:#FF7900"/>
	</radialGradient>
	
		<path id="path6609" sodipodi:cx="222.73863" sodipodi:cy="154.33656" sodipodi:rx="5.5558391" sodipodi:ry="5.5558391" sodipodi:type="arc" class="st9" d="
		M121,327.6c0,2.4-1.9,4.3-4.3,4.3c-2.4,0-4.3-1.9-4.3-4.3s1.9-4.3,4.3-4.3C119,323.3,121,325.2,121,327.6z"/>
	
		<radialGradient id="path6613_1_" cx="381.6719" cy="170.2629" r="5.5558" gradientTransform="matrix(0.7727 0 0 -0.7727 -114.616 404.5963)" gradientUnits="userSpaceOnUse">
		<stop  offset="0" style="stop-color:#FFE900"/>
		<stop  offset="1" style="stop-color:#FF7900"/>
	</radialGradient>
	
		<path id="path6613" sodipodi:cx="222.73863" sodipodi:cy="154.33656" sodipodi:rx="5.5558391" sodipodi:ry="5.5558391" sodipodi:type="arc" class="st10" d="
		M184.6,273c0,2.4-1.9,4.3-4.3,4.3s-4.3-1.9-4.3-4.3c0-2.4,1.9-4.3,4.3-4.3S184.6,270.7,184.6,273z"/>
	
		<radialGradient id="path6625_1_" cx="381.6719" cy="170.2629" r="5.5558" gradientTransform="matrix(0.7727 0 0 -0.7727 -8.0449 403.5861)" gradientUnits="userSpaceOnUse">
		<stop  offset="0" style="stop-color:#FFE900"/>
		<stop  offset="1" style="stop-color:#FF7900"/>
	</radialGradient>
	
		<path id="path6625" sodipodi:cx="222.73863" sodipodi:cy="154.33656" sodipodi:rx="5.5558391" sodipodi:ry="5.5558391" sodipodi:type="arc" class="st11" d="
		M291.2,272c0,2.4-1.9,4.3-4.3,4.3c-2.4,0-4.3-1.9-4.3-4.3s1.9-4.3,4.3-4.3C289.3,267.7,291.2,269.6,291.2,272z"/>
	
		<radialGradient id="path6633_1_" cx="381.6719" cy="170.2629" r="5.5558" gradientTransform="matrix(0.7727 0 0 -0.7727 99.0313 404.5963)" gradientUnits="userSpaceOnUse">
		<stop  offset="0" style="stop-color:#FFE900"/>
		<stop  offset="1" style="stop-color:#FF7900"/>
	</radialGradient>
	
		<path id="path6633" sodipodi:cx="222.73863" sodipodi:cy="154.33656" sodipodi:rx="5.5558391" sodipodi:ry="5.5558391" sodipodi:type="arc" class="st12" d="
		M398.3,273c0,2.4-1.9,4.3-4.3,4.3c-2.4,0-4.3-1.9-4.3-4.3c0-2.4,1.9-4.3,4.3-4.3C396.3,268.7,398.3,270.7,398.3,273z"/>
	
		<radialGradient id="path6641_1_" cx="381.6719" cy="170.2629" r="5.5558" gradientTransform="matrix(0.7727 0 0 -0.7727 -28.2479 370.7562)" gradientUnits="userSpaceOnUse">
		<stop  offset="0" style="stop-color:#FFE900"/>
		<stop  offset="1" style="stop-color:#FF7900"/>
	</radialGradient>
	
		<path id="path6641" sodipodi:cx="222.73863" sodipodi:cy="154.33656" sodipodi:rx="5.5558391" sodipodi:ry="5.5558391" sodipodi:type="arc" class="st13" d="
		M271,239.2c0,2.4-1.9,4.3-4.3,4.3s-4.3-1.9-4.3-4.3c0-2.4,1.9-4.3,4.3-4.3S271,236.8,271,239.2z"/>
	
		<radialGradient id="path6645_1_" cx="381.6719" cy="170.2629" r="5.5558" gradientTransform="matrix(0.7727 0 0 -0.7727 -7.0347 358.6342)" gradientUnits="userSpaceOnUse">
		<stop  offset="0" style="stop-color:#FFE900"/>
		<stop  offset="1" style="stop-color:#FF7900"/>
	</radialGradient>
	
		<path id="path6645" sodipodi:cx="222.73863" sodipodi:cy="154.33656" sodipodi:rx="5.5558391" sodipodi:ry="5.5558391" sodipodi:type="arc" class="st14" d="
		M292.2,227.1c0,2.4-1.9,4.3-4.3,4.3c-2.4,0-4.3-1.9-4.3-4.3c0-2.4,1.9-4.3,4.3-4.3C290.3,222.8,292.2,224.7,292.2,227.1z"/>
	
		<radialGradient id="path6649_1_" cx="381.6719" cy="170.2629" r="5.5558" gradientTransform="matrix(0.7727 0 0 -0.7727 -71.6845 327.8246)" gradientUnits="userSpaceOnUse">
		<stop  offset="0" style="stop-color:#FFE900"/>
		<stop  offset="1" style="stop-color:#FF7900"/>
	</radialGradient>
	
		<path id="path6649" sodipodi:cx="222.73863" sodipodi:cy="154.33656" sodipodi:rx="5.5558391" sodipodi:ry="5.5558391" sodipodi:type="arc" class="st15" d="
		M227.5,196.3c0,2.4-1.9,4.3-4.3,4.3c-2.4,0-4.3-1.9-4.3-4.3c0-2.4,1.9-4.3,4.3-4.3C225.6,192,227.5,193.9,227.5,196.3z"/>
	
		<radialGradient id="path6653_1_" cx="381.6719" cy="170.2629" r="5.5558" gradientTransform="matrix(0.7727 0 0 -0.7727 -49.4611 358.1292)" gradientUnits="userSpaceOnUse">
		<stop  offset="0" style="stop-color:#FFE900"/>
		<stop  offset="1" style="stop-color:#FF7900"/>
	</radialGradient>
	
		<path id="path6653" sodipodi:cx="222.73863" sodipodi:cy="154.33656" sodipodi:rx="5.5558391" sodipodi:ry="5.5558391" sodipodi:type="arc" class="st16" d="
		M249.8,226.6c0,2.4-1.9,4.3-4.3,4.3s-4.3-1.9-4.3-4.3c0-2.4,1.9-4.3,4.3-4.3S249.8,224.2,249.8,226.6z"/>
	
		<radialGradient id="path6661_1_" cx="381.6719" cy="170.2629" r="5.5558" gradientTransform="matrix(0.7727 0 0 -0.7727 100.0415 359.1393)" gradientUnits="userSpaceOnUse">
		<stop  offset="0" style="stop-color:#FFE900"/>
		<stop  offset="1" style="stop-color:#FF7900"/>
	</radialGradient>
	
		<path id="path6661" sodipodi:cx="222.73863" sodipodi:cy="154.33656" sodipodi:rx="5.5558391" sodipodi:ry="5.5558391" sodipodi:type="arc" class="st17" d="
		M399.3,227.6c0,2.4-1.9,4.3-4.3,4.3c-2.4,0-4.3-1.9-4.3-4.3c0-2.4,1.9-4.3,4.3-4.3C397.3,223.3,399.3,225.2,399.3,227.6z"/>
	
		<radialGradient id="path6669_1_" cx="381.6719" cy="170.2629" r="5.5558" gradientTransform="matrix(0.7727 0 0 -0.7727 56.6049 316.2079)" gradientUnits="userSpaceOnUse">
		<stop  offset="0" style="stop-color:#FFE900"/>
		<stop  offset="1" style="stop-color:#FF7900"/>
	</radialGradient>
	
		<path id="path6669" sodipodi:cx="222.73863" sodipodi:cy="154.33656" sodipodi:rx="5.5558391" sodipodi:ry="5.5558391" sodipodi:type="arc" class="st18" d="
		M355.8,184.6c0,2.4-1.9,4.3-4.3,4.3s-4.3-1.9-4.3-4.3c0-2.4,1.9-4.3,4.3-4.3S355.8,182.3,355.8,184.6z"/>
	
		<radialGradient id="path6677_1_" cx="381.6719" cy="170.2629" r="5.5558" gradientTransform="matrix(0.7727 0 0 -0.7727 164.1862 358.6342)" gradientUnits="userSpaceOnUse">
		<stop  offset="0" style="stop-color:#FFE900"/>
		<stop  offset="1" style="stop-color:#FF7900"/>
	</radialGradient>
	
		<path id="path6677" sodipodi:cx="222.73863" sodipodi:cy="154.33656" sodipodi:rx="5.5558391" sodipodi:ry="5.5558391" sodipodi:type="arc" class="st19" d="
		M463.4,227.1c0,2.4-1.9,4.3-4.3,4.3s-4.3-1.9-4.3-4.3c0-2.4,1.9-4.3,4.3-4.3S463.4,224.7,463.4,227.1z"/>
	
		<radialGradient id="path6681_1_" cx="381.6719" cy="170.2629" r="5.5558" gradientTransform="matrix(0.7727 0 0 -0.7727 206.1075 358.1292)" gradientUnits="userSpaceOnUse">
		<stop  offset="0" style="stop-color:#FFE900"/>
		<stop  offset="1" style="stop-color:#FF7900"/>
	</radialGradient>
	
		<path id="path6681" sodipodi:cx="222.73863" sodipodi:cy="154.33656" sodipodi:rx="5.5558391" sodipodi:ry="5.5558391" sodipodi:type="arc" class="st20" d="
		M505.3,226.6c0,2.4-1.9,4.3-4.3,4.3s-4.3-1.9-4.3-4.3c0-2.4,1.9-4.3,4.3-4.3S505.3,224.2,505.3,226.6z"/>
	
		<radialGradient id="path6685_1_" cx="381.6719" cy="170.2629" r="5.5558" gradientTransform="matrix(0.7727 0 0 -0.7727 163.176 316.2079)" gradientUnits="userSpaceOnUse">
		<stop  offset="0" style="stop-color:#FFE900"/>
		<stop  offset="1" style="stop-color:#FF7900"/>
	</radialGradient>
	
		<path id="path6685" sodipodi:cx="222.73863" sodipodi:cy="154.33656" sodipodi:rx="5.5558391" sodipodi:ry="5.5558391" sodipodi:type="arc" class="st21" d="
		M462.4,184.6c0,2.4-1.9,4.3-4.3,4.3s-4.3-1.9-4.3-4.3c0-2.4,1.9-4.3,4.3-4.3S462.4,182.3,462.4,184.6z"/>
	
		<radialGradient id="path6689_1_" cx="381.6719" cy="170.2629" r="5.5558" gradientTransform="matrix(0.7727 0 0 -0.7727 270.2522 316.2079)" gradientUnits="userSpaceOnUse">
		<stop  offset="0" style="stop-color:#FFE900"/>
		<stop  offset="1" style="stop-color:#FF7900"/>
	</radialGradient>
	
		<path id="path6689" sodipodi:cx="222.73863" sodipodi:cy="154.33656" sodipodi:rx="5.5558391" sodipodi:ry="5.5558391" sodipodi:type="arc" class="st22" d="
		M569.5,184.6c0,2.4-1.9,4.3-4.3,4.3s-4.3-1.9-4.3-4.3c0-2.4,1.9-4.3,4.3-4.3S569.5,182.3,569.5,184.6z"/>
	
		<radialGradient id="path6693_1_" cx="381.6719" cy="170.2629" r="5.5558" gradientTransform="matrix(0.7727 0 0 -0.7727 271.2623 358.1292)" gradientUnits="userSpaceOnUse">
		<stop  offset="0" style="stop-color:#FFE900"/>
		<stop  offset="1" style="stop-color:#FF7900"/>
	</radialGradient>
	
		<path id="path6693" sodipodi:cx="222.73863" sodipodi:cy="154.33656" sodipodi:rx="5.5558391" sodipodi:ry="5.5558391" sodipodi:type="arc" class="st23" d="
		M570.5,226.6c0,2.4-1.9,4.3-4.3,4.3c-2.4,0-4.3-1.9-4.3-4.3c0-2.4,1.9-4.3,4.3-4.3C568.6,222.3,570.5,224.2,570.5,226.6z"/>
	
		<radialGradient id="path6697_1_" cx="381.6719" cy="170.2629" r="5.5558" gradientTransform="matrix(0.7727 0 0 -0.7727 313.6888 357.6241)" gradientUnits="userSpaceOnUse">
		<stop  offset="0" style="stop-color:#FFE900"/>
		<stop  offset="1" style="stop-color:#FF7900"/>
	</radialGradient>
	
		<path id="path6697" sodipodi:cx="222.73863" sodipodi:cy="154.33656" sodipodi:rx="5.5558391" sodipodi:ry="5.5558391" sodipodi:type="arc" class="st24" d="
		M612.9,226.1c0,2.4-1.9,4.3-4.3,4.3s-4.3-1.9-4.3-4.3c0-2.4,1.9-4.3,4.3-4.3S612.9,223.7,612.9,226.1z"/>
	
		<radialGradient id="path6717_1_" cx="381.6719" cy="170.2629" r="5.5558" gradientTransform="matrix(0.7727 0 0 -0.7727 206.6125 446.5175)" gradientUnits="userSpaceOnUse">
		<stop  offset="0" style="stop-color:#FFE900"/>
		<stop  offset="1" style="stop-color:#FF7900"/>
	</radialGradient>
	
		<path id="path6717" sodipodi:cx="222.73863" sodipodi:cy="154.33656" sodipodi:rx="5.5558391" sodipodi:ry="5.5558391" sodipodi:type="arc" class="st25" d="
		M505.8,315c0,2.4-1.9,4.3-4.3,4.3s-4.3-1.9-4.3-4.3c0-2.4,1.9-4.3,4.3-4.3S505.8,312.6,505.8,315z"/>
	
		<radialGradient id="path6721_1_" cx="381.6719" cy="170.2629" r="5.5558" gradientTransform="matrix(0.7727 0 0 -0.7727 271.2623 446.0125)" gradientUnits="userSpaceOnUse">
		<stop  offset="0" style="stop-color:#FFE900"/>
		<stop  offset="1" style="stop-color:#FF7900"/>
	</radialGradient>
	
		<path id="path6721" sodipodi:cx="222.73863" sodipodi:cy="154.33656" sodipodi:rx="5.5558391" sodipodi:ry="5.5558391" sodipodi:type="arc" class="st26" d="
		M570.5,314.4c0,2.4-1.9,4.3-4.3,4.3c-2.4,0-4.3-1.9-4.3-4.3c0-2.4,1.9-4.3,4.3-4.3C568.6,310.2,570.5,312.1,570.5,314.4z"/>
	
		<radialGradient id="path6733_1_" cx="381.6719" cy="170.2629" r="5.5558" gradientTransform="matrix(0.7727 0 0 -0.7727 312.6786 447.0227)" gradientUnits="userSpaceOnUse">
		<stop  offset="0" style="stop-color:#FFE900"/>
		<stop  offset="1" style="stop-color:#FF7900"/>
	</radialGradient>
	
		<path id="path6733" sodipodi:cx="222.73863" sodipodi:cy="154.33656" sodipodi:rx="5.5558391" sodipodi:ry="5.5558391" sodipodi:type="arc" class="st27" d="
		M611.9,315.5c0,2.4-1.9,4.3-4.3,4.3s-4.3-1.9-4.3-4.3s1.9-4.3,4.3-4.3S611.9,313.1,611.9,315.5z"/>
	
		<radialGradient id="path6565_1_" cx="381.6719" cy="170.2629" r="5.5558" gradientTransform="matrix(0.7727 0 0 -0.7727 33.8765 283.3779)" gradientUnits="userSpaceOnUse">
		<stop  offset="0" style="stop-color:#FFE900"/>
		<stop  offset="1" style="stop-color:#FF7900"/>
	</radialGradient>
	
		<path id="path6565" sodipodi:cx="222.73863" sodipodi:cy="154.33656" sodipodi:rx="5.5558391" sodipodi:ry="5.5558391" sodipodi:type="arc" class="st28" d="
		M333.1,151.8c0,2.4-1.9,4.3-4.3,4.3s-4.3-1.9-4.3-4.3s1.9-4.3,4.3-4.3S333.1,149.4,333.1,151.8z"/>
	
		<radialGradient id="path6569_1_" cx="381.6719" cy="170.2629" r="5.5558" gradientTransform="matrix(0.7727 0 0 -0.7727 77.818 282.8728)" gradientUnits="userSpaceOnUse">
		<stop  offset="0" style="stop-color:#FFE900"/>
		<stop  offset="1" style="stop-color:#FF7900"/>
	</radialGradient>
	
		<path id="path6569" sodipodi:cx="222.73863" sodipodi:cy="154.33656" sodipodi:rx="5.5558391" sodipodi:ry="5.5558391" sodipodi:type="arc" class="st29" d="
		M377,151.3c0,2.4-1.9,4.3-4.3,4.3s-4.3-1.9-4.3-4.3c0-2.4,1.9-4.3,4.3-4.3S377,148.9,377,151.3z"/>
	
		<radialGradient id="path6581_1_" cx="381.6719" cy="170.2629" r="5.5558" gradientTransform="matrix(0.7727 0 0 -0.7727 291.4654 283.3779)" gradientUnits="userSpaceOnUse">
		<stop  offset="0" style="stop-color:#FFE900"/>
		<stop  offset="1" style="stop-color:#FF7900"/>
	</radialGradient>
	
		<path id="path6581" sodipodi:cx="222.73863" sodipodi:cy="154.33656" sodipodi:rx="5.5558391" sodipodi:ry="5.5558391" sodipodi:type="arc" class="st30" d="
		M590.7,151.8c0,2.4-1.9,4.3-4.3,4.3s-4.3-1.9-4.3-4.3s1.9-4.3,4.3-4.3S590.7,149.4,590.7,151.8z"/>
</g>
<g id="layer2" transform="translate(-111.8744,-96.19371)" inkscape:groupmode="layer" inkscape:label="surfaces">
	<path id="path8515" class="st31" d="M456.6,109.4l22.7,23.7l15.2-32.3L456.6,109.4z"/>
	<path id="path8513" sodipodi:nodetypes="cccc" class="st31" d="M343.6,144.2l43.6,0l-57.1-15.6L343.6,144.2z"/>
	<path id="path6741" class="st31" d="M247.5,152.5l-24.2-24.4l12.6,16.7L247.5,152.5z"/>
	<path id="path8517" class="st31" d="M461.3,152.4l-24.4-24.1L450,145L461.3,152.4z"/>
	<path id="path10364" class="st31" d="M568.4,152.5l18.3-22.6l-30.6,15.3L568.4,152.5z"/>
	<path id="path10366" sodipodi:nodetypes="cccc" class="st31" d="M586.6,130l-21-13.6l-9.7,28.8L586.6,130z"/>
	<path id="path10368" sodipodi:nodetypes="cccc" class="st31" d="M565.5,116.5l42.8,0.2l-21.6,13.2L565.5,116.5z"/>
	<path id="path11307" class="st31" d="M116.3,217.5h42.8l21.9-11.1L116.3,217.5z"/>
	<path id="path11309" class="st31" d="M181,206.3l-43,0l-21.7,11.1L181,206.3z"/>
	<path id="path11311" class="st31" d="M237,188.8l11,8.5L223.2,221L237,188.8z"/>
	<path id="path11313" class="st31" d="M246.9,240l19.2-22.3l-31.5,15.5L246.9,240z"/>
	<path id="path11315" sodipodi:nodetypes="cccc" class="st31" d="M266.1,217.7l-21.2-13l-10.3,28.4L266.1,217.7z"/>
	<path id="path11317" sodipodi:nodetypes="cccc" class="st31" d="M244.9,204.8l43,0.2l-21.9,12.7L244.9,204.8z"/>
	<path id="path12210" sodipodi:nodetypes="cccc" class="st31" d="M340.7,190.6l11.1,18.8l24.7-25L340.7,190.6z"/>
	<path id="path12204" class="st31" d="M349.8,197.3l23.2,23.7l14.7-32.3L349.8,197.3z"/>
	<path id="path12206" class="st31" d="M354.1,240.1L330,215.7l12.5,16.7L354.1,240.1z"/>
	<path id="path12208" sodipodi:nodetypes="cccc" class="st31" d="M370.5,227.3l10.6,7.9l13.6-27.3L370.5,227.3z"/>
	<path id="path5564" class="st0" d="M372.8,197l21.5-12.4"/>
	<path id="path12358" sodipodi:nodetypes="cccc" class="st31" d="M445.2,192l-8.3,30.3l40.3-37.9L445.2,192z"/>
	<path id="path12360" sodipodi:nodetypes="cccc" class="st31" d="M477.2,184.4l-40.3,37.9l23.9,17.8L477.2,184.4z"/>
	<path id="path12362" sodipodi:nodetypes="cccc" class="st31" d="M501.5,204.6l-24.4-20.2l-16.5,55.7L501.5,204.6z"/>
	<path id="path12364" sodipodi:nodetypes="cccc" class="st31" d="M491.5,233.3l9.8-28.4l-40.6,35.2L491.5,233.3z"/>
	<path id="path5578" class="st0" d="M479.6,197l21.5-12.4"/>
	<path id="path12374" sodipodi:nodetypes="cccc" class="st31" d="M608.5,205.7L585,184.4l-32.6,7.3L608.5,205.7z"/>
	<path id="path12376" sodipodi:nodetypes="cccc" class="st31" d="M565,240l43.5-34.3l-56.1-14L565,240z"/>
	<path id="path12378" sodipodi:nodetypes="cccc" class="st31" d="M551.5,235.3L565,240l-12.6-48.3L551.5,235.3L551.5,235.3z"/>
	<path id="path2395" sodipodi:nodetypes="cccc" class="st31" d="M565,240l43.5-34.3l-22,27.4L565,240L565,240z"/>
	<rect id="rect5586" x="543.6" y="197.1" class="st0" width="43" height="43"/>
	<path id="path5592" class="st0" d="M586.5,197l21.5-12.4"/>
	<path id="path12386" class="st31" d="M140.4,327.7l-24.2-24.6l12.8,17L140.4,327.7z"/>
	<path id="path12388" sodipodi:nodetypes="cccc" class="st31" d="M181,296.6L157.1,272l10.5,7.7L181,296.6z"/>
	<rect id="rect5616" x="223" y="284.7" class="st0" width="43" height="43"/>
	
		<radialGradient id="path6617_1_" cx="381.6719" cy="170.2629" r="5.5558" gradientTransform="matrix(0.7727 0 0 -0.7727 -72.1896 459.1445)" gradientUnits="userSpaceOnUse">
		<stop  offset="0" style="stop-color:#FFE900"/>
		<stop  offset="1" style="stop-color:#FF7900"/>
	</radialGradient>
	
		<path id="path6617" sodipodi:cx="222.73863" sodipodi:cy="154.33656" sodipodi:rx="5.5558391" sodipodi:ry="5.5558391" sodipodi:type="arc" class="st32" d="
		M227,327.6c0,2.4-1.9,4.3-4.3,4.3c-2.4,0-4.3-1.9-4.3-4.3s1.9-4.3,4.3-4.3C225.1,323.3,227,325.2,227,327.6z"/>
	
		<radialGradient id="path6621_1_" cx="381.6719" cy="170.2629" r="5.5558" gradientTransform="matrix(0.7727 0 0 -0.7727 -28.753 459.1445)" gradientUnits="userSpaceOnUse">
		<stop  offset="0" style="stop-color:#FFE900"/>
		<stop  offset="1" style="stop-color:#FF7900"/>
	</radialGradient>
	
		<path id="path6621" sodipodi:cx="222.73863" sodipodi:cy="154.33656" sodipodi:rx="5.5558391" sodipodi:ry="5.5558391" sodipodi:type="arc" class="st33" d="
		M270.5,327.6c0,2.4-1.9,4.3-4.3,4.3c-2.4,0-4.3-1.9-4.3-4.3s1.9-4.3,4.3-4.3C268.5,323.3,270.5,325.2,270.5,327.6z"/>
	<path id="path12396" sodipodi:nodetypes="cccc" class="st31" d="M287.9,298l-25.2-26l11,8.1L287.9,298z"/>
	<path id="path12398" sodipodi:nodetypes="cccc" class="st31" d="M394.7,297.1L369.9,272l10.9,7.9L394.7,297.1z"/>
	<path id="path12400" class="st31" d="M343.6,276.5l11.3,8.2l-24.7,24.9L343.6,276.5z"/>
	<path id="path12413" sodipodi:nodetypes="cccc" class="st31" d="M373,304.1l12,16.6l-34.7,7L373,304.1z"/>
	<path id="path12415" sodipodi:nodetypes="cccc" class="st31" d="M387.2,144.2l-14.7-15.6h-42.4L387.2,144.2z"/>
	<path id="path12417" sodipodi:nodetypes="cccc" class="st31" d="M237,318.7h44.4l-58.4-15.7L237,318.7z"/>
	<path id="path12419" sodipodi:nodetypes="cccc" class="st31" d="M281.5,318.7l-14.9-15.7h-43.5L281.5,318.7z"/>
	<path id="path12421" sodipodi:nodetypes="cccc" class="st31" d="M467.4,327.6v-42.8l-18.4-7.5L467.4,327.6z"/>
	<path id="path12423" sodipodi:nodetypes="cccc" class="st31" d="M467.4,327.6l-18.4-7.8v-42.4L467.4,327.6z"/>
	<path id="path12425" sodipodi:nodetypes="cccc" class="st31" d="M489,322.3l0-43.1l-18.4-7.1L489,322.3z"/>
	<path id="path12427" sodipodi:nodetypes="cccc" class="st31" d="M489,322.3l-18.4-7.4v-42.8L489,322.3z"/>
	<path id="path12441" sodipodi:nodetypes="cccc" class="st31" d="M600,319.9v-43l-30.3,50.8L600,319.9z"/>
	<path id="path12443" sodipodi:nodetypes="cccc" class="st31" d="M569.7,327.7l-4.2-35.5l-21.8,16.7L569.7,327.7z"/>
	<path id="path12445" sodipodi:nodetypes="cccc" class="st31" d="M565.5,292.2l34.5-15.3l-30.3,50.8L565.5,292.2z"/>
	<path id="path12447" sodipodi:nodetypes="cccc" class="st31" d="M600,276.9l-14.9-4.9l-19.6,20.2L600,276.9z"/>
</g>
<g id="layer4" transform="translate(-111.8744,-96.19371)" inkscape:groupmode="layer" inkscape:label="boules dessus">
	<rect id="rect5558" x="329.9" y="197.1" class="st0" width="43" height="43"/>
	
		<radialGradient id="path6665_1_" cx="381.6719" cy="170.2629" r="5.5558" gradientTransform="matrix(0.7727 0 0 -0.7727 76.8079 329.3398)" gradientUnits="userSpaceOnUse">
		<stop  offset="0" style="stop-color:#FFE900"/>
		<stop  offset="1" style="stop-color:#FF7900"/>
	</radialGradient>
	
		<path id="path6665" sodipodi:cx="222.73863" sodipodi:cy="154.33656" sodipodi:rx="5.5558391" sodipodi:ry="5.5558391" sodipodi:type="arc" class="st34" d="
		M376,197.8c0,2.4-1.9,4.3-4.3,4.3s-4.3-1.9-4.3-4.3c0-2.4,1.9-4.3,4.3-4.3S376,195.4,376,197.8z"/>
	<rect id="rect5572" x="436.8" y="197.1" class="st0" width="43" height="43"/>
	
		<radialGradient id="path6673_1_" cx="381.6719" cy="170.2629" r="5.5558" gradientTransform="matrix(0.7727 0 0 -0.7727 142.973 370.7562)" gradientUnits="userSpaceOnUse">
		<stop  offset="0" style="stop-color:#FFE900"/>
		<stop  offset="1" style="stop-color:#FF7900"/>
	</radialGradient>
	
		<path id="path6673" sodipodi:cx="222.73863" sodipodi:cy="154.33656" sodipodi:rx="5.5558391" sodipodi:ry="5.5558391" sodipodi:type="arc" class="st35" d="
		M442.2,239.2c0,2.4-1.9,4.3-4.3,4.3s-4.3-1.9-4.3-4.3c0-2.4,1.9-4.3,4.3-4.3S442.2,236.8,442.2,239.2z"/>
	
		<radialGradient id="path6701_1_" cx="381.6719" cy="170.2629" r="5.5558" gradientTransform="matrix(0.7727 0 0 -0.7727 291.9705 370.7562)" gradientUnits="userSpaceOnUse">
		<stop  offset="0" style="stop-color:#FFE900"/>
		<stop  offset="1" style="stop-color:#FF7900"/>
	</radialGradient>
	
		<path id="path6701" sodipodi:cx="222.73863" sodipodi:cy="154.33656" sodipodi:rx="5.5558391" sodipodi:ry="5.5558391" sodipodi:type="arc" class="st36" d="
		M591.2,239.2c0,2.4-1.9,4.3-4.3,4.3c-2.4,0-4.3-1.9-4.3-4.3c0-2.4,1.9-4.3,4.3-4.3C589.3,234.9,591.2,236.8,591.2,239.2z"/>
	<rect id="rect5630" x="329.9" y="284.7" class="st0" width="43" height="43"/>
	
		<radialGradient id="path6629_1_" cx="381.6719" cy="170.2629" r="5.5558" gradientTransform="matrix(0.7727 0 0 -0.7727 35.3917 416.718)" gradientUnits="userSpaceOnUse">
		<stop  offset="0" style="stop-color:#FFE900"/>
		<stop  offset="1" style="stop-color:#FF7900"/>
	</radialGradient>
	
		<path id="path6629" sodipodi:cx="222.73863" sodipodi:cy="154.33656" sodipodi:rx="5.5558391" sodipodi:ry="5.5558391" sodipodi:type="arc" class="st37" d="
		M334.6,285.2c0,2.4-1.9,4.3-4.3,4.3s-4.3-1.9-4.3-4.3c0-2.4,1.9-4.3,4.3-4.3S334.6,282.8,334.6,285.2z"/>
	
		<radialGradient id="path6637_1_" cx="381.6719" cy="170.2629" r="5.5558" gradientTransform="matrix(0.7727 0 0 -0.7727 78.3231 458.6394)" gradientUnits="userSpaceOnUse">
		<stop  offset="0" style="stop-color:#FFE900"/>
		<stop  offset="1" style="stop-color:#FF7900"/>
	</radialGradient>
	
		<path id="path6637" sodipodi:cx="222.73863" sodipodi:cy="154.33656" sodipodi:rx="5.5558391" sodipodi:ry="5.5558391" sodipodi:type="arc" class="st38" d="
		M377.5,327.1c0,2.4-1.9,4.3-4.3,4.3s-4.3-1.9-4.3-4.3s1.9-4.3,4.3-4.3S377.5,324.7,377.5,327.1z"/>
	<rect id="rect5644" x="436.8" y="284.7" class="st0" width="43" height="43"/>
	<path id="path5650" class="st0" d="M479.6,284.6l21.5-12.4"/>
	
		<radialGradient id="path6709_1_" cx="381.6719" cy="170.2629" r="5.5558" gradientTransform="matrix(0.7727 0 0 -0.7727 141.9628 459.1445)" gradientUnits="userSpaceOnUse">
		<stop  offset="0" style="stop-color:#FFE900"/>
		<stop  offset="1" style="stop-color:#FF7900"/>
	</radialGradient>
	
		<path id="path6709" sodipodi:cx="222.73863" sodipodi:cy="154.33656" sodipodi:rx="5.5558391" sodipodi:ry="5.5558391" sodipodi:type="arc" class="st39" d="
		M441.2,327.6c0,2.4-1.9,4.3-4.3,4.3s-4.3-1.9-4.3-4.3s1.9-4.3,4.3-4.3S441.2,325.2,441.2,327.6z"/>
	
		<radialGradient id="path6705_1_" cx="381.6719" cy="170.2629" r="5.5558" gradientTransform="matrix(0.7727 0 0 -0.7727 141.9628 416.718)" gradientUnits="userSpaceOnUse">
		<stop  offset="0" style="stop-color:#FFE900"/>
		<stop  offset="1" style="stop-color:#FF7900"/>
	</radialGradient>
	
		<path id="path6705" sodipodi:cx="222.73863" sodipodi:cy="154.33656" sodipodi:rx="5.5558391" sodipodi:ry="5.5558391" sodipodi:type="arc" class="st40" d="
		M441.2,285.2c0,2.4-1.9,4.3-4.3,4.3s-4.3-1.9-4.3-4.3c0-2.4,1.9-4.3,4.3-4.3S441.2,282.8,441.2,285.2z"/>
	<rect id="rect5658" x="543.6" y="284.7" class="st0" width="43" height="43"/>
	<path id="path5664" class="st0" d="M586.5,284.6l21.5-12.4"/>
	
		<radialGradient id="path6725_1_" cx="381.6719" cy="170.2629" r="5.5558" gradientTransform="matrix(0.7727 0 0 -0.7727 249.5441 458.1342)" gradientUnits="userSpaceOnUse">
		<stop  offset="0" style="stop-color:#FFE900"/>
		<stop  offset="1" style="stop-color:#FF7900"/>
	</radialGradient>
	
		<path id="path6725" sodipodi:cx="222.73863" sodipodi:cy="154.33656" sodipodi:rx="5.5558391" sodipodi:ry="5.5558391" sodipodi:type="arc" class="st41" d="
		M548.8,326.6c0,2.4-1.9,4.3-4.3,4.3c-2.4,0-4.3-1.9-4.3-4.3c0-2.4,1.9-4.3,4.3-4.3C546.8,322.3,548.8,324.2,548.8,326.6z"/>
	
		<radialGradient id="path6737_1_" cx="381.6719" cy="170.2629" r="5.5558" gradientTransform="matrix(0.7727 0 0 -0.7727 312.6786 403.5861)" gradientUnits="userSpaceOnUse">
		<stop  offset="0" style="stop-color:#FFE900"/>
		<stop  offset="1" style="stop-color:#FF7900"/>
	</radialGradient>
	
		<path id="path6737" sodipodi:cx="222.73863" sodipodi:cy="154.33656" sodipodi:rx="5.5558391" sodipodi:ry="5.5558391" sodipodi:type="arc" class="st42" d="
		M611.9,272c0,2.4-1.9,4.3-4.3,4.3s-4.3-1.9-4.3-4.3s1.9-4.3,4.3-4.3S611.9,269.6,611.9,272z"/>
</g>
<radialGradient id="path6713_1_" cx="269.7975" cy="74.0692" r="5.5558" gradientTransform="matrix(0.7727 0 0 -0.7727 180.1763 233.566)" gradientUnits="userSpaceOnUse">
	<stop  offset="0" style="stop-color:#FFE900"/>
	<stop  offset="1" style="stop-color:#FF7900"/>
</radialGradient>
<path id="path6713" sodipodi:cx="222.73863" sodipodi:cy="154.33656" sodipodi:rx="5.5558391" sodipodi:ry="5.5558391" sodipodi:type="arc" class="st43" d="
	M392.9,176.3c0,2.4-1.9,4.3-4.3,4.3c-2.4,0-4.3-1.9-4.3-4.3c0-2.4,1.9-4.3,4.3-4.3C391,172,392.9,174,392.9,176.3z"/>
<radialGradient id="path6577_1_" cx="269.7975" cy="74.0692" r="5.5558" gradientTransform="matrix(0.7727 0 0 -0.7727 158.4581 70.4263)" gradientUnits="userSpaceOnUse">
	<stop  offset="0" style="stop-color:#FFE900"/>
	<stop  offset="1" style="stop-color:#FF7900"/>
</radialGradient>
<path id="path6577" sodipodi:cx="222.73863" sodipodi:cy="154.33656" sodipodi:rx="5.5558391" sodipodi:ry="5.5558391" sodipodi:type="arc" class="st44" d="
	M371.2,13.2c0,2.4-1.9,4.3-4.3,4.3c-2.4,0-4.3-1.9-4.3-4.3s1.9-4.3,4.3-4.3C369.3,8.9,371.2,10.8,371.2,13.2z"/>
<radialGradient id="path6657_1_" cx="269.7975" cy="74.0692" r="5.5558" gradientTransform="matrix(0.7727 0 0 -0.7727 9.9656 201.7462)" gradientUnits="userSpaceOnUse">
	<stop  offset="0" style="stop-color:#FFE900"/>
	<stop  offset="1" style="stop-color:#FF7900"/>
</radialGradient>
<path id="path6657" sodipodi:cx="222.73863" sodipodi:cy="154.33656" sodipodi:rx="5.5558391" sodipodi:ry="5.5558391" sodipodi:type="arc" class="st45" d="
	M222.7,144.5c0,2.4-1.9,4.3-4.3,4.3c-2.4,0-4.3-1.9-4.3-4.3c0-2.4,1.9-4.3,4.3-4.3C220.8,140.2,222.7,142.1,222.7,144.5z"/>
</svg>
